STARTFONT 2.1
FONT -Misc-Fixed-Medium-R-Normal--15-140-75-75-C-80-ISO10646-1
SIZE 14 75 75
FONTBOUNDINGBOX 8 16 0 -3
COMMENT "Generated by fontforge, http://fontforge.sourceforge.net"
COMMENT "Public domain font.  Share and enjoy."
STARTPROPERTIES 32
FOUNDRY "Misc"
FAMILY_NAME "Fixed"
WEIGHT_NAME "Medium"
SLANT "R"
SETWIDTH_NAME "Normal"
ADD_STYLE_NAME ""
PIXEL_SIZE 15
POINT_SIZE 140
RESOLUTION_X 75
RESOLUTION_Y 75
SPACING "C"
AVERAGE_WIDTH 80
CHARSET_REGISTRY "ISO10646"
CHARSET_ENCODING "1"
FONTNAME_REGISTRY ""
CHARSET_COLLECTIONS "ASCII ISOLatin1Encoding ISO8859-2 ISO8859-5 ISO8859-7 ISO8859-9 ISO8859-8 ISO8859-6 ISO8859-4 ISO8859-11 ISO10646-1"
FONT_NAME "FixedMedium"
FACE_NAME "Fixed Medium"
COPYRIGHT "Public domain font.  Share and enjoy."
FONT_VERSION "001.000"
FONT_ASCENT 12
FONT_DESCENT 3
UNDERLINE_POSITION 0
UNDERLINE_THICKNESS 1
X_HEIGHT 5
CAP_HEIGHT 10
RAW_ASCENT 800
RAW_DESCENT 200
NORM_SPACE 8
FIGURE_WIDTH 8
AVG_LOWERCASE_WIDTH 80
AVG_UPPERCASE_WIDTH 80
ENDPROPERTIES
CHARS 5205
STARTCHAR char0
ENCODING 0
SWIDTH 480 0
DWIDTH 8 0
BBX 7 10 1 1
BITMAP
CC
86
00
00
80
86
00
00
86
CE
ENDCHAR
STARTCHAR space
ENCODING 32
SWIDTH 480 0
DWIDTH 8 0
BBX 1 1 7 -3
BITMAP
00
ENDCHAR
STARTCHAR exclam
ENCODING 33
SWIDTH 480 0
DWIDTH 8 0
BBX 2 10 3 1
BITMAP
C0
C0
C0
C0
C0
C0
C0
C0
80
C0
ENDCHAR
STARTCHAR quotedbl
ENCODING 34
SWIDTH 480 0
DWIDTH 8 0
BBX 5 3 1 8
BITMAP
D8
D8
D0
ENDCHAR
STARTCHAR numbersign
ENCODING 35
SWIDTH 480 0
DWIDTH 8 0
BBX 7 8 1 2
BITMAP
3E
3E
7E
78
7C
FC
58
58
ENDCHAR
STARTCHAR dollar
ENCODING 36
SWIDTH 480 0
DWIDTH 8 0
BBX 7 10 1 1
BITMAP
30
7C
F8
F0
F8
3C
3E
3E
7C
38
ENDCHAR
STARTCHAR percent
ENCODING 37
SWIDTH 480 0
DWIDTH 8 0
BBX 7 9 1 0
BITMAP
7E
FC
78
18
18
30
7E
7E
4E
ENDCHAR
STARTCHAR ampersand
ENCODING 38
SWIDTH 480 0
DWIDTH 8 0
BBX 7 10 1 1
BITMAP
30
78
58
70
70
F0
DE
CC
DC
7E
ENDCHAR
STARTCHAR quotesingle
ENCODING 39
SWIDTH 480 0
DWIDTH 8 0
BBX 2 4 3 7
BITMAP
C0
C0
C0
80
ENDCHAR
STARTCHAR parenleft
ENCODING 40
SWIDTH 480 0
DWIDTH 8 0
BBX 4 10 2 1
BITMAP
30
60
40
C0
C0
C0
C0
40
60
30
ENDCHAR
STARTCHAR parenright
ENCODING 41
SWIDTH 480 0
DWIDTH 8 0
BBX 4 10 1 1
BITMAP
C0
60
60
30
30
30
30
60
60
C0
ENDCHAR
STARTCHAR asterisk
ENCODING 42
SWIDTH 480 0
DWIDTH 8 0
BBX 6 5 1 3
BITMAP
48
7C
FC
78
68
ENDCHAR
STARTCHAR plus
ENCODING 43
SWIDTH 480 0
DWIDTH 8 0
BBX 6 5 1 3
BITMAP
30
30
FC
30
30
ENDCHAR
STARTCHAR comma
ENCODING 44
SWIDTH 480 0
DWIDTH 8 0
BBX 4 2 2 0
BITMAP
70
E0
ENDCHAR
STARTCHAR hyphen
ENCODING 45
SWIDTH 480 0
DWIDTH 8 0
BBX 6 1 1 6
BITMAP
FC
ENDCHAR
STARTCHAR period
ENCODING 46
SWIDTH 480 0
DWIDTH 8 0
BBX 2 2 3 1
BITMAP
C0
C0
ENDCHAR
STARTCHAR slash
ENCODING 47
SWIDTH 480 0
DWIDTH 8 0
BBX 5 9 1 0
BITMAP
08
18
18
30
30
60
40
C0
C0
ENDCHAR
STARTCHAR zero
ENCODING 48
SWIDTH 480 0
DWIDTH 8 0
BBX 7 10 1 1
BITMAP
30
78
48
CC
CE
CE
CE
4C
78
30
ENDCHAR
STARTCHAR one
ENCODING 49
SWIDTH 480 0
DWIDTH 8 0
BBX 6 10 1 1
BITMAP
30
70
F0
30
30
30
30
30
30
FC
ENDCHAR
STARTCHAR two
ENCODING 50
SWIDTH 480 0
DWIDTH 8 0
BBX 7 10 1 1
BITMAP
38
6C
CE
0E
0C
18
30
60
C0
FC
ENDCHAR
STARTCHAR three
ENCODING 51
SWIDTH 480 0
DWIDTH 8 0
BBX 7 10 1 1
BITMAP
38
6C
CE
0E
1C
08
0C
CE
4C
78
ENDCHAR
STARTCHAR four
ENCODING 52
SWIDTH 480 0
DWIDTH 8 0
BBX 6 9 1 1
BITMAP
08
18
38
68
C8
FC
0C
08
08
ENDCHAR
STARTCHAR five
ENCODING 53
SWIDTH 480 0
DWIDTH 8 0
BBX 7 10 1 1
BITMAP
FC
C0
C0
C0
F8
0C
0E
0E
4C
78
ENDCHAR
STARTCHAR six
ENCODING 54
SWIDTH 480 0
DWIDTH 8 0
BBX 7 10 1 1
BITMAP
38
68
C0
C0
F8
CC
CE
CE
4C
78
ENDCHAR
STARTCHAR seven
ENCODING 55
SWIDTH 480 0
DWIDTH 8 0
BBX 7 10 1 1
BITMAP
FC
0E
0C
08
18
10
30
70
60
40
ENDCHAR
STARTCHAR eight
ENCODING 56
SWIDTH 480 0
DWIDTH 8 0
BBX 7 10 1 1
BITMAP
38
6C
CE
CE
7C
68
CC
CE
4C
78
ENDCHAR
STARTCHAR nine
ENCODING 57
SWIDTH 480 0
DWIDTH 8 0
BBX 7 10 1 1
BITMAP
38
6C
CE
CE
CE
7E
3E
0E
4C
78
ENDCHAR
STARTCHAR colon
ENCODING 58
SWIDTH 480 0
DWIDTH 8 0
BBX 2 6 3 0
BITMAP
C0
C0
00
00
C0
C0
ENDCHAR
STARTCHAR semicolon
ENCODING 59
SWIDTH 480 0
DWIDTH 8 0
BBX 4 7 2 0
BITMAP
70
60
00
00
60
70
C0
ENDCHAR
STARTCHAR less
ENCODING 60
SWIDTH 480 0
DWIDTH 8 0
BBX 4 9 2 1
BITMAP
10
30
60
C0
80
C0
60
10
10
ENDCHAR
STARTCHAR equal
ENCODING 61
SWIDTH 480 0
DWIDTH 8 0
BBX 6 5 1 3
BITMAP
FC
00
00
00
FC
ENDCHAR
STARTCHAR greater
ENCODING 62
SWIDTH 480 0
DWIDTH 8 0
BBX 5 10 1 1
BITMAP
80
C0
60
30
18
18
30
60
C0
80
ENDCHAR
STARTCHAR question
ENCODING 63
SWIDTH 480 0
DWIDTH 8 0
BBX 7 10 1 1
BITMAP
38
6C
CE
CE
0C
18
30
10
10
30
ENDCHAR
STARTCHAR at
ENCODING 64
SWIDTH 480 0
DWIDTH 8 0
BBX 7 10 1 1
BITMAP
38
6C
DE
FE
FE
FE
FC
D8
44
7C
ENDCHAR
STARTCHAR A
ENCODING 65
SWIDTH 480 0
DWIDTH 8 0
BBX 7 10 1 1
BITMAP
30
78
48
CC
CE
FE
FE
CE
CE
CE
ENDCHAR
STARTCHAR B
ENCODING 66
SWIDTH 480 0
DWIDTH 8 0
BBX 7 10 1 1
BITMAP
F0
D8
C8
C8
F8
C8
CC
CE
CC
F8
ENDCHAR
STARTCHAR C
ENCODING 67
SWIDTH 480 0
DWIDTH 8 0
BBX 6 10 1 1
BITMAP
38
6C
C0
C0
C0
C0
C0
C4
4C
78
ENDCHAR
STARTCHAR D
ENCODING 68
SWIDTH 480 0
DWIDTH 8 0
BBX 7 10 1 1
BITMAP
F8
CC
CE
CE
CE
CE
CE
CE
CC
F8
ENDCHAR
STARTCHAR E
ENCODING 69
SWIDTH 480 0
DWIDTH 8 0
BBX 6 10 1 1
BITMAP
FC
C0
C0
C0
F0
C0
C0
C0
C0
FC
ENDCHAR
STARTCHAR F
ENCODING 70
SWIDTH 480 0
DWIDTH 8 0
BBX 6 10 1 1
BITMAP
FC
C0
C0
C0
F0
C0
C0
C0
C0
C0
ENDCHAR
STARTCHAR G
ENCODING 71
SWIDTH 480 0
DWIDTH 8 0
BBX 7 10 1 1
BITMAP
38
6C
C0
C0
CC
CE
CE
CE
4E
7E
ENDCHAR
STARTCHAR H
ENCODING 72
SWIDTH 480 0
DWIDTH 8 0
BBX 7 10 1 1
BITMAP
C4
CE
CE
CE
FE
CE
CE
CE
CE
CE
ENDCHAR
STARTCHAR I
ENCODING 73
SWIDTH 480 0
DWIDTH 8 0
BBX 6 10 1 1
BITMAP
FC
30
30
30
30
30
30
30
30
FC
ENDCHAR
STARTCHAR J
ENCODING 74
SWIDTH 480 0
DWIDTH 8 0
BBX 7 10 1 1
BITMAP
3E
0C
08
08
08
08
08
C8
58
70
ENDCHAR
STARTCHAR K
ENCODING 75
SWIDTH 480 0
DWIDTH 8 0
BBX 7 10 1 1
BITMAP
C4
CC
C8
D8
F8
D8
D8
C8
CC
CE
ENDCHAR
STARTCHAR L
ENCODING 76
SWIDTH 480 0
DWIDTH 8 0
BBX 6 10 1 1
BITMAP
C0
C0
C0
C0
C0
C0
C0
C0
C0
FC
ENDCHAR
STARTCHAR M
ENCODING 77
SWIDTH 480 0
DWIDTH 8 0
BBX 7 10 1 1
BITMAP
C4
CE
CE
FE
FE
FE
FE
CE
CE
CE
ENDCHAR
STARTCHAR N
ENCODING 78
SWIDTH 480 0
DWIDTH 8 0
BBX 7 10 1 1
BITMAP
C4
CE
EE
FE
FE
DE
DE
CE
CE
CE
ENDCHAR
STARTCHAR O
ENCODING 79
SWIDTH 480 0
DWIDTH 8 0
BBX 7 10 1 1
BITMAP
38
6C
CE
CE
CE
CE
CE
CE
4C
78
ENDCHAR
STARTCHAR P
ENCODING 80
SWIDTH 480 0
DWIDTH 8 0
BBX 7 10 1 1
BITMAP
F8
CC
CE
CE
CC
F8
F0
C0
C0
C0
ENDCHAR
STARTCHAR Q
ENCODING 81
SWIDTH 480 0
DWIDTH 8 0
BBX 7 11 1 0
BITMAP
38
6C
CE
CE
CE
CE
CE
DE
4C
78
04
ENDCHAR
STARTCHAR R
ENCODING 82
SWIDTH 480 0
DWIDTH 8 0
BBX 7 10 1 1
BITMAP
F8
CC
CE
CE
CC
F8
F8
C8
CC
CE
ENDCHAR
STARTCHAR S
ENCODING 83
SWIDTH 480 0
DWIDTH 8 0
BBX 7 10 1 1
BITMAP
38
6C
C0
C0
70
08
0C
0E
4C
78
ENDCHAR
STARTCHAR T
ENCODING 84
SWIDTH 480 0
DWIDTH 8 0
BBX 6 10 1 1
BITMAP
FC
30
30
30
30
30
30
30
30
30
ENDCHAR
STARTCHAR U
ENCODING 85
SWIDTH 480 0
DWIDTH 8 0
BBX 7 10 1 1
BITMAP
C4
CE
CE
CE
CE
CE
CE
CE
4C
78
ENDCHAR
STARTCHAR V
ENCODING 86
SWIDTH 480 0
DWIDTH 8 0
BBX 7 10 1 1
BITMAP
C4
CE
CE
4C
48
78
78
38
30
30
ENDCHAR
STARTCHAR W
ENCODING 87
SWIDTH 480 0
DWIDTH 8 0
BBX 7 10 1 1
BITMAP
C4
CE
CE
CE
DE
FE
FE
EE
CE
CE
ENDCHAR
STARTCHAR X
ENCODING 88
SWIDTH 480 0
DWIDTH 8 0
BBX 7 10 1 1
BITMAP
C4
CC
48
78
38
38
78
68
CC
CE
ENDCHAR
STARTCHAR Y
ENCODING 89
SWIDTH 480 0
DWIDTH 8 0
BBX 6 10 1 1
BITMAP
C4
CC
48
78
38
30
30
30
30
30
ENDCHAR
STARTCHAR Z
ENCODING 90
SWIDTH 480 0
DWIDTH 8 0
BBX 7 10 1 1
BITMAP
FC
0E
0C
18
18
30
70
60
C0
FC
ENDCHAR
STARTCHAR bracketleft
ENCODING 91
SWIDTH 480 0
DWIDTH 8 0
BBX 5 10 1 1
BITMAP
F8
C0
C0
C0
C0
C0
C0
C0
C0
F8
ENDCHAR
STARTCHAR backslash
ENCODING 92
SWIDTH 480 0
DWIDTH 8 0
BBX 5 9 1 0
BITMAP
C0
C0
40
60
30
30
18
18
08
ENDCHAR
STARTCHAR bracketright
ENCODING 93
SWIDTH 480 0
DWIDTH 8 0
BBX 5 10 1 1
BITMAP
F8
18
18
18
18
18
18
18
18
F8
ENDCHAR
STARTCHAR asciicircum
ENCODING 94
SWIDTH 480 0
DWIDTH 8 0
BBX 6 4 1 7
BITMAP
30
78
CC
04
ENDCHAR
STARTCHAR underscore
ENCODING 95
SWIDTH 480 0
DWIDTH 8 0
BBX 7 1 1 0
BITMAP
FE
ENDCHAR
STARTCHAR grave
ENCODING 96
SWIDTH 480 0
DWIDTH 8 0
BBX 3 2 2 8
BITMAP
C0
60
ENDCHAR
STARTCHAR a
ENCODING 97
SWIDTH 480 0
DWIDTH 8 0
BBX 7 6 1 0
BITMAP
7C
6C
7E
CE
CE
7E
ENDCHAR
STARTCHAR b
ENCODING 98
SWIDTH 480 0
DWIDTH 8 0
BBX 7 10 1 1
BITMAP
C0
C0
C0
C0
F8
CC
CE
CE
CC
F8
ENDCHAR
STARTCHAR c
ENCODING 99
SWIDTH 480 0
DWIDTH 8 0
BBX 6 6 1 0
BITMAP
7C
C4
C0
C0
C4
7C
ENDCHAR
STARTCHAR d
ENCODING 100
SWIDTH 480 0
DWIDTH 8 0
BBX 7 10 1 1
BITMAP
04
0E
0E
0E
7E
CE
CE
CE
4E
7E
ENDCHAR
STARTCHAR e
ENCODING 101
SWIDTH 480 0
DWIDTH 8 0
BBX 7 6 1 0
BITMAP
78
EC
FE
C0
C4
7C
ENDCHAR
STARTCHAR f
ENCODING 102
SWIDTH 480 0
DWIDTH 8 0
BBX 6 10 1 1
BITMAP
38
7C
70
70
F0
70
70
70
70
70
ENDCHAR
STARTCHAR g
ENCODING 103
SWIDTH 480 0
DWIDTH 8 0
BBX 7 9 1 -3
BITMAP
7E
CC
C8
C8
F8
78
CE
CC
7C
ENDCHAR
STARTCHAR h
ENCODING 104
SWIDTH 480 0
DWIDTH 8 0
BBX 7 10 1 1
BITMAP
C0
C0
C0
C0
F8
CC
CE
CE
CE
CE
ENDCHAR
STARTCHAR i
ENCODING 105
SWIDTH 480 0
DWIDTH 8 0
BBX 5 8 2 1
BITMAP
60
20
60
60
60
60
60
F8
ENDCHAR
STARTCHAR j
ENCODING 106
SWIDTH 480 0
DWIDTH 8 0
BBX 5 11 1 -2
BITMAP
08
08
38
18
08
08
08
08
88
C8
F8
ENDCHAR
STARTCHAR k
ENCODING 107
SWIDTH 480 0
DWIDTH 8 0
BBX 6 10 1 1
BITMAP
C0
C0
C0
C0
C8
D8
F0
F0
C8
CC
ENDCHAR
STARTCHAR l
ENCODING 108
SWIDTH 480 0
DWIDTH 8 0
BBX 6 10 1 1
BITMAP
70
30
30
30
30
30
30
30
30
FC
ENDCHAR
STARTCHAR m
ENCODING 109
SWIDTH 480 0
DWIDTH 8 0
BBX 7 6 1 0
BITMAP
FC
FC
FE
FE
FE
FE
ENDCHAR
STARTCHAR n
ENCODING 110
SWIDTH 480 0
DWIDTH 8 0
BBX 7 6 1 0
BITMAP
F8
CC
CE
CE
CE
CE
ENDCHAR
STARTCHAR o
ENCODING 111
SWIDTH 480 0
DWIDTH 8 0
BBX 7 6 1 0
BITMAP
78
CC
CE
CE
CC
78
ENDCHAR
STARTCHAR p
ENCODING 112
SWIDTH 480 0
DWIDTH 8 0
BBX 7 9 1 -3
BITMAP
F8
CC
CE
CE
CC
F8
C0
C0
C0
ENDCHAR
STARTCHAR q
ENCODING 113
SWIDTH 480 0
DWIDTH 8 0
BBX 7 9 1 -3
BITMAP
7E
CE
CE
CE
CE
7E
0E
0E
0E
ENDCHAR
STARTCHAR r
ENCODING 114
SWIDTH 480 0
DWIDTH 8 0
BBX 6 6 1 0
BITMAP
FC
64
40
40
40
40
ENDCHAR
STARTCHAR s
ENCODING 115
SWIDTH 480 0
DWIDTH 8 0
BBX 7 6 1 0
BITMAP
7C
CC
78
0E
CC
7C
ENDCHAR
STARTCHAR t
ENCODING 116
SWIDTH 480 0
DWIDTH 8 0
BBX 6 8 1 1
BITMAP
20
70
F0
70
70
70
70
3C
ENDCHAR
STARTCHAR u
ENCODING 117
SWIDTH 480 0
DWIDTH 8 0
BBX 7 6 1 0
BITMAP
CE
CE
CE
CE
CE
7E
ENDCHAR
STARTCHAR v
ENCODING 118
SWIDTH 480 0
DWIDTH 8 0
BBX 7 6 1 0
BITMAP
CE
CC
48
78
38
30
ENDCHAR
STARTCHAR w
ENCODING 119
SWIDTH 480 0
DWIDTH 8 0
BBX 7 6 1 0
BITMAP
CE
CE
FE
FE
FC
6C
ENDCHAR
STARTCHAR x
ENCODING 120
SWIDTH 480 0
DWIDTH 8 0
BBX 6 6 1 0
BITMAP
CC
78
30
30
78
CC
ENDCHAR
STARTCHAR y
ENCODING 121
SWIDTH 480 0
DWIDTH 8 0
BBX 7 9 1 -3
BITMAP
CE
CE
CE
CE
CE
7E
0E
CC
78
ENDCHAR
STARTCHAR z
ENCODING 122
SWIDTH 480 0
DWIDTH 8 0
BBX 5 6 1 0
BITMAP
F8
18
30
60
E0
F8
ENDCHAR
STARTCHAR braceleft
ENCODING 123
SWIDTH 480 0
DWIDTH 8 0
BBX 5 10 2 1
BITMAP
38
20
60
60
E0
60
60
60
60
38
ENDCHAR
STARTCHAR bar
ENCODING 124
SWIDTH 480 0
DWIDTH 8 0
BBX 2 10 3 1
BITMAP
C0
C0
C0
C0
C0
C0
C0
C0
C0
C0
ENDCHAR
STARTCHAR braceright
ENCODING 125
SWIDTH 480 0
DWIDTH 8 0
BBX 6 10 1 1
BITMAP
E0
30
30
30
1C
18
30
30
30
F0
ENDCHAR
STARTCHAR asciitilde
ENCODING 126
SWIDTH 480 0
DWIDTH 8 0
BBX 6 2 1 8
BITMAP
64
FC
ENDCHAR
STARTCHAR space
ENCODING 160
SWIDTH 480 0
DWIDTH 8 0
BBX 1 1 7 -3
BITMAP
00
ENDCHAR
STARTCHAR exclamdown
ENCODING 161
SWIDTH 480 0
DWIDTH 8 0
BBX 2 10 3 1
BITMAP
C0
C0
80
C0
C0
C0
C0
C0
C0
C0
ENDCHAR
STARTCHAR cent
ENCODING 162
SWIDTH 480 0
DWIDTH 8 0
BBX 5 9 1 0
BITMAP
30
38
68
C0
C0
C0
68
38
30
ENDCHAR
STARTCHAR sterling
ENCODING 163
SWIDTH 480 0
DWIDTH 8 0
BBX 7 9 1 0
BITMAP
3C
7C
70
70
F8
70
70
FA
CE
ENDCHAR
STARTCHAR currency
ENCODING 164
SWIDTH 480 0
DWIDTH 8 0
BBX 7 7 0 2
BITMAP
82
FE
6C
4C
FC
FE
82
ENDCHAR
STARTCHAR yen
ENCODING 165
SWIDTH 480 0
DWIDTH 8 0
BBX 6 8 1 1
BITMAP
84
CC
78
78
78
38
30
30
ENDCHAR
STARTCHAR brokenbar
ENCODING 166
SWIDTH 480 0
DWIDTH 8 0
BBX 2 10 3 1
BITMAP
C0
C0
C0
C0
00
00
C0
C0
C0
C0
ENDCHAR
STARTCHAR section
ENCODING 167
SWIDTH 480 0
DWIDTH 8 0
BBX 6 10 1 1
BITMAP
38
68
40
70
F8
7C
3C
4C
4C
78
ENDCHAR
STARTCHAR dieresis
ENCODING 168
SWIDTH 480 0
DWIDTH 8 0
BBX 5 2 1 9
BITMAP
D8
D8
ENDCHAR
STARTCHAR copyright
ENCODING 169
SWIDTH 480 0
DWIDTH 8 0
BBX 7 8 1 1
BITMAP
38
6C
FE
FE
C6
FE
FE
7C
ENDCHAR
STARTCHAR ordfeminine
ENCODING 170
SWIDTH 480 0
DWIDTH 8 0
BBX 7 7 1 4
BITMAP
38
4C
3E
FE
FE
00
FC
ENDCHAR
STARTCHAR guillemotleft
ENCODING 171
SWIDTH 480 0
DWIDTH 8 0
BBX 7 8 0 1
BITMAP
0A
1E
3C
78
F0
78
3C
1E
ENDCHAR
STARTCHAR logicalnot
ENCODING 172
SWIDTH 480 0
DWIDTH 8 0
BBX 7 3 1 3
BITMAP
FE
FE
0E
ENDCHAR
STARTCHAR hyphen
ENCODING 173
SWIDTH 480 0
DWIDTH 8 0
BBX 5 1 1 6
BITMAP
F8
ENDCHAR
STARTCHAR registered
ENCODING 174
SWIDTH 480 0
DWIDTH 8 0
BBX 7 8 1 1
BITMAP
38
6C
FE
FE
FE
DE
CE
7C
ENDCHAR
STARTCHAR macron
ENCODING 175
SWIDTH 480 0
DWIDTH 8 0
BBX 6 1 1 11
BITMAP
FC
ENDCHAR
STARTCHAR degree
ENCODING 176
SWIDTH 480 0
DWIDTH 8 0
BBX 5 5 1 6
BITMAP
60
F0
D8
F0
60
ENDCHAR
STARTCHAR plusminus
ENCODING 177
SWIDTH 480 0
DWIDTH 8 0
BBX 5 5 2 2
BITMAP
60
F8
70
60
F8
ENDCHAR
STARTCHAR twosuperior
ENCODING 178
SWIDTH 480 0
DWIDTH 8 0
BBX 4 5 1 6
BITMAP
60
F0
20
60
E0
ENDCHAR
STARTCHAR threesuperior
ENCODING 179
SWIDTH 480 0
DWIDTH 8 0
BBX 4 5 1 6
BITMAP
60
F0
20
30
F0
ENDCHAR
STARTCHAR acute
ENCODING 180
SWIDTH 480 0
DWIDTH 8 0
BBX 2 2 3 8
BITMAP
40
C0
ENDCHAR
STARTCHAR mu
ENCODING 181
SWIDTH 480 0
DWIDTH 8 0
BBX 5 8 1 -1
BITMAP
C8
C8
C8
C8
F8
C0
C0
C0
ENDCHAR
STARTCHAR paragraph
ENCODING 182
SWIDTH 480 0
DWIDTH 8 0
BBX 7 10 1 1
BITMAP
7C
FE
FE
FE
7E
3E
3E
3E
3E
3E
ENDCHAR
STARTCHAR periodcentered
ENCODING 183
SWIDTH 480 0
DWIDTH 8 0
BBX 2 2 3 5
BITMAP
C0
C0
ENDCHAR
STARTCHAR cedilla
ENCODING 184
SWIDTH 480 0
DWIDTH 8 0
BBX 4 3 1 -3
BITMAP
60
B0
E0
ENDCHAR
STARTCHAR onesuperior
ENCODING 185
SWIDTH 480 0
DWIDTH 8 0
BBX 3 5 1 6
BITMAP
40
C0
40
40
E0
ENDCHAR
STARTCHAR ordmasculine
ENCODING 186
SWIDTH 480 0
DWIDTH 8 0
BBX 5 7 1 4
BITMAP
30
78
C8
C8
78
00
F8
ENDCHAR
STARTCHAR guillemotright
ENCODING 187
SWIDTH 480 0
DWIDTH 8 0
BBX 7 8 1 1
BITMAP
A0
F0
78
3C
1E
3C
78
F0
ENDCHAR
STARTCHAR onequarter
ENCODING 188
SWIDTH 480 0
DWIDTH 8 0
BBX 5 9 1 2
BITMAP
40
C0
40
C8
10
08
58
98
08
ENDCHAR
STARTCHAR onehalf
ENCODING 189
SWIDTH 480 0
DWIDTH 8 0
BBX 7 10 1 1
BITMAP
40
C0
40
C8
18
1C
46
88
1C
0C
ENDCHAR
STARTCHAR threequarters
ENCODING 190
SWIDTH 480 0
DWIDTH 8 0
BBX 6 9 1 2
BITMAP
C0
60
20
E8
10
08
58
9C
08
ENDCHAR
STARTCHAR questiondown
ENCODING 191
SWIDTH 480 0
DWIDTH 8 0
BBX 7 10 1 1
BITMAP
30
10
10
30
30
60
C4
CE
4C
78
ENDCHAR
STARTCHAR Agrave
ENCODING 192
SWIDTH 480 0
DWIDTH 8 0
BBX 7 11 1 1
BITMAP
40
30
00
30
78
CC
CE
FE
CE
CE
CE
ENDCHAR
STARTCHAR Aacute
ENCODING 193
SWIDTH 480 0
DWIDTH 8 0
BBX 7 11 1 1
BITMAP
08
18
00
30
78
CC
CE
FE
CE
CE
CE
ENDCHAR
STARTCHAR Acircumflex
ENCODING 194
SWIDTH 480 0
DWIDTH 8 0
BBX 7 11 1 1
BITMAP
30
78
00
30
78
CC
CE
FE
CE
CE
CE
ENDCHAR
STARTCHAR Atilde
ENCODING 195
SWIDTH 480 0
DWIDTH 8 0
BBX 7 11 1 1
BITMAP
20
78
00
30
78
CC
CE
FE
CE
CE
CE
ENDCHAR
STARTCHAR Adieresis
ENCODING 196
SWIDTH 480 0
DWIDTH 8 0
BBX 7 11 1 1
BITMAP
48
48
10
38
68
CC
CE
FE
CE
CE
CE
ENDCHAR
STARTCHAR Aring
ENCODING 197
SWIDTH 480 0
DWIDTH 8 0
BBX 7 12 1 0
BITMAP
78
68
78
00
38
68
CE
CE
FE
CE
CE
CE
ENDCHAR
STARTCHAR AE
ENCODING 198
SWIDTH 480 0
DWIDTH 8 0
BBX 6 10 1 1
BITMAP
3C
78
58
D8
FC
D8
D8
D8
D8
DC
ENDCHAR
STARTCHAR Ccedilla
ENCODING 199
SWIDTH 480 0
DWIDTH 8 0
BBX 6 13 1 -2
BITMAP
38
6C
C0
C0
C0
C0
C0
C4
4C
78
30
18
70
ENDCHAR
STARTCHAR Egrave
ENCODING 200
SWIDTH 480 0
DWIDTH 8 0
BBX 6 11 1 1
BITMAP
40
30
00
FC
C0
C0
C0
F0
C0
C0
FC
ENDCHAR
STARTCHAR Eacute
ENCODING 201
SWIDTH 480 0
DWIDTH 8 0
BBX 6 11 1 1
BITMAP
18
30
00
FC
C0
C0
C0
F0
C0
C0
FC
ENDCHAR
STARTCHAR Ecircumflex
ENCODING 202
SWIDTH 480 0
DWIDTH 8 0
BBX 6 11 1 1
BITMAP
30
78
00
FC
C0
C0
C0
F0
C0
C0
FC
ENDCHAR
STARTCHAR Edieresis
ENCODING 203
SWIDTH 480 0
DWIDTH 8 0
BBX 6 11 1 1
BITMAP
48
48
00
FC
C0
C0
C0
F0
C0
C0
FC
ENDCHAR
STARTCHAR Igrave
ENCODING 204
SWIDTH 480 0
DWIDTH 8 0
BBX 5 11 1 1
BITMAP
40
60
00
F8
60
60
60
60
60
60
F0
ENDCHAR
STARTCHAR Iacute
ENCODING 205
SWIDTH 480 0
DWIDTH 8 0
BBX 5 11 1 1
BITMAP
30
60
00
F8
60
60
60
60
60
60
F0
ENDCHAR
STARTCHAR Icircumflex
ENCODING 206
SWIDTH 480 0
DWIDTH 8 0
BBX 5 11 1 1
BITMAP
60
F0
00
F8
60
60
60
60
60
60
F0
ENDCHAR
STARTCHAR Idieresis
ENCODING 207
SWIDTH 480 0
DWIDTH 8 0
BBX 5 11 1 1
BITMAP
D8
D8
F0
F0
60
60
60
60
60
60
F0
ENDCHAR
STARTCHAR Eth
ENCODING 208
SWIDTH 480 0
DWIDTH 8 0
BBX 7 10 0 1
BITMAP
78
6C
46
46
E6
E6
46
46
44
7C
ENDCHAR
STARTCHAR Ntilde
ENCODING 209
SWIDTH 480 0
DWIDTH 8 0
BBX 7 11 1 1
BITMAP
20
78
00
C4
EE
FE
FE
DE
DE
CE
CE
ENDCHAR
STARTCHAR Ograve
ENCODING 210
SWIDTH 480 0
DWIDTH 8 0
BBX 7 11 1 1
BITMAP
20
30
00
38
6C
CE
CE
CE
CE
CE
7C
ENDCHAR
STARTCHAR Oacute
ENCODING 211
SWIDTH 480 0
DWIDTH 8 0
BBX 7 11 1 1
BITMAP
18
30
00
38
6C
CE
CE
CE
CE
CE
7C
ENDCHAR
STARTCHAR Ocircumflex
ENCODING 212
SWIDTH 480 0
DWIDTH 8 0
BBX 7 11 1 1
BITMAP
30
78
00
38
6C
CE
CE
CE
CE
CE
7C
ENDCHAR
STARTCHAR Otilde
ENCODING 213
SWIDTH 480 0
DWIDTH 8 0
BBX 7 11 1 1
BITMAP
20
78
00
38
6C
CE
CE
CE
CE
CE
7C
ENDCHAR
STARTCHAR Odieresis
ENCODING 214
SWIDTH 480 0
DWIDTH 8 0
BBX 7 11 1 1
BITMAP
48
48
30
78
CC
CE
CE
CE
CE
CE
7C
ENDCHAR
STARTCHAR multiply
ENCODING 215
SWIDTH 480 0
DWIDTH 8 0
BBX 5 6 1 0
BITMAP
88
D8
70
70
D8
88
ENDCHAR
STARTCHAR Oslash
ENCODING 216
SWIDTH 480 0
DWIDTH 8 0
BBX 7 11 1 0
BITMAP
04
7C
CC
CE
DE
DE
FE
EE
EE
68
F8
ENDCHAR
STARTCHAR Ugrave
ENCODING 217
SWIDTH 480 0
DWIDTH 8 0
BBX 7 11 1 1
BITMAP
20
30
00
C4
CE
CE
CE
CE
CE
CE
7C
ENDCHAR
STARTCHAR Uacute
ENCODING 218
SWIDTH 480 0
DWIDTH 8 0
BBX 7 11 1 1
BITMAP
18
30
00
C4
CE
CE
CE
CE
CE
CE
7C
ENDCHAR
STARTCHAR Ucircumflex
ENCODING 219
SWIDTH 480 0
DWIDTH 8 0
BBX 7 11 1 1
BITMAP
30
78
00
C4
CE
CE
CE
CE
CE
CE
7C
ENDCHAR
STARTCHAR Udieresis
ENCODING 220
SWIDTH 480 0
DWIDTH 8 0
BBX 7 11 1 1
BITMAP
48
48
84
CE
CE
CE
CE
CE
CE
CE
7C
ENDCHAR
STARTCHAR Yacute
ENCODING 221
SWIDTH 480 0
DWIDTH 8 0
BBX 6 11 1 1
BITMAP
18
30
00
C4
CC
48
78
38
30
30
30
ENDCHAR
STARTCHAR Thorn
ENCODING 222
SWIDTH 480 0
DWIDTH 8 0
BBX 5 10 1 1
BITMAP
C0
C0
F0
F8
C8
C8
C8
F8
C0
C0
ENDCHAR
STARTCHAR germandbls
ENCODING 223
SWIDTH 480 0
DWIDTH 8 0
BBX 7 10 1 1
BITMAP
38
6C
4E
4C
D8
48
4C
4E
4C
58
ENDCHAR
STARTCHAR agrave
ENCODING 224
SWIDTH 480 0
DWIDTH 8 0
BBX 7 9 1 0
BITMAP
30
18
00
7C
CC
7E
CE
CE
7E
ENDCHAR
STARTCHAR aacute
ENCODING 225
SWIDTH 480 0
DWIDTH 8 0
BBX 7 9 1 0
BITMAP
18
30
00
7C
CC
7E
CE
CE
7E
ENDCHAR
STARTCHAR acircumflex
ENCODING 226
SWIDTH 480 0
DWIDTH 8 0
BBX 7 9 1 0
BITMAP
30
78
00
7C
CC
7E
CE
CE
7E
ENDCHAR
STARTCHAR atilde
ENCODING 227
SWIDTH 480 0
DWIDTH 8 0
BBX 7 9 1 0
BITMAP
78
78
00
7C
CC
7E
CE
CE
7E
ENDCHAR
STARTCHAR adieresis
ENCODING 228
SWIDTH 480 0
DWIDTH 8 0
BBX 7 8 1 1
BITMAP
48
48
38
FC
7E
CE
CE
FE
ENDCHAR
STARTCHAR aring
ENCODING 229
SWIDTH 480 0
DWIDTH 8 0
BBX 7 10 1 1
BITMAP
38
68
78
30
7C
0E
7E
CE
CE
7E
ENDCHAR
STARTCHAR ae
ENCODING 230
SWIDTH 480 0
DWIDTH 8 0
BBX 6 6 1 0
BITMAP
7C
3C
3C
70
F0
7C
ENDCHAR
STARTCHAR ccedilla
ENCODING 231
SWIDTH 480 0
DWIDTH 8 0
BBX 6 9 1 -3
BITMAP
7C
C4
C0
C0
C4
7C
30
78
70
ENDCHAR
STARTCHAR egrave
ENCODING 232
SWIDTH 480 0
DWIDTH 8 0
BBX 7 9 1 0
BITMAP
60
30
00
78
EC
FE
C0
C4
7C
ENDCHAR
STARTCHAR eacute
ENCODING 233
SWIDTH 480 0
DWIDTH 8 0
BBX 7 9 1 0
BITMAP
08
18
00
78
EC
FE
C0
C4
7C
ENDCHAR
STARTCHAR ecircumflex
ENCODING 234
SWIDTH 480 0
DWIDTH 8 0
BBX 7 9 1 0
BITMAP
30
78
00
78
EC
FE
C0
C4
7C
ENDCHAR
STARTCHAR edieresis
ENCODING 235
SWIDTH 480 0
DWIDTH 8 0
BBX 6 8 1 1
BITMAP
48
48
30
78
FC
C0
C0
7C
ENDCHAR
STARTCHAR igrave
ENCODING 236
SWIDTH 480 0
DWIDTH 8 0
BBX 6 9 1 0
BITMAP
60
30
00
70
30
30
30
30
FC
ENDCHAR
STARTCHAR iacute
ENCODING 237
SWIDTH 480 0
DWIDTH 8 0
BBX 6 9 1 0
BITMAP
18
30
00
70
30
30
30
30
FC
ENDCHAR
STARTCHAR icircumflex
ENCODING 238
SWIDTH 480 0
DWIDTH 8 0
BBX 6 9 1 0
BITMAP
30
78
00
70
30
30
30
30
FC
ENDCHAR
STARTCHAR idieresis
ENCODING 239
SWIDTH 480 0
DWIDTH 8 0
BBX 5 8 2 1
BITMAP
90
90
60
60
60
60
60
F8
ENDCHAR
STARTCHAR eth
ENCODING 240
SWIDTH 480 0
DWIDTH 8 0
BBX 7 10 1 1
BITMAP
90
F0
70
F0
B8
6C
CE
CE
4C
78
ENDCHAR
STARTCHAR ntilde
ENCODING 241
SWIDTH 480 0
DWIDTH 8 0
BBX 7 9 1 0
BITMAP
78
78
00
F8
CC
CE
CE
CE
CE
ENDCHAR
STARTCHAR ograve
ENCODING 242
SWIDTH 480 0
DWIDTH 8 0
BBX 7 9 1 0
BITMAP
60
30
00
78
CC
CE
CE
CC
78
ENDCHAR
STARTCHAR oacute
ENCODING 243
SWIDTH 480 0
DWIDTH 8 0
BBX 7 9 1 0
BITMAP
08
18
00
78
CC
CE
CE
CC
78
ENDCHAR
STARTCHAR ocircumflex
ENCODING 244
SWIDTH 480 0
DWIDTH 8 0
BBX 7 9 1 0
BITMAP
30
78
00
78
CC
CE
CE
CC
78
ENDCHAR
STARTCHAR otilde
ENCODING 245
SWIDTH 480 0
DWIDTH 8 0
BBX 7 9 1 0
BITMAP
78
78
00
78
CC
CE
CE
CC
78
ENDCHAR
STARTCHAR odieresis
ENCODING 246
SWIDTH 480 0
DWIDTH 8 0
BBX 7 8 1 1
BITMAP
48
48
30
78
CC
CE
CE
7C
ENDCHAR
STARTCHAR divide
ENCODING 247
SWIDTH 480 0
DWIDTH 8 0
BBX 6 8 1 2
BITMAP
30
10
00
FC
FC
00
30
10
ENDCHAR
STARTCHAR oslash
ENCODING 248
SWIDTH 480 0
DWIDTH 8 0
BBX 7 8 1 0
BITMAP
04
78
DC
DE
DE
4C
78
80
ENDCHAR
STARTCHAR ugrave
ENCODING 249
SWIDTH 480 0
DWIDTH 8 0
BBX 7 9 1 0
BITMAP
30
18
00
CE
CE
CE
CE
CE
7E
ENDCHAR
STARTCHAR uacute
ENCODING 250
SWIDTH 480 0
DWIDTH 8 0
BBX 7 9 1 0
BITMAP
08
18
00
CE
CE
CE
CE
CE
7E
ENDCHAR
STARTCHAR ucircumflex
ENCODING 251
SWIDTH 480 0
DWIDTH 8 0
BBX 7 9 1 0
BITMAP
30
78
00
CE
CE
CE
CE
CE
7E
ENDCHAR
STARTCHAR udieresis
ENCODING 252
SWIDTH 480 0
DWIDTH 8 0
BBX 7 8 1 1
BITMAP
48
48
84
CE
CE
CE
CE
7E
ENDCHAR
STARTCHAR yacute
ENCODING 253
SWIDTH 480 0
DWIDTH 8 0
BBX 7 12 1 -3
BITMAP
18
30
00
CE
CE
CE
CE
CE
7E
0E
CC
78
ENDCHAR
STARTCHAR thorn
ENCODING 254
SWIDTH 480 0
DWIDTH 8 0
BBX 5 13 1 -2
BITMAP
C0
C0
C0
C0
E0
D0
D8
C8
D8
F0
C0
C0
C0
ENDCHAR
STARTCHAR ydieresis
ENCODING 255
SWIDTH 480 0
DWIDTH 8 0
BBX 7 11 1 -2
BITMAP
48
48
84
CE
CE
CE
CE
7E
0E
CE
7C
ENDCHAR
STARTCHAR Amacron
ENCODING 256
SWIDTH 480 0
DWIDTH 8 0
BBX 7 11 1 1
BITMAP
FC
10
38
78
4C
CE
CE
FE
CE
CE
CE
ENDCHAR
STARTCHAR amacron
ENCODING 257
SWIDTH 480 0
DWIDTH 8 0
BBX 7 8 1 0
BITMAP
FC
3C
6C
0E
FE
CE
CE
78
ENDCHAR
STARTCHAR Abreve
ENCODING 258
SWIDTH 480 0
DWIDTH 8 0
BBX 7 11 1 1
BITMAP
40
78
00
38
68
CC
CE
FE
CE
CE
CE
ENDCHAR
STARTCHAR abreve
ENCODING 259
SWIDTH 480 0
DWIDTH 8 0
BBX 7 9 1 0
BITMAP
48
78
00
7C
6C
7E
CE
CE
7E
ENDCHAR
STARTCHAR Aogonek
ENCODING 260
SWIDTH 480 0
DWIDTH 8 0
BBX 7 13 1 -2
BITMAP
30
78
48
CC
CE
FE
FE
CE
CE
CE
0C
0E
06
ENDCHAR
STARTCHAR aogonek
ENCODING 261
SWIDTH 480 0
DWIDTH 8 0
BBX 7 9 1 -3
BITMAP
7C
6C
7E
CE
CE
7E
06
0E
06
ENDCHAR
STARTCHAR Cacute
ENCODING 262
SWIDTH 480 0
DWIDTH 8 0
BBX 6 11 1 1
BITMAP
08
18
00
38
6C
C0
C0
C0
C0
C4
7C
ENDCHAR
STARTCHAR cacute
ENCODING 263
SWIDTH 480 0
DWIDTH 8 0
BBX 6 9 1 0
BITMAP
08
18
00
7C
C4
C0
C0
C4
7C
ENDCHAR
STARTCHAR Ccircumflex
ENCODING 264
SWIDTH 480 0
DWIDTH 8 0
BBX 6 11 1 1
BITMAP
30
78
00
38
6C
C0
C0
C0
C0
C4
7C
ENDCHAR
STARTCHAR ccircumflex
ENCODING 265
SWIDTH 480 0
DWIDTH 8 0
BBX 6 9 1 0
BITMAP
30
78
00
7C
C4
C0
C0
C4
7C
ENDCHAR
STARTCHAR Cdotaccent
ENCODING 266
SWIDTH 480 0
DWIDTH 8 0
BBX 6 11 1 1
BITMAP
30
10
30
78
C4
C0
C0
C0
C0
C4
7C
ENDCHAR
STARTCHAR cdotaccent
ENCODING 267
SWIDTH 480 0
DWIDTH 8 0
BBX 6 8 1 1
BITMAP
30
10
38
7C
C0
C0
C0
7C
ENDCHAR
STARTCHAR Ccaron
ENCODING 268
SWIDTH 480 0
DWIDTH 8 0
BBX 6 11 1 1
BITMAP
48
38
00
38
6C
C0
C0
C0
C0
C4
7C
ENDCHAR
STARTCHAR ccaron
ENCODING 269
SWIDTH 480 0
DWIDTH 8 0
BBX 6 9 1 0
BITMAP
68
38
00
7C
C4
C0
C0
C4
7C
ENDCHAR
STARTCHAR Dcaron
ENCODING 270
SWIDTH 480 0
DWIDTH 8 0
BBX 7 11 1 1
BITMAP
48
38
00
F8
CC
CE
CE
CE
CE
CE
FC
ENDCHAR
STARTCHAR dcaron
ENCODING 271
SWIDTH 480 0
DWIDTH 8 0
BBX 7 11 1 1
BITMAP
D8
74
0E
0E
0E
3E
7E
CE
CE
CE
7E
ENDCHAR
STARTCHAR Dcroat
ENCODING 272
SWIDTH 480 0
DWIDTH 8 0
BBX 7 10 0 1
BITMAP
78
6C
46
46
E6
E6
46
46
44
7C
ENDCHAR
STARTCHAR dcroat
ENCODING 273
SWIDTH 480 0
DWIDTH 8 0
BBX 7 10 1 1
BITMAP
04
0E
1E
0E
7E
CE
CE
CE
4E
7E
ENDCHAR
STARTCHAR Emacron
ENCODING 274
SWIDTH 480 0
DWIDTH 8 0
BBX 6 11 1 1
BITMAP
FC
FC
C0
C0
C0
C0
F8
C0
C0
C0
FC
ENDCHAR
STARTCHAR emacron
ENCODING 275
SWIDTH 480 0
DWIDTH 8 0
BBX 7 8 1 0
BITMAP
FC
38
68
CE
FC
C0
6C
38
ENDCHAR
STARTCHAR Ebreve
ENCODING 276
SWIDTH 480 0
DWIDTH 8 0
BBX 6 11 1 1
BITMAP
40
78
00
FC
C0
C0
C0
F0
C0
C0
FC
ENDCHAR
STARTCHAR ebreve
ENCODING 277
SWIDTH 480 0
DWIDTH 8 0
BBX 7 9 1 0
BITMAP
48
78
00
78
EC
FE
C0
C4
7C
ENDCHAR
STARTCHAR Edotaccent
ENCODING 278
SWIDTH 480 0
DWIDTH 8 0
BBX 6 11 1 1
BITMAP
30
10
FC
FC
C0
C0
F8
C0
C0
C0
FC
ENDCHAR
STARTCHAR edotaccent
ENCODING 279
SWIDTH 480 0
DWIDTH 8 0
BBX 6 8 1 1
BITMAP
30
10
30
78
FC
C0
C0
7C
ENDCHAR
STARTCHAR Eogonek
ENCODING 280
SWIDTH 480 0
DWIDTH 8 0
BBX 6 13 1 -2
BITMAP
FC
C0
C0
C0
F0
C0
C0
C0
C0
FC
1C
18
0C
ENDCHAR
STARTCHAR eogonek
ENCODING 281
SWIDTH 480 0
DWIDTH 8 0
BBX 7 9 1 -3
BITMAP
78
EC
FE
C0
C4
7C
18
38
18
ENDCHAR
STARTCHAR Ecaron
ENCODING 282
SWIDTH 480 0
DWIDTH 8 0
BBX 6 11 1 1
BITMAP
48
38
00
FC
C0
C0
C0
F0
C0
C0
FC
ENDCHAR
STARTCHAR ecaron
ENCODING 283
SWIDTH 480 0
DWIDTH 8 0
BBX 7 9 1 0
BITMAP
68
38
00
78
EC
FE
C0
C4
7C
ENDCHAR
STARTCHAR Gcircumflex
ENCODING 284
SWIDTH 480 0
DWIDTH 8 0
BBX 7 11 1 1
BITMAP
30
78
00
38
6C
C0
C0
DC
CE
CE
7E
ENDCHAR
STARTCHAR gcircumflex
ENCODING 285
SWIDTH 480 0
DWIDTH 8 0
BBX 7 12 1 -3
BITMAP
30
78
00
7E
CC
C8
C8
F8
78
CE
CC
7C
ENDCHAR
STARTCHAR Gbreve
ENCODING 286
SWIDTH 480 0
DWIDTH 8 0
BBX 7 11 1 1
BITMAP
40
78
00
38
6C
C0
C0
DC
CE
CE
7E
ENDCHAR
STARTCHAR gbreve
ENCODING 287
SWIDTH 480 0
DWIDTH 8 0
BBX 7 12 1 -3
BITMAP
48
78
00
7E
CC
C8
C8
F8
78
CE
CC
7C
ENDCHAR
STARTCHAR Gdotaccent
ENCODING 288
SWIDTH 480 0
DWIDTH 8 0
BBX 7 11 1 1
BITMAP
30
10
30
78
C4
C0
DC
CE
CE
CE
7E
ENDCHAR
STARTCHAR gdotaccent
ENCODING 289
SWIDTH 480 0
DWIDTH 8 0
BBX 7 11 1 -2
BITMAP
30
10
30
FE
CC
C8
78
F8
CC
CE
FC
ENDCHAR
STARTCHAR Gcommaaccent
ENCODING 290
SWIDTH 480 0
DWIDTH 8 0
BBX 7 13 1 -2
BITMAP
38
6C
C0
C0
CC
CE
CE
CE
4E
7E
30
30
30
ENDCHAR
STARTCHAR gcommaaccent
ENCODING 291
SWIDTH 480 0
DWIDTH 8 0
BBX 7 13 1 -2
BITMAP
20
60
70
20
7C
CC
C8
F8
C0
78
CC
CE
7C
ENDCHAR
STARTCHAR Hcircumflex
ENCODING 292
SWIDTH 480 0
DWIDTH 8 0
BBX 7 11 1 1
BITMAP
30
78
00
C4
CE
CE
FE
CE
CE
CE
CE
ENDCHAR
STARTCHAR hcircumflex
ENCODING 293
SWIDTH 480 0
DWIDTH 8 0
BBX 7 12 1 0
BITMAP
30
78
00
C0
C0
C0
F8
CC
CE
CE
CE
CE
ENDCHAR
STARTCHAR Hbar
ENCODING 294
SWIDTH 480 0
DWIDTH 8 0
BBX 7 10 0 1
BITMAP
46
FE
EE
46
7E
6E
46
46
46
46
ENDCHAR
STARTCHAR hbar
ENCODING 295
SWIDTH 480 0
DWIDTH 8 0
BBX 7 10 0 1
BITMAP
40
40
F0
E0
7C
66
46
46
46
46
ENDCHAR
STARTCHAR Itilde
ENCODING 296
SWIDTH 480 0
DWIDTH 8 0
BBX 6 11 1 1
BITMAP
20
78
00
FC
30
30
30
30
30
30
7C
ENDCHAR
STARTCHAR itilde
ENCODING 297
SWIDTH 480 0
DWIDTH 8 0
BBX 6 9 1 0
BITMAP
78
78
00
70
30
30
30
30
FC
ENDCHAR
STARTCHAR Imacron
ENCODING 298
SWIDTH 480 0
DWIDTH 8 0
BBX 6 11 1 1
BITMAP
FC
FC
38
30
30
30
30
30
30
30
7C
ENDCHAR
STARTCHAR imacron
ENCODING 299
SWIDTH 480 0
DWIDTH 8 0
BBX 6 8 1 0
BITMAP
F8
70
30
30
30
30
38
FC
ENDCHAR
STARTCHAR Ibreve
ENCODING 300
SWIDTH 480 0
DWIDTH 8 0
BBX 6 11 1 1
BITMAP
40
78
00
FC
30
30
30
30
30
30
7C
ENDCHAR
STARTCHAR ibreve
ENCODING 301
SWIDTH 480 0
DWIDTH 8 0
BBX 6 9 1 0
BITMAP
48
78
00
70
30
30
30
30
FC
ENDCHAR
STARTCHAR Iogonek
ENCODING 302
SWIDTH 480 0
DWIDTH 8 0
BBX 6 13 1 -2
BITMAP
FC
30
30
30
30
30
30
30
30
FC
1C
18
0C
ENDCHAR
STARTCHAR iogonek
ENCODING 303
SWIDTH 480 0
DWIDTH 8 0
BBX 6 11 2 -2
BITMAP
60
20
60
60
60
60
60
F8
1C
1C
18
ENDCHAR
STARTCHAR Idotaccent
ENCODING 304
SWIDTH 480 0
DWIDTH 8 0
BBX 6 11 1 1
BITMAP
30
10
FC
7C
30
30
30
30
30
30
7C
ENDCHAR
STARTCHAR dotlessi
ENCODING 305
SWIDTH 480 0
DWIDTH 8 0
BBX 6 6 1 0
BITMAP
70
30
30
30
30
FC
ENDCHAR
STARTCHAR IJ
ENCODING 306
SWIDTH 480 0
DWIDTH 8 0
BBX 7 13 0 -2
BITMAP
FE
66
66
66
66
66
66
66
66
FE
26
3C
1C
ENDCHAR
STARTCHAR ij
ENCODING 307
SWIDTH 480 0
DWIDTH 8 0
BBX 7 11 0 -2
BITMAP
66
66
EE
EE
66
66
66
F6
0E
66
7E
ENDCHAR
STARTCHAR Jcircumflex
ENCODING 308
SWIDTH 480 0
DWIDTH 8 0
BBX 6 11 0 1
BITMAP
08
1C
00
3C
0C
0C
0C
0C
8C
CC
78
ENDCHAR
STARTCHAR jcircumflex
ENCODING 309
SWIDTH 480 0
DWIDTH 8 0
BBX 6 12 1 -3
BITMAP
18
3C
00
38
08
08
08
08
08
C8
C8
78
ENDCHAR
STARTCHAR Kcommaaccent
ENCODING 310
SWIDTH 480 0
DWIDTH 8 0
BBX 7 13 1 -2
BITMAP
C4
CC
C8
D8
F8
D8
D8
C8
CC
CE
E0
70
E0
ENDCHAR
STARTCHAR kcommaaccent
ENCODING 311
SWIDTH 480 0
DWIDTH 8 0
BBX 6 13 1 -2
BITMAP
C0
C0
C0
C0
C8
D8
F0
F0
C8
CC
E0
70
E0
ENDCHAR
STARTCHAR kgreenlandic
ENCODING 312
SWIDTH 480 0
DWIDTH 8 0
BBX 5 6 1 0
BITMAP
D8
F0
E0
F0
D8
C8
ENDCHAR
STARTCHAR Lacute
ENCODING 313
SWIDTH 480 0
DWIDTH 8 0
BBX 6 11 1 1
BITMAP
20
60
00
C0
C0
C0
C0
C0
C0
C0
FC
ENDCHAR
STARTCHAR lacute
ENCODING 314
SWIDTH 480 0
DWIDTH 8 0
BBX 5 11 2 1
BITMAP
30
60
00
E0
60
60
60
60
60
60
F8
ENDCHAR
STARTCHAR Lcommaaccent
ENCODING 315
SWIDTH 480 0
DWIDTH 8 0
BBX 6 13 1 -2
BITMAP
C0
C0
C0
C0
C0
C0
C0
C0
C0
FC
60
70
E0
ENDCHAR
STARTCHAR lcommaaccent
ENCODING 316
SWIDTH 480 0
DWIDTH 8 0
BBX 6 13 1 -2
BITMAP
70
30
30
30
30
30
30
30
30
FC
30
18
30
ENDCHAR
STARTCHAR Lcaron
ENCODING 317
SWIDTH 480 0
DWIDTH 8 0
BBX 6 11 0 1
BITMAP
D8
70
00
40
40
40
40
40
40
40
7C
ENDCHAR
STARTCHAR lcaron
ENCODING 318
SWIDTH 480 0
DWIDTH 8 0
BBX 5 11 2 1
BITMAP
90
70
00
E0
60
60
60
60
60
60
F8
ENDCHAR
STARTCHAR Ldot
ENCODING 319
SWIDTH 480 0
DWIDTH 8 0
BBX 6 10 1 1
BITMAP
C0
C0
C0
C0
D8
C0
C0
C0
C0
FC
ENDCHAR
STARTCHAR ldot
ENCODING 320
SWIDTH 480 0
DWIDTH 8 0
BBX 7 10 0 1
BITMAP
70
30
30
30
30
36
30
30
30
FC
ENDCHAR
STARTCHAR Lslash
ENCODING 321
SWIDTH 480 0
DWIDTH 8 0
BBX 7 10 0 1
BITMAP
40
40
40
40
70
E0
C0
40
40
7E
ENDCHAR
STARTCHAR lslash
ENCODING 322
SWIDTH 480 0
DWIDTH 8 0
BBX 6 10 1 1
BITMAP
70
30
30
30
38
38
30
30
30
FC
ENDCHAR
STARTCHAR Nacute
ENCODING 323
SWIDTH 480 0
DWIDTH 8 0
BBX 7 11 1 1
BITMAP
08
18
84
CE
EE
FE
FE
DE
DE
CE
CE
ENDCHAR
STARTCHAR nacute
ENCODING 324
SWIDTH 480 0
DWIDTH 8 0
BBX 7 9 1 0
BITMAP
08
18
00
F8
CC
CE
CE
CE
CE
ENDCHAR
STARTCHAR Ncommaaccent
ENCODING 325
SWIDTH 480 0
DWIDTH 8 0
BBX 7 13 1 -2
BITMAP
C4
CE
EE
FE
FE
DE
DE
CE
CE
CE
E0
70
E0
ENDCHAR
STARTCHAR ncommaaccent
ENCODING 326
SWIDTH 480 0
DWIDTH 8 0
BBX 7 9 1 -3
BITMAP
F8
CC
CE
CE
CE
CE
E0
60
E0
ENDCHAR
STARTCHAR Ncaron
ENCODING 327
SWIDTH 480 0
DWIDTH 8 0
BBX 7 11 1 1
BITMAP
48
38
84
CE
EE
FE
FE
DE
DE
CE
CE
ENDCHAR
STARTCHAR ncaron
ENCODING 328
SWIDTH 480 0
DWIDTH 8 0
BBX 7 9 1 0
BITMAP
68
38
00
F8
CC
CE
CE
CE
CE
ENDCHAR
STARTCHAR napostrophe
ENCODING 329
SWIDTH 480 0
DWIDTH 8 0
BBX 7 10 0 1
BITMAP
C0
C0
80
00
7C
66
46
46
46
46
ENDCHAR
STARTCHAR Eng
ENCODING 330
SWIDTH 480 0
DWIDTH 8 0
BBX 7 13 1 -2
BITMAP
C4
CE
EE
FE
FE
DE
DE
CE
CE
CE
0E
0E
0C
ENDCHAR
STARTCHAR eng
ENCODING 331
SWIDTH 480 0
DWIDTH 8 0
BBX 7 9 1 -3
BITMAP
F8
CC
CE
CE
CE
CE
0E
0C
0C
ENDCHAR
STARTCHAR Omacron
ENCODING 332
SWIDTH 480 0
DWIDTH 8 0
BBX 7 11 1 1
BITMAP
FC
30
68
CC
CE
CE
CE
CE
CE
CE
7C
ENDCHAR
STARTCHAR omacron
ENCODING 333
SWIDTH 480 0
DWIDTH 8 0
BBX 7 8 1 0
BITMAP
FC
38
68
CE
CE
CE
68
38
ENDCHAR
STARTCHAR Obreve
ENCODING 334
SWIDTH 480 0
DWIDTH 8 0
BBX 7 11 1 1
BITMAP
40
78
00
38
6C
CE
CE
CE
CE
CE
7C
ENDCHAR
STARTCHAR obreve
ENCODING 335
SWIDTH 480 0
DWIDTH 8 0
BBX 7 9 1 0
BITMAP
48
78
00
78
CC
CE
CE
CC
78
ENDCHAR
STARTCHAR Ohungarumlaut
ENCODING 336
SWIDTH 480 0
DWIDTH 8 0
BBX 7 11 1 1
BITMAP
24
48
30
78
CC
CE
CE
CE
CE
CE
7C
ENDCHAR
STARTCHAR ohungarumlaut
ENCODING 337
SWIDTH 480 0
DWIDTH 8 0
BBX 7 8 1 1
BITMAP
24
48
30
78
CC
CE
CE
7C
ENDCHAR
STARTCHAR OE
ENCODING 338
SWIDTH 480 0
DWIDTH 8 0
BBX 6 10 1 1
BITMAP
3C
78
D8
D8
DC
D8
D8
D8
58
7C
ENDCHAR
STARTCHAR oe
ENCODING 339
SWIDTH 480 0
DWIDTH 8 0
BBX 7 6 1 0
BITMAP
7C
FC
FE
F0
F4
7C
ENDCHAR
STARTCHAR Racute
ENCODING 340
SWIDTH 480 0
DWIDTH 8 0
BBX 7 11 1 1
BITMAP
18
30
00
F8
CC
CE
CC
F8
C8
C8
CC
ENDCHAR
STARTCHAR racute
ENCODING 341
SWIDTH 480 0
DWIDTH 8 0
BBX 6 9 1 0
BITMAP
08
18
00
FC
64
40
40
40
40
ENDCHAR
STARTCHAR Rcommaaccent
ENCODING 342
SWIDTH 480 0
DWIDTH 8 0
BBX 7 13 1 -2
BITMAP
F8
CC
CE
CE
CC
F8
F8
C8
CC
CE
E0
70
E0
ENDCHAR
STARTCHAR rcommaaccent
ENCODING 343
SWIDTH 480 0
DWIDTH 8 0
BBX 6 9 1 -3
BITMAP
FC
64
40
40
40
40
70
30
70
ENDCHAR
STARTCHAR Rcaron
ENCODING 344
SWIDTH 480 0
DWIDTH 8 0
BBX 7 11 1 1
BITMAP
48
38
00
F8
CC
CE
CC
F8
C8
C8
CC
ENDCHAR
STARTCHAR rcaron
ENCODING 345
SWIDTH 480 0
DWIDTH 8 0
BBX 6 9 1 0
BITMAP
68
38
00
FC
64
40
40
40
40
ENDCHAR
STARTCHAR Sacute
ENCODING 346
SWIDTH 480 0
DWIDTH 8 0
BBX 7 11 1 1
BITMAP
08
18
00
38
6C
C0
40
38
0C
CE
7C
ENDCHAR
STARTCHAR sacute
ENCODING 347
SWIDTH 480 0
DWIDTH 8 0
BBX 7 9 1 0
BITMAP
08
18
00
7C
CC
78
0E
CC
7C
ENDCHAR
STARTCHAR Scircumflex
ENCODING 348
SWIDTH 480 0
DWIDTH 8 0
BBX 7 11 1 1
BITMAP
30
78
00
38
6C
C0
40
38
0C
CE
7C
ENDCHAR
STARTCHAR scircumflex
ENCODING 349
SWIDTH 480 0
DWIDTH 8 0
BBX 7 9 1 0
BITMAP
30
78
00
7C
CC
78
0E
CC
7C
ENDCHAR
STARTCHAR Scedilla
ENCODING 350
SWIDTH 480 0
DWIDTH 8 0
BBX 7 13 1 -2
BITMAP
38
6C
C0
C0
70
08
0C
0E
4C
78
30
18
30
ENDCHAR
STARTCHAR scedilla
ENCODING 351
SWIDTH 480 0
DWIDTH 8 0
BBX 7 9 1 -3
BITMAP
7C
CC
78
0E
CC
7C
30
18
30
ENDCHAR
STARTCHAR Scaron
ENCODING 352
SWIDTH 480 0
DWIDTH 8 0
BBX 7 11 1 1
BITMAP
48
38
00
38
6C
C0
40
38
0C
CE
7C
ENDCHAR
STARTCHAR scaron
ENCODING 353
SWIDTH 480 0
DWIDTH 8 0
BBX 7 9 1 0
BITMAP
68
38
00
7C
CC
78
0E
CC
7C
ENDCHAR
STARTCHAR Tcommaaccent
ENCODING 354
SWIDTH 480 0
DWIDTH 8 0
BBX 6 13 1 -2
BITMAP
FC
30
30
30
30
30
30
30
30
30
10
18
30
ENDCHAR
STARTCHAR tcommaaccent
ENCODING 355
SWIDTH 480 0
DWIDTH 8 0
BBX 6 11 1 -2
BITMAP
20
70
F0
70
70
70
70
3C
18
08
18
ENDCHAR
STARTCHAR Tcaron
ENCODING 356
SWIDTH 480 0
DWIDTH 8 0
BBX 6 11 1 1
BITMAP
48
38
00
FC
30
30
30
30
30
30
30
ENDCHAR
STARTCHAR tcaron
ENCODING 357
SWIDTH 480 0
DWIDTH 8 0
BBX 6 11 1 1
BITMAP
D8
70
00
20
70
F0
70
70
70
70
3C
ENDCHAR
STARTCHAR Tbar
ENCODING 358
SWIDTH 480 0
DWIDTH 8 0
BBX 6 10 1 1
BITMAP
FC
30
30
30
38
30
30
30
30
30
ENDCHAR
STARTCHAR tbar
ENCODING 359
SWIDTH 480 0
DWIDTH 8 0
BBX 6 8 1 1
BITMAP
20
70
F0
70
70
70
70
3C
ENDCHAR
STARTCHAR Utilde
ENCODING 360
SWIDTH 480 0
DWIDTH 8 0
BBX 7 11 1 1
BITMAP
20
78
00
C4
CE
CE
CE
CE
CE
CE
7C
ENDCHAR
STARTCHAR utilde
ENCODING 361
SWIDTH 480 0
DWIDTH 8 0
BBX 7 9 1 0
BITMAP
78
78
00
CE
CE
CE
CE
CE
7E
ENDCHAR
STARTCHAR Umacron
ENCODING 362
SWIDTH 480 0
DWIDTH 8 0
BBX 7 11 1 1
BITMAP
FC
84
CE
CE
CE
CE
CE
CE
CE
CE
7C
ENDCHAR
STARTCHAR umacron
ENCODING 363
SWIDTH 480 0
DWIDTH 8 0
BBX 7 8 1 0
BITMAP
FC
C4
CE
CE
CE
CE
6E
34
ENDCHAR
STARTCHAR Ubreve
ENCODING 364
SWIDTH 480 0
DWIDTH 8 0
BBX 7 11 1 1
BITMAP
40
78
00
C4
CE
CE
CE
CE
CE
CE
7C
ENDCHAR
STARTCHAR ubreve
ENCODING 365
SWIDTH 480 0
DWIDTH 8 0
BBX 7 9 1 0
BITMAP
48
78
00
CE
CE
CE
CE
CE
7E
ENDCHAR
STARTCHAR Uring
ENCODING 366
SWIDTH 480 0
DWIDTH 8 0
BBX 7 12 1 0
BITMAP
30
68
30
00
CC
CE
CE
CE
CE
CE
CC
78
ENDCHAR
STARTCHAR uring
ENCODING 367
SWIDTH 480 0
DWIDTH 8 0
BBX 7 10 1 1
BITMAP
30
48
30
10
CC
CE
CE
CE
4E
7E
ENDCHAR
STARTCHAR Uhungarumlaut
ENCODING 368
SWIDTH 480 0
DWIDTH 8 0
BBX 7 11 1 1
BITMAP
24
48
84
CE
CE
CE
CE
CE
CE
CE
7C
ENDCHAR
STARTCHAR uhungarumlaut
ENCODING 369
SWIDTH 480 0
DWIDTH 8 0
BBX 7 8 1 1
BITMAP
24
48
84
CE
CE
CE
CE
7E
ENDCHAR
STARTCHAR Uogonek
ENCODING 370
SWIDTH 480 0
DWIDTH 8 0
BBX 7 13 1 -2
BITMAP
C4
CE
CE
CE
CE
CE
CE
CE
4C
78
18
30
18
ENDCHAR
STARTCHAR uogonek
ENCODING 371
SWIDTH 480 0
DWIDTH 8 0
BBX 7 9 1 -3
BITMAP
CE
CE
CE
CE
CE
7E
0C
18
0C
ENDCHAR
STARTCHAR Wcircumflex
ENCODING 372
SWIDTH 480 0
DWIDTH 8 0
BBX 7 12 1 0
BITMAP
30
78
00
CE
CE
CE
FE
FE
FE
CE
CE
CE
ENDCHAR
STARTCHAR wcircumflex
ENCODING 373
SWIDTH 480 0
DWIDTH 8 0
BBX 7 9 1 0
BITMAP
30
78
00
CE
CE
FE
FE
FC
6C
ENDCHAR
STARTCHAR Ycircumflex
ENCODING 374
SWIDTH 480 0
DWIDTH 8 0
BBX 6 12 1 0
BITMAP
30
78
00
CC
6C
78
38
30
30
30
30
30
ENDCHAR
STARTCHAR ycircumflex
ENCODING 375
SWIDTH 480 0
DWIDTH 8 0
BBX 7 12 1 -3
BITMAP
30
78
00
CE
CE
CE
CE
CE
7E
0E
CC
78
ENDCHAR
STARTCHAR Ydieresis
ENCODING 376
SWIDTH 480 0
DWIDTH 8 0
BBX 7 11 1 1
BITMAP
48
48
84
CE
4C
78
78
30
30
30
30
ENDCHAR
STARTCHAR Zacute
ENCODING 377
SWIDTH 480 0
DWIDTH 8 0
BBX 7 12 1 0
BITMAP
08
18
00
FE
0C
18
18
30
70
40
C0
FC
ENDCHAR
STARTCHAR zacute
ENCODING 378
SWIDTH 480 0
DWIDTH 8 0
BBX 5 9 1 0
BITMAP
18
30
00
F8
18
30
60
E0
F8
ENDCHAR
STARTCHAR Zdotaccent
ENCODING 379
SWIDTH 480 0
DWIDTH 8 0
BBX 7 11 1 1
BITMAP
30
10
FC
7E
0C
18
30
70
60
C0
FC
ENDCHAR
STARTCHAR zdotaccent
ENCODING 380
SWIDTH 480 0
DWIDTH 8 0
BBX 5 8 1 1
BITMAP
30
30
F8
F8
18
20
60
F8
ENDCHAR
STARTCHAR Zcaron
ENCODING 381
SWIDTH 480 0
DWIDTH 8 0
BBX 6 11 1 1
BITMAP
48
38
00
FC
0C
18
18
30
70
60
FC
ENDCHAR
STARTCHAR zcaron
ENCODING 382
SWIDTH 480 0
DWIDTH 8 0
BBX 5 9 1 0
BITMAP
D8
70
00
F8
18
30
60
E0
F8
ENDCHAR
STARTCHAR longs
ENCODING 383
SWIDTH 480 0
DWIDTH 8 0
BBX 6 10 1 1
BITMAP
38
74
70
70
F0
70
70
70
70
70
ENDCHAR
STARTCHAR uni0180
ENCODING 384
SWIDTH 480 0
DWIDTH 8 0
BBX 7 10 0 1
BITMAP
40
E0
E0
40
7C
66
46
46
64
7C
ENDCHAR
STARTCHAR uni0181
ENCODING 385
SWIDTH 480 0
DWIDTH 8 0
BBX 7 10 0 1
BITMAP
78
EC
6C
6C
7C
6C
66
66
64
7C
ENDCHAR
STARTCHAR uni0182
ENCODING 386
SWIDTH 480 0
DWIDTH 8 0
BBX 7 10 1 1
BITMAP
F8
C0
C0
C0
F8
CC
CE
CE
CC
F8
ENDCHAR
STARTCHAR uni0183
ENCODING 387
SWIDTH 480 0
DWIDTH 8 0
BBX 5 10 1 1
BITMAP
F8
C0
C0
C0
F0
C8
C8
C8
D8
F0
ENDCHAR
STARTCHAR uni0184
ENCODING 388
SWIDTH 480 0
DWIDTH 8 0
BBX 7 10 0 1
BITMAP
40
C0
C0
40
7C
46
46
46
44
7C
ENDCHAR
STARTCHAR uni0185
ENCODING 389
SWIDTH 480 0
DWIDTH 8 0
BBX 7 9 1 0
BITMAP
40
C0
40
78
6C
4E
4E
6C
78
ENDCHAR
STARTCHAR uni0186
ENCODING 390
SWIDTH 480 0
DWIDTH 8 0
BBX 6 10 2 1
BITMAP
70
D8
1C
1C
1C
1C
1C
1C
98
F0
ENDCHAR
STARTCHAR uni0187
ENCODING 391
SWIDTH 480 0
DWIDTH 8 0
BBX 7 11 1 1
BITMAP
06
3C
68
C8
C0
C0
C0
C0
C0
C4
7C
ENDCHAR
STARTCHAR uni0188
ENCODING 392
SWIDTH 480 0
DWIDTH 8 0
BBX 7 8 1 1
BITMAP
06
0C
38
78
C0
C0
C0
7C
ENDCHAR
STARTCHAR uni0189
ENCODING 393
SWIDTH 480 0
DWIDTH 8 0
BBX 7 10 0 1
BITMAP
78
6C
46
46
E6
E6
46
46
44
7C
ENDCHAR
STARTCHAR uni018A
ENCODING 394
SWIDTH 480 0
DWIDTH 8 0
BBX 7 10 0 1
BITMAP
78
EC
66
66
66
66
66
66
64
7C
ENDCHAR
STARTCHAR uni018B
ENCODING 395
SWIDTH 480 0
DWIDTH 8 0
BBX 7 10 1 1
BITMAP
7C
0E
0E
0E
7E
CE
CE
CE
4E
7E
ENDCHAR
STARTCHAR uni018C
ENCODING 396
SWIDTH 480 0
DWIDTH 8 0
BBX 5 10 1 1
BITMAP
78
08
08
08
78
C8
C8
C8
58
78
ENDCHAR
STARTCHAR uni018D
ENCODING 397
SWIDTH 480 0
DWIDTH 8 0
BBX 7 9 1 -3
BITMAP
78
CC
CE
CE
CC
78
18
4C
7C
ENDCHAR
STARTCHAR uni018E
ENCODING 398
SWIDTH 480 0
DWIDTH 8 0
BBX 7 10 1 1
BITMAP
FC
0E
0E
0E
3E
0E
0E
0E
0E
FE
ENDCHAR
STARTCHAR uni018F
ENCODING 399
SWIDTH 480 0
DWIDTH 8 0
BBX 7 10 1 1
BITMAP
38
6C
0E
0E
7E
CE
CE
CE
4C
78
ENDCHAR
STARTCHAR uni0190
ENCODING 400
SWIDTH 480 0
DWIDTH 8 0
BBX 6 10 1 1
BITMAP
38
64
C0
C0
78
60
C0
C0
44
7C
ENDCHAR
STARTCHAR uni0191
ENCODING 401
SWIDTH 480 0
DWIDTH 8 0
BBX 7 13 0 -2
BITMAP
7E
60
40
40
78
60
40
40
40
40
40
C0
80
ENDCHAR
STARTCHAR florin
ENCODING 402
SWIDTH 480 0
DWIDTH 8 0
BBX 7 13 0 -2
BITMAP
1C
3E
30
30
78
30
30
30
30
30
B0
E0
20
ENDCHAR
STARTCHAR uni0193
ENCODING 403
SWIDTH 480 0
DWIDTH 8 0
BBX 7 11 1 1
BITMAP
06
3C
68
C0
C0
C0
DC
CE
CE
CE
7E
ENDCHAR
STARTCHAR uni0194
ENCODING 404
SWIDTH 480 0
DWIDTH 8 0
BBX 7 10 1 1
BITMAP
C4
CE
4C
48
78
78
30
78
48
78
ENDCHAR
STARTCHAR uni0195
ENCODING 405
SWIDTH 480 0
DWIDTH 8 0
BBX 7 10 1 1
BITMAP
C0
C0
C0
C0
FC
FE
FE
FE
FE
DC
ENDCHAR
STARTCHAR uni0196
ENCODING 406
SWIDTH 480 0
DWIDTH 8 0
BBX 5 10 1 1
BITMAP
E0
60
60
60
60
60
60
60
68
38
ENDCHAR
STARTCHAR uni0197
ENCODING 407
SWIDTH 480 0
DWIDTH 8 0
BBX 6 10 1 1
BITMAP
FC
30
30
30
38
30
30
30
30
FC
ENDCHAR
STARTCHAR uni0198
ENCODING 408
SWIDTH 480 0
DWIDTH 8 0
BBX 7 10 1 1
BITMAP
CC
DE
D0
F0
F0
F0
F0
D8
C8
C8
ENDCHAR
STARTCHAR uni0199
ENCODING 409
SWIDTH 480 0
DWIDTH 8 0
BBX 6 10 1 1
BITMAP
60
C0
C0
C0
C8
D8
F0
F0
C8
CC
ENDCHAR
STARTCHAR uni019A
ENCODING 410
SWIDTH 480 0
DWIDTH 8 0
BBX 6 10 1 1
BITMAP
70
30
30
30
38
30
30
30
30
FC
ENDCHAR
STARTCHAR uni019B
ENCODING 411
SWIDTH 480 0
DWIDTH 8 0
BBX 7 10 0 1
BITMAP
40
78
70
70
D8
38
38
6C
66
46
ENDCHAR
STARTCHAR uni019C
ENCODING 412
SWIDTH 480 0
DWIDTH 8 0
BBX 7 10 1 1
BITMAP
FC
FE
FE
FE
FE
FE
FE
FE
FE
7E
ENDCHAR
STARTCHAR uni019D
ENCODING 413
SWIDTH 480 0
DWIDTH 8 0
BBX 7 13 0 -2
BITMAP
46
66
76
76
7E
5E
4E
4E
46
46
40
40
C0
ENDCHAR
STARTCHAR uni019E
ENCODING 414
SWIDTH 480 0
DWIDTH 8 0
BBX 7 9 1 -3
BITMAP
F8
CC
CE
CE
CE
CE
0E
0E
0E
ENDCHAR
STARTCHAR uni019F
ENCODING 415
SWIDTH 480 0
DWIDTH 8 0
BBX 7 10 1 1
BITMAP
38
6C
CE
CE
FE
CE
CE
CE
4C
78
ENDCHAR
STARTCHAR Ohorn
ENCODING 416
SWIDTH 480 0
DWIDTH 8 0
BBX 7 10 1 1
BITMAP
36
7E
CC
C8
C8
C8
C8
C8
58
70
ENDCHAR
STARTCHAR ohorn
ENCODING 417
SWIDTH 480 0
DWIDTH 8 0
BBX 7 6 1 0
BITMAP
76
DE
CC
C8
D8
70
ENDCHAR
STARTCHAR uni01A2
ENCODING 418
SWIDTH 480 0
DWIDTH 8 0
BBX 7 13 0 -2
BITMAP
6C
FE
DE
DE
DE
DE
DE
DE
FE
66
06
06
06
ENDCHAR
STARTCHAR uni01A3
ENCODING 419
SWIDTH 480 0
DWIDTH 8 0
BBX 7 9 0 -3
BITMAP
7C
FE
DE
DE
F6
66
06
06
06
ENDCHAR
STARTCHAR uni01A4
ENCODING 420
SWIDTH 480 0
DWIDTH 8 0
BBX 7 10 0 1
BITMAP
78
EC
66
66
66
7C
70
60
60
60
ENDCHAR
STARTCHAR uni01A5
ENCODING 421
SWIDTH 480 0
DWIDTH 8 0
BBX 7 13 1 -2
BITMAP
60
F0
C0
C0
F8
CC
CE
CE
CC
F8
C0
C0
C0
ENDCHAR
STARTCHAR uni01A6
ENCODING 422
SWIDTH 480 0
DWIDTH 8 0
BBX 7 13 1 0
BITMAP
C0
F0
C8
CC
CE
CE
CC
F8
C8
C8
CC
06
06
ENDCHAR
STARTCHAR uni01A7
ENCODING 423
SWIDTH 480 0
DWIDTH 8 0
BBX 7 10 1 1
BITMAP
38
6C
0E
0E
3C
60
C0
C4
4C
78
ENDCHAR
STARTCHAR uni01A8
ENCODING 424
SWIDTH 480 0
DWIDTH 8 0
BBX 6 6 1 0
BITMAP
7C
CC
7C
C0
C4
7C
ENDCHAR
STARTCHAR uni01A9
ENCODING 425
SWIDTH 480 0
DWIDTH 8 0
BBX 6 10 1 1
BITMAP
FC
E0
60
30
18
10
30
60
C0
FC
ENDCHAR
STARTCHAR uni01AA
ENCODING 426
SWIDTH 480 0
DWIDTH 8 0
BBX 6 13 1 -2
BITMAP
60
F0
D0
70
30
30
30
30
30
30
30
18
0C
ENDCHAR
STARTCHAR uni01AB
ENCODING 427
SWIDTH 480 0
DWIDTH 8 0
BBX 7 11 1 -2
BITMAP
20
70
F0
70
70
70
70
3C
0E
0E
3C
ENDCHAR
STARTCHAR uni01AC
ENCODING 428
SWIDTH 480 0
DWIDTH 8 0
BBX 7 10 0 1
BITMAP
7E
D8
D8
98
18
18
18
18
18
18
ENDCHAR
STARTCHAR uni01AD
ENCODING 429
SWIDTH 480 0
DWIDTH 8 0
BBX 6 9 1 0
BITMAP
3C
74
70
F8
70
70
70
74
3C
ENDCHAR
STARTCHAR uni01AE
ENCODING 430
SWIDTH 480 0
DWIDTH 8 0
BBX 6 13 1 -2
BITMAP
FC
30
30
30
30
30
30
30
30
30
30
30
18
ENDCHAR
STARTCHAR Uhorn
ENCODING 431
SWIDTH 480 0
DWIDTH 8 0
BBX 7 10 1 1
BITMAP
DE
DE
D8
D8
D8
D8
D8
D8
70
70
ENDCHAR
STARTCHAR uhorn
ENCODING 432
SWIDTH 480 0
DWIDTH 8 0
BBX 7 6 1 0
BITMAP
DE
DE
D8
D8
F8
78
ENDCHAR
STARTCHAR uni01B1
ENCODING 433
SWIDTH 480 0
DWIDTH 8 0
BBX 7 10 1 1
BITMAP
CC
4C
CC
CE
CE
CE
CE
CE
4C
78
ENDCHAR
STARTCHAR uni01B2
ENCODING 434
SWIDTH 480 0
DWIDTH 8 0
BBX 7 10 1 1
BITMAP
D8
D8
C8
CC
CE
CE
CE
CE
4C
78
ENDCHAR
STARTCHAR uni01B3
ENCODING 435
SWIDTH 480 0
DWIDTH 8 0
BBX 7 10 0 1
BITMAP
76
F6
76
1C
1C
08
08
08
08
08
ENDCHAR
STARTCHAR uni01B4
ENCODING 436
SWIDTH 480 0
DWIDTH 8 0
BBX 7 11 1 -2
BITMAP
06
0C
88
C8
C8
C8
C8
78
08
C8
78
ENDCHAR
STARTCHAR uni01B5
ENCODING 437
SWIDTH 480 0
DWIDTH 8 0
BBX 7 10 1 1
BITMAP
FC
0E
0C
08
78
70
60
40
C0
FC
ENDCHAR
STARTCHAR uni01B6
ENCODING 438
SWIDTH 480 0
DWIDTH 8 0
BBX 5 6 1 0
BITMAP
F8
18
78
60
E0
F8
ENDCHAR
STARTCHAR uni01B7
ENCODING 439
SWIDTH 480 0
DWIDTH 8 0
BBX 7 10 1 1
BITMAP
FC
0C
18
30
38
0C
0E
CE
4C
78
ENDCHAR
STARTCHAR uni01B8
ENCODING 440
SWIDTH 480 0
DWIDTH 8 0
BBX 6 10 1 1
BITMAP
FC
E0
60
30
78
C0
C0
CC
4C
78
ENDCHAR
STARTCHAR uni01B9
ENCODING 441
SWIDTH 480 0
DWIDTH 8 0
BBX 7 9 1 -3
BITMAP
F8
E0
60
30
78
C0
CE
CC
78
ENDCHAR
STARTCHAR uni01BA
ENCODING 442
SWIDTH 480 0
DWIDTH 8 0
BBX 5 9 1 -3
BITMAP
F8
18
30
78
18
38
60
70
70
ENDCHAR
STARTCHAR uni01BB
ENCODING 443
SWIDTH 480 0
DWIDTH 8 0
BBX 7 10 1 1
BITMAP
38
6C
CE
0E
0C
FC
7C
60
C0
FC
ENDCHAR
STARTCHAR uni01BC
ENCODING 444
SWIDTH 480 0
DWIDTH 8 0
BBX 7 10 1 1
BITMAP
FC
C4
C0
C0
F8
0C
0E
0E
4C
78
ENDCHAR
STARTCHAR uni01BD
ENCODING 445
SWIDTH 480 0
DWIDTH 8 0
BBX 5 10 1 1
BITMAP
F8
C8
C0
C0
F0
18
18
98
F0
60
ENDCHAR
STARTCHAR uni01BE
ENCODING 446
SWIDTH 480 0
DWIDTH 8 0
BBX 5 8 1 1
BITMAP
20
70
F0
70
30
18
08
78
ENDCHAR
STARTCHAR uni01BF
ENCODING 447
SWIDTH 480 0
DWIDTH 8 0
BBX 7 9 1 -3
BITMAP
F8
CC
CE
CE
CC
F8
E0
C0
C0
ENDCHAR
STARTCHAR uni01C0
ENCODING 448
SWIDTH 480 0
DWIDTH 8 0
BBX 2 11 3 0
BITMAP
C0
C0
C0
C0
C0
C0
C0
C0
C0
C0
C0
ENDCHAR
STARTCHAR uni01C1
ENCODING 449
SWIDTH 480 0
DWIDTH 8 0
BBX 5 11 1 0
BITMAP
D8
D8
D8
D8
D8
D8
D8
D8
D8
D8
D8
ENDCHAR
STARTCHAR uni01C2
ENCODING 450
SWIDTH 480 0
DWIDTH 8 0
BBX 5 7 2 1
BITMAP
60
F8
70
60
F8
70
60
ENDCHAR
STARTCHAR uni01C3
ENCODING 451
SWIDTH 480 0
DWIDTH 8 0
BBX 2 10 3 1
BITMAP
C0
C0
C0
C0
C0
C0
C0
00
80
C0
ENDCHAR
STARTCHAR uni01C4
ENCODING 452
SWIDTH 480 0
DWIDTH 8 0
BBX 8 11 0 1
BITMAP
0B
0E
E6
F7
F3
F6
F6
F6
F4
FC
FE
ENDCHAR
STARTCHAR uni01C5
ENCODING 453
SWIDTH 480 0
DWIDTH 8 0
BBX 8 10 0 1
BITMAP
E0
FA
FE
F4
FF
F3
F6
FE
FC
EF
ENDCHAR
STARTCHAR uni01C6
ENCODING 454
SWIDTH 480 0
DWIDTH 8 0
BBX 8 10 0 1
BITMAP
30
3A
3E
34
FF
F3
F6
FE
FC
FF
ENDCHAR
STARTCHAR uni01C7
ENCODING 455
SWIDTH 480 0
DWIDTH 8 0
BBX 7 10 0 1
BITMAP
CE
C6
C6
C6
C6
C6
C6
C6
D6
FC
ENDCHAR
STARTCHAR uni01C8
ENCODING 456
SWIDTH 480 0
DWIDTH 8 0
BBX 7 13 0 -2
BITMAP
C0
C0
C6
C0
CE
C6
C6
C6
C6
F6
26
66
3C
ENDCHAR
STARTCHAR uni01C9
ENCODING 457
SWIDTH 480 0
DWIDTH 8 0
BBX 7 13 0 -2
BITMAP
60
60
66
60
6E
66
66
66
66
FE
26
66
3C
ENDCHAR
STARTCHAR uni01CA
ENCODING 458
SWIDTH 480 0
DWIDTH 8 0
BBX 7 13 0 -2
BITMAP
DE
DE
DE
DE
FE
FE
FE
FE
DE
DE
26
3C
10
ENDCHAR
STARTCHAR uni01CB
ENCODING 459
SWIDTH 480 0
DWIDTH 8 0
BBX 7 13 0 -2
BITMAP
D8
D8
DE
D8
FE
FE
FE
FE
DE
DE
26
66
3C
ENDCHAR
STARTCHAR uni01CC
ENCODING 460
SWIDTH 480 0
DWIDTH 8 0
BBX 7 11 0 -2
BITMAP
06
06
B6
FE
DE
DE
DE
DE
0E
66
7E
ENDCHAR
STARTCHAR uni01CD
ENCODING 461
SWIDTH 480 0
DWIDTH 8 0
BBX 7 11 1 1
BITMAP
48
38
00
30
78
48
CC
FE
CE
CE
CE
ENDCHAR
STARTCHAR uni01CE
ENCODING 462
SWIDTH 480 0
DWIDTH 8 0
BBX 7 9 1 0
BITMAP
68
38
00
7C
6C
7E
CE
CE
7E
ENDCHAR
STARTCHAR uni01CF
ENCODING 463
SWIDTH 480 0
DWIDTH 8 0
BBX 6 11 1 1
BITMAP
48
38
00
FC
30
30
30
30
30
30
7C
ENDCHAR
STARTCHAR uni01D0
ENCODING 464
SWIDTH 480 0
DWIDTH 8 0
BBX 6 9 1 0
BITMAP
68
38
00
70
30
30
30
30
FC
ENDCHAR
STARTCHAR uni01D1
ENCODING 465
SWIDTH 480 0
DWIDTH 8 0
BBX 7 11 1 1
BITMAP
48
38
00
38
6C
CE
CE
CE
CE
CE
7C
ENDCHAR
STARTCHAR uni01D2
ENCODING 466
SWIDTH 480 0
DWIDTH 8 0
BBX 7 9 1 0
BITMAP
68
38
00
78
CC
CE
CE
CC
78
ENDCHAR
STARTCHAR uni01D3
ENCODING 467
SWIDTH 480 0
DWIDTH 8 0
BBX 7 11 1 1
BITMAP
48
38
84
CE
CE
CE
CE
CE
CE
CE
7C
ENDCHAR
STARTCHAR uni01D4
ENCODING 468
SWIDTH 480 0
DWIDTH 8 0
BBX 7 9 1 0
BITMAP
68
38
00
CE
CE
CE
CE
CE
7E
ENDCHAR
STARTCHAR uni01D5
ENCODING 469
SWIDTH 480 0
DWIDTH 8 0
BBX 7 11 1 1
BITMAP
FC
6C
48
00
CC
CE
CE
CE
CE
CE
7C
ENDCHAR
STARTCHAR uni01D6
ENCODING 470
SWIDTH 480 0
DWIDTH 8 0
BBX 7 10 1 1
BITMAP
FC
6C
48
00
CC
CE
CE
CE
4E
7E
ENDCHAR
STARTCHAR uni01D7
ENCODING 471
SWIDTH 480 0
DWIDTH 8 0
BBX 7 12 1 0
BITMAP
18
10
48
48
C4
CE
CE
CE
CE
CE
CC
78
ENDCHAR
STARTCHAR uni01D8
ENCODING 472
SWIDTH 480 0
DWIDTH 8 0
BBX 7 11 1 0
BITMAP
18
10
48
48
C4
CE
CE
CE
CE
6E
34
ENDCHAR
STARTCHAR uni01D9
ENCODING 473
SWIDTH 480 0
DWIDTH 8 0
BBX 7 12 1 0
BITMAP
38
18
48
48
C4
CE
CE
CE
CE
CE
CC
78
ENDCHAR
STARTCHAR uni01DA
ENCODING 474
SWIDTH 480 0
DWIDTH 8 0
BBX 7 11 1 0
BITMAP
38
18
48
48
C4
CE
CE
CE
CE
6E
34
ENDCHAR
STARTCHAR uni01DB
ENCODING 475
SWIDTH 480 0
DWIDTH 8 0
BBX 7 12 1 0
BITMAP
30
10
48
48
C4
CE
CE
CE
CE
CE
CC
78
ENDCHAR
STARTCHAR uni01DC
ENCODING 476
SWIDTH 480 0
DWIDTH 8 0
BBX 7 11 1 0
BITMAP
30
10
48
48
C4
CE
CE
CE
CE
6E
34
ENDCHAR
STARTCHAR uni01DD
ENCODING 477
SWIDTH 480 0
DWIDTH 8 0
BBX 7 6 1 0
BITMAP
78
CC
0E
FE
EC
78
ENDCHAR
STARTCHAR uni01DE
ENCODING 478
SWIDTH 480 0
DWIDTH 8 0
BBX 7 12 1 0
BITMAP
FC
6C
48
00
38
68
CE
CE
FE
CE
CE
CE
ENDCHAR
STARTCHAR uni01DF
ENCODING 479
SWIDTH 480 0
DWIDTH 8 0
BBX 7 10 1 1
BITMAP
FC
6C
48
00
7C
0E
7E
CE
CE
7E
ENDCHAR
STARTCHAR uni01E0
ENCODING 480
SWIDTH 480 0
DWIDTH 8 0
BBX 7 12 1 0
BITMAP
FC
10
30
00
38
68
CE
CE
FE
CE
CE
CE
ENDCHAR
STARTCHAR uni01E1
ENCODING 481
SWIDTH 480 0
DWIDTH 8 0
BBX 7 10 1 1
BITMAP
FC
10
30
10
7C
0E
7E
CE
CE
7E
ENDCHAR
STARTCHAR uni01E2
ENCODING 482
SWIDTH 480 0
DWIDTH 8 0
BBX 6 11 1 1
BITMAP
FC
1C
38
78
58
D8
FC
D8
D8
D8
DC
ENDCHAR
STARTCHAR uni01E3
ENCODING 483
SWIDTH 480 0
DWIDTH 8 0
BBX 6 8 1 0
BITMAP
FC
6C
FC
3C
78
F0
FC
58
ENDCHAR
STARTCHAR uni01E4
ENCODING 484
SWIDTH 480 0
DWIDTH 8 0
BBX 7 10 1 1
BITMAP
38
6C
C0
C0
CC
CE
CE
DE
4E
7E
ENDCHAR
STARTCHAR uni01E5
ENCODING 485
SWIDTH 480 0
DWIDTH 8 0
BBX 7 9 1 -3
BITMAP
7E
CC
C8
C8
F8
78
CE
DE
7C
ENDCHAR
STARTCHAR Gcaron
ENCODING 486
SWIDTH 480 0
DWIDTH 8 0
BBX 7 11 1 1
BITMAP
48
38
00
38
68
C0
C0
DC
CE
CE
7E
ENDCHAR
STARTCHAR gcaron
ENCODING 487
SWIDTH 480 0
DWIDTH 8 0
BBX 7 12 1 -3
BITMAP
68
38
00
7E
CC
C8
C8
F8
78
CE
CC
7C
ENDCHAR
STARTCHAR uni01E8
ENCODING 488
SWIDTH 480 0
DWIDTH 8 0
BBX 6 11 1 1
BITMAP
48
38
84
CC
C8
D8
F0
D8
C8
C8
CC
ENDCHAR
STARTCHAR uni01E9
ENCODING 489
SWIDTH 480 0
DWIDTH 8 0
BBX 6 11 1 1
BITMAP
48
38
80
C0
C0
C0
D8
F0
F0
F8
CC
ENDCHAR
STARTCHAR uni01EA
ENCODING 490
SWIDTH 480 0
DWIDTH 8 0
BBX 7 13 1 -2
BITMAP
38
6C
CE
CE
CE
CE
CE
CE
4C
78
30
70
38
ENDCHAR
STARTCHAR uni01EB
ENCODING 491
SWIDTH 480 0
DWIDTH 8 0
BBX 7 9 1 -3
BITMAP
78
CC
CE
CE
CC
78
30
70
38
ENDCHAR
STARTCHAR uni01EC
ENCODING 492
SWIDTH 480 0
DWIDTH 8 0
BBX 7 14 1 -2
BITMAP
FC
30
68
CC
CE
CE
CE
CE
CE
CE
7C
38
30
30
ENDCHAR
STARTCHAR uni01ED
ENCODING 493
SWIDTH 480 0
DWIDTH 8 0
BBX 7 11 1 -3
BITMAP
FC
38
68
CE
CE
CE
68
38
30
30
18
ENDCHAR
STARTCHAR uni01EE
ENCODING 494
SWIDTH 480 0
DWIDTH 8 0
BBX 7 11 1 1
BITMAP
48
38
00
FC
0C
18
38
0C
8E
CE
7C
ENDCHAR
STARTCHAR uni01EF
ENCODING 495
SWIDTH 480 0
DWIDTH 8 0
BBX 7 12 1 -3
BITMAP
68
38
00
7E
0C
18
30
38
0C
CE
CC
78
ENDCHAR
STARTCHAR uni01F0
ENCODING 496
SWIDTH 480 0
DWIDTH 8 0
BBX 6 12 1 -3
BITMAP
6C
38
00
38
18
08
08
08
08
C8
D8
F8
ENDCHAR
STARTCHAR uni01F1
ENCODING 497
SWIDTH 480 0
DWIDTH 8 0
BBX 8 10 0 1
BITMAP
EF
F3
F3
F6
F6
F6
F6
FC
FC
EF
ENDCHAR
STARTCHAR uni01F2
ENCODING 498
SWIDTH 480 0
DWIDTH 8 0
BBX 8 10 0 1
BITMAP
E0
F0
F0
F0
FF
F3
F6
FE
FC
EF
ENDCHAR
STARTCHAR uni01F3
ENCODING 499
SWIDTH 480 0
DWIDTH 8 0
BBX 8 10 0 1
BITMAP
30
30
30
30
FF
F3
F6
FE
FC
FF
ENDCHAR
STARTCHAR uni01F4
ENCODING 500
SWIDTH 480 0
DWIDTH 8 0
BBX 7 12 1 0
BITMAP
08
18
00
78
CC
C0
C0
DC
CE
CE
CE
7E
ENDCHAR
STARTCHAR uni01F5
ENCODING 501
SWIDTH 480 0
DWIDTH 8 0
BBX 7 12 1 -3
BITMAP
18
30
00
7E
CC
C8
C8
F8
78
CE
CC
7C
ENDCHAR
STARTCHAR uni01F6
ENCODING 502
SWIDTH 480 0
DWIDTH 8 0
BBX 7 10 1 1
BITMAP
F0
F0
F0
F0
FC
FE
FE
FE
FE
DC
ENDCHAR
STARTCHAR uni01F7
ENCODING 503
SWIDTH 480 0
DWIDTH 8 0
BBX 7 12 1 -1
BITMAP
F8
EC
CE
CE
CC
D8
F0
E0
C0
C0
C0
80
ENDCHAR
STARTCHAR uni01F8
ENCODING 504
SWIDTH 480 0
DWIDTH 8 0
BBX 7 11 1 1
BITMAP
20
30
00
C4
EE
FE
FE
DE
DE
CE
CE
ENDCHAR
STARTCHAR uni01F9
ENCODING 505
SWIDTH 480 0
DWIDTH 8 0
BBX 7 9 1 0
BITMAP
30
18
00
F8
CC
CE
CE
CE
CE
ENDCHAR
STARTCHAR Aringacute
ENCODING 506
SWIDTH 480 0
DWIDTH 8 0
BBX 7 12 1 0
BITMAP
18
10
30
48
38
30
78
CC
CE
FE
CE
CE
ENDCHAR
STARTCHAR aringacute
ENCODING 507
SWIDTH 480 0
DWIDTH 8 0
BBX 7 12 1 0
BITMAP
18
10
30
48
38
00
7C
CC
7E
CE
CE
7E
ENDCHAR
STARTCHAR AEacute
ENCODING 508
SWIDTH 480 0
DWIDTH 8 0
BBX 6 12 1 0
BITMAP
08
18
00
3C
78
58
D8
FC
D8
D8
D8
DC
ENDCHAR
STARTCHAR aeacute
ENCODING 509
SWIDTH 480 0
DWIDTH 8 0
BBX 6 9 1 0
BITMAP
08
18
00
7C
3C
3C
70
F0
7C
ENDCHAR
STARTCHAR Oslashacute
ENCODING 510
SWIDTH 480 0
DWIDTH 8 0
BBX 7 13 1 0
BITMAP
18
30
00
78
CC
DE
DE
DE
FE
EE
EC
78
80
ENDCHAR
STARTCHAR oslashacute
ENCODING 511
SWIDTH 480 0
DWIDTH 8 0
BBX 7 10 1 0
BITMAP
08
18
04
78
DC
DE
FE
EC
78
80
ENDCHAR
STARTCHAR uni0200
ENCODING 512
SWIDTH 480 0
DWIDTH 8 0
BBX 7 11 1 1
BITMAP
D8
48
10
38
68
CC
CE
FE
CE
CE
CE
ENDCHAR
STARTCHAR uni0201
ENCODING 513
SWIDTH 480 0
DWIDTH 8 0
BBX 7 8 1 1
BITMAP
D8
48
38
7C
7E
CE
CE
FE
ENDCHAR
STARTCHAR uni0202
ENCODING 514
SWIDTH 480 0
DWIDTH 8 0
BBX 7 11 1 1
BITMAP
38
68
00
30
78
CC
CE
FE
CE
CE
CE
ENDCHAR
STARTCHAR uni0203
ENCODING 515
SWIDTH 480 0
DWIDTH 8 0
BBX 7 9 1 0
BITMAP
78
48
00
7C
6C
7E
CE
CE
7E
ENDCHAR
STARTCHAR uni0204
ENCODING 516
SWIDTH 480 0
DWIDTH 8 0
BBX 6 11 1 1
BITMAP
D8
48
FC
FC
C0
C0
F8
C0
C0
C0
FC
ENDCHAR
STARTCHAR uni0205
ENCODING 517
SWIDTH 480 0
DWIDTH 8 0
BBX 6 8 1 1
BITMAP
D8
48
30
78
FC
C0
C0
7C
ENDCHAR
STARTCHAR uni0206
ENCODING 518
SWIDTH 480 0
DWIDTH 8 0
BBX 6 11 1 1
BITMAP
38
68
00
FC
C0
C0
C0
F0
C0
C0
FC
ENDCHAR
STARTCHAR uni0207
ENCODING 519
SWIDTH 480 0
DWIDTH 8 0
BBX 7 9 1 0
BITMAP
78
48
00
78
EC
FE
C0
C4
7C
ENDCHAR
STARTCHAR uni0208
ENCODING 520
SWIDTH 480 0
DWIDTH 8 0
BBX 6 11 1 1
BITMAP
D8
48
FC
7C
30
30
30
30
30
30
7C
ENDCHAR
STARTCHAR uni0209
ENCODING 521
SWIDTH 480 0
DWIDTH 8 0
BBX 6 8 1 1
BITMAP
D8
48
30
30
30
30
30
7C
ENDCHAR
STARTCHAR uni020A
ENCODING 522
SWIDTH 480 0
DWIDTH 8 0
BBX 6 11 1 1
BITMAP
38
68
00
FC
30
30
30
30
30
30
7C
ENDCHAR
STARTCHAR uni020B
ENCODING 523
SWIDTH 480 0
DWIDTH 8 0
BBX 6 9 1 0
BITMAP
78
48
00
70
30
30
30
30
FC
ENDCHAR
STARTCHAR uni020C
ENCODING 524
SWIDTH 480 0
DWIDTH 8 0
BBX 7 11 1 1
BITMAP
D8
48
30
78
CC
CE
CE
CE
CE
CE
7C
ENDCHAR
STARTCHAR uni020D
ENCODING 525
SWIDTH 480 0
DWIDTH 8 0
BBX 7 8 1 1
BITMAP
D8
48
30
78
CC
CE
CE
7C
ENDCHAR
STARTCHAR uni020E
ENCODING 526
SWIDTH 480 0
DWIDTH 8 0
BBX 7 11 1 1
BITMAP
38
68
00
38
6C
CE
CE
CE
CE
CE
7C
ENDCHAR
STARTCHAR uni020F
ENCODING 527
SWIDTH 480 0
DWIDTH 8 0
BBX 7 9 1 0
BITMAP
78
48
00
78
CC
CE
CE
CC
78
ENDCHAR
STARTCHAR uni0210
ENCODING 528
SWIDTH 480 0
DWIDTH 8 0
BBX 7 11 1 1
BITMAP
D8
48
F0
F8
CC
CE
CC
F8
C8
C8
CC
ENDCHAR
STARTCHAR uni0211
ENCODING 529
SWIDTH 480 0
DWIDTH 8 0
BBX 6 8 1 1
BITMAP
D8
48
98
7C
60
40
40
40
ENDCHAR
STARTCHAR uni0212
ENCODING 530
SWIDTH 480 0
DWIDTH 8 0
BBX 7 11 1 1
BITMAP
38
68
00
F8
CC
CE
CC
F8
C8
C8
CC
ENDCHAR
STARTCHAR uni0213
ENCODING 531
SWIDTH 480 0
DWIDTH 8 0
BBX 6 9 1 0
BITMAP
78
48
00
FC
64
40
40
40
40
ENDCHAR
STARTCHAR uni0214
ENCODING 532
SWIDTH 480 0
DWIDTH 8 0
BBX 7 11 1 1
BITMAP
D8
48
84
CE
CE
CE
CE
CE
CE
CE
7C
ENDCHAR
STARTCHAR uni0215
ENCODING 533
SWIDTH 480 0
DWIDTH 8 0
BBX 7 8 1 1
BITMAP
D8
48
84
CE
CE
CE
CE
7E
ENDCHAR
STARTCHAR uni0216
ENCODING 534
SWIDTH 480 0
DWIDTH 8 0
BBX 7 11 1 1
BITMAP
38
68
00
C4
CE
CE
CE
CE
CE
CE
7C
ENDCHAR
STARTCHAR uni0217
ENCODING 535
SWIDTH 480 0
DWIDTH 8 0
BBX 7 9 1 0
BITMAP
78
48
00
CE
CE
CE
CE
CE
7E
ENDCHAR
STARTCHAR Scommaaccent
ENCODING 536
SWIDTH 480 0
DWIDTH 8 0
BBX 7 13 1 -2
BITMAP
38
6C
C0
C0
70
08
0C
0E
4C
78
10
38
30
ENDCHAR
STARTCHAR scommaaccent
ENCODING 537
SWIDTH 480 0
DWIDTH 8 0
BBX 7 9 1 -3
BITMAP
7C
CC
78
0E
CC
7C
00
38
30
ENDCHAR
STARTCHAR Tcommaaccent
ENCODING 538
SWIDTH 480 0
DWIDTH 8 0
BBX 6 13 1 -2
BITMAP
FC
30
30
30
30
30
30
30
30
30
10
38
30
ENDCHAR
STARTCHAR tcommaaccent
ENCODING 539
SWIDTH 480 0
DWIDTH 8 0
BBX 6 11 1 -2
BITMAP
20
70
F0
70
70
70
70
3C
00
38
38
ENDCHAR
STARTCHAR uni021C
ENCODING 540
SWIDTH 480 0
DWIDTH 8 0
BBX 7 10 1 1
BITMAP
38
48
08
18
38
6C
0E
0C
38
F0
ENDCHAR
STARTCHAR uni021D
ENCODING 541
SWIDTH 480 0
DWIDTH 8 0
BBX 5 9 1 -3
BITMAP
F0
98
18
30
70
D8
18
30
E0
ENDCHAR
STARTCHAR uni021E
ENCODING 542
SWIDTH 480 0
DWIDTH 8 0
BBX 7 11 1 1
BITMAP
48
38
84
CE
CE
CE
FE
CE
CE
CE
CE
ENDCHAR
STARTCHAR uni021F
ENCODING 543
SWIDTH 480 0
DWIDTH 8 0
BBX 7 11 1 1
BITMAP
48
38
80
C0
C0
D0
F8
CC
CE
CE
CE
ENDCHAR
STARTCHAR uni0220
ENCODING 544
SWIDTH 480 0
DWIDTH 8 0
BBX 7 13 1 -2
BITMAP
F8
EC
CE
CE
CE
CE
CE
CE
CE
CE
0E
0E
0E
ENDCHAR
STARTCHAR uni0221
ENCODING 545
SWIDTH 480 0
DWIDTH 8 0
BBX 7 11 1 0
BITMAP
18
18
18
18
78
D8
D8
DC
7E
7E
18
ENDCHAR
STARTCHAR uni0222
ENCODING 546
SWIDTH 480 0
DWIDTH 8 0
BBX 7 10 1 1
BITMAP
18
4C
CE
CE
7C
68
CC
CE
4C
78
ENDCHAR
STARTCHAR uni0223
ENCODING 547
SWIDTH 480 0
DWIDTH 8 0
BBX 7 8 1 0
BITMAP
4C
CC
4C
78
CC
CE
68
38
ENDCHAR
STARTCHAR uni0224
ENCODING 548
SWIDTH 480 0
DWIDTH 8 0
BBX 7 12 1 -1
BITMAP
FC
0E
0C
18
18
30
70
60
C0
FC
06
0C
ENDCHAR
STARTCHAR uni0225
ENCODING 549
SWIDTH 480 0
DWIDTH 8 0
BBX 6 8 1 -1
BITMAP
F8
18
30
60
E0
F8
0C
08
ENDCHAR
STARTCHAR uni0226
ENCODING 550
SWIDTH 480 0
DWIDTH 8 0
BBX 7 11 1 1
BITMAP
30
10
10
38
68
CC
CE
FE
CE
CE
CE
ENDCHAR
STARTCHAR uni0227
ENCODING 551
SWIDTH 480 0
DWIDTH 8 0
BBX 7 8 1 1
BITMAP
30
10
38
7C
7E
CE
CE
FE
ENDCHAR
STARTCHAR uni0228
ENCODING 552
SWIDTH 480 0
DWIDTH 8 0
BBX 6 13 1 -2
BITMAP
FC
C0
C0
C0
F0
C0
C0
C0
C0
FC
30
18
70
ENDCHAR
STARTCHAR uni0229
ENCODING 553
SWIDTH 480 0
DWIDTH 8 0
BBX 7 9 1 -3
BITMAP
78
EC
FE
C0
C4
7C
30
78
70
ENDCHAR
STARTCHAR uni022A
ENCODING 554
SWIDTH 480 0
DWIDTH 8 0
BBX 7 12 1 0
BITMAP
FC
6C
48
00
78
CC
CE
CE
CE
CE
CC
78
ENDCHAR
STARTCHAR uni022B
ENCODING 555
SWIDTH 480 0
DWIDTH 8 0
BBX 7 10 1 1
BITMAP
FC
6C
48
00
78
CC
CE
CE
4C
78
ENDCHAR
STARTCHAR uni022C
ENCODING 556
SWIDTH 480 0
DWIDTH 8 0
BBX 7 12 1 0
BITMAP
FC
2C
78
18
38
68
CE
CE
CE
CE
CC
78
ENDCHAR
STARTCHAR uni022D
ENCODING 557
SWIDTH 480 0
DWIDTH 8 0
BBX 7 11 1 0
BITMAP
FC
2C
78
18
38
68
CE
CE
CE
68
38
ENDCHAR
STARTCHAR uni022E
ENCODING 558
SWIDTH 480 0
DWIDTH 8 0
BBX 7 11 1 1
BITMAP
30
10
30
78
CC
CE
CE
CE
CE
CE
7C
ENDCHAR
STARTCHAR uni022F
ENCODING 559
SWIDTH 480 0
DWIDTH 8 0
BBX 7 8 1 1
BITMAP
30
10
30
78
CC
CE
CE
7C
ENDCHAR
STARTCHAR uni0230
ENCODING 560
SWIDTH 480 0
DWIDTH 8 0
BBX 7 12 1 0
BITMAP
FC
10
30
00
78
CC
CE
CE
CE
CE
CC
78
ENDCHAR
STARTCHAR uni0231
ENCODING 561
SWIDTH 480 0
DWIDTH 8 0
BBX 7 10 1 1
BITMAP
FC
10
30
10
78
CC
CE
CE
4C
78
ENDCHAR
STARTCHAR uni0232
ENCODING 562
SWIDTH 480 0
DWIDTH 8 0
BBX 7 11 1 1
BITMAP
FC
84
CE
4C
78
78
30
30
30
30
30
ENDCHAR
STARTCHAR uni0233
ENCODING 563
SWIDTH 480 0
DWIDTH 8 0
BBX 7 11 1 -3
BITMAP
FC
C4
CE
CE
CE
CE
6E
3E
CE
68
38
ENDCHAR
STARTCHAR uni0234
ENCODING 564
SWIDTH 480 0
DWIDTH 8 0
BBX 7 11 1 0
BITMAP
E0
70
70
70
70
70
70
70
74
36
18
ENDCHAR
STARTCHAR uni0235
ENCODING 565
SWIDTH 480 0
DWIDTH 8 0
BBX 7 8 1 -1
BITMAP
F0
D8
D8
D8
DC
DE
1C
18
ENDCHAR
STARTCHAR uni0236
ENCODING 566
SWIDTH 480 0
DWIDTH 8 0
BBX 6 10 1 0
BITMAP
20
70
F0
70
70
70
70
3C
18
38
ENDCHAR
STARTCHAR uni0237
ENCODING 567
SWIDTH 480 0
DWIDTH 8 0
BBX 5 9 1 -3
BITMAP
38
18
08
08
08
08
C8
D8
F8
ENDCHAR
STARTCHAR uni0238
ENCODING 568
SWIDTH 480 0
DWIDTH 8 0
BBX 7 10 1 1
BITMAP
30
30
30
30
7C
FE
B6
B6
BE
7C
ENDCHAR
STARTCHAR uni0239
ENCODING 569
SWIDTH 480 0
DWIDTH 8 0
BBX 7 9 1 -3
BITMAP
7C
F4
B6
B6
BC
7C
30
30
30
ENDCHAR
STARTCHAR uni023A
ENCODING 570
SWIDTH 480 0
DWIDTH 8 0
BBX 8 9 0 0
BITMAP
1B
3E
6C
5E
7E
7E
C6
C6
C6
ENDCHAR
STARTCHAR uni023B
ENCODING 571
SWIDTH 480 0
DWIDTH 8 0
BBX 8 10 0 1
BITMAP
38
6F
46
4C
58
70
60
E0
E4
3C
ENDCHAR
STARTCHAR uni023C
ENCODING 572
SWIDTH 480 0
DWIDTH 8 0
BBX 8 7 0 1
BITMAP
03
3E
6C
58
70
66
FC
ENDCHAR
STARTCHAR uni023D
ENCODING 573
SWIDTH 480 0
DWIDTH 8 0
BBX 7 10 0 1
BITMAP
40
40
40
40
E0
E0
40
40
40
7E
ENDCHAR
STARTCHAR uni023E
ENCODING 574
SWIDTH 480 0
DWIDTH 8 0
BBX 7 10 1 1
BITMAP
FC
30
36
3C
38
30
70
F0
30
30
ENDCHAR
STARTCHAR uni023F
ENCODING 575
SWIDTH 480 0
DWIDTH 8 0
BBX 7 8 1 -1
BITMAP
7C
CC
78
0E
CC
7C
60
3C
ENDCHAR
STARTCHAR uni0240
ENCODING 576
SWIDTH 480 0
DWIDTH 8 0
BBX 5 8 1 -1
BITMAP
F8
18
30
60
C0
C0
C0
78
ENDCHAR
STARTCHAR uni0241
ENCODING 577
SWIDTH 480 0
DWIDTH 8 0
BBX 7 10 1 1
BITMAP
38
6C
CE
0E
1C
38
30
30
30
30
ENDCHAR
STARTCHAR uni0242
ENCODING 578
SWIDTH 480 0
DWIDTH 8 0
BBX 7 6 1 0
BITMAP
78
CC
CE
08
38
30
ENDCHAR
STARTCHAR uni0243
ENCODING 579
SWIDTH 480 0
DWIDTH 8 0
BBX 8 10 0 1
BITMAP
78
6F
4E
4C
7C
7C
66
E6
C4
FC
ENDCHAR
STARTCHAR uni0244
ENCODING 580
SWIDTH 480 0
DWIDTH 8 0
BBX 8 10 0 1
BITMAP
46
47
46
4E
5E
7E
66
E6
E4
3C
ENDCHAR
STARTCHAR uni0245
ENCODING 581
SWIDTH 480 0
DWIDTH 8 0
BBX 7 10 1 1
BITMAP
30
30
38
78
78
48
48
CC
CE
CE
ENDCHAR
STARTCHAR uni0246
ENCODING 582
SWIDTH 480 0
DWIDTH 8 0
BBX 8 10 0 1
BITMAP
7E
63
46
4C
7C
78
60
E0
C0
FE
ENDCHAR
STARTCHAR uni0247
ENCODING 583
SWIDTH 480 0
DWIDTH 8 0
BBX 7 6 0 0
BITMAP
3E
7E
5E
7E
E6
FC
ENDCHAR
STARTCHAR uni0248
ENCODING 584
SWIDTH 480 0
DWIDTH 8 0
BBX 7 10 1 1
BITMAP
3E
0C
08
08
1E
0C
08
C8
58
70
ENDCHAR
STARTCHAR uni0249
ENCODING 585
SWIDTH 480 0
DWIDTH 8 0
BBX 6 11 1 -2
BITMAP
08
08
38
18
1C
1C
08
08
88
C8
F8
ENDCHAR
STARTCHAR uni024A
ENCODING 586
SWIDTH 480 0
DWIDTH 8 0
BBX 7 13 1 -2
BITMAP
3C
6E
CE
CE
CE
CE
CE
CE
4E
7E
0E
0E
06
ENDCHAR
STARTCHAR uni024B
ENCODING 587
SWIDTH 480 0
DWIDTH 8 0
BBX 7 9 1 -3
BITMAP
7E
CE
CE
CE
CE
7E
0E
0E
06
ENDCHAR
STARTCHAR uni024C
ENCODING 588
SWIDTH 480 0
DWIDTH 8 0
BBX 7 10 0 1
BITMAP
78
6C
46
46
46
FC
F8
4C
46
46
ENDCHAR
STARTCHAR uni024D
ENCODING 589
SWIDTH 480 0
DWIDTH 8 0
BBX 6 6 1 0
BITMAP
FC
64
F0
40
40
40
ENDCHAR
STARTCHAR uni024E
ENCODING 590
SWIDTH 480 0
DWIDTH 8 0
BBX 7 10 0 1
BITMAP
46
FE
6C
3C
38
18
18
18
18
18
ENDCHAR
STARTCHAR uni024F
ENCODING 591
SWIDTH 480 0
DWIDTH 8 0
BBX 8 9 0 -3
BITMAP
46
E6
FF
46
66
3E
06
66
3C
ENDCHAR
STARTCHAR uni0250
ENCODING 592
SWIDTH 480 0
DWIDTH 8 0
BBX 7 6 1 0
BITMAP
FC
CC
CE
F8
C8
78
ENDCHAR
STARTCHAR uni0251
ENCODING 593
SWIDTH 480 0
DWIDTH 8 0
BBX 6 6 1 0
BITMAP
78
D8
C8
C8
DC
7C
ENDCHAR
STARTCHAR uni0252
ENCODING 594
SWIDTH 480 0
DWIDTH 8 0
BBX 7 6 1 0
BITMAP
F8
6C
4E
4E
6C
78
ENDCHAR
STARTCHAR uni0253
ENCODING 595
SWIDTH 480 0
DWIDTH 8 0
BBX 7 10 1 1
BITMAP
38
60
C0
C0
F8
CC
CE
CE
CC
F8
ENDCHAR
STARTCHAR uni0254
ENCODING 596
SWIDTH 480 0
DWIDTH 8 0
BBX 7 6 1 0
BITMAP
78
CC
0E
0E
CC
78
ENDCHAR
STARTCHAR uni0255
ENCODING 597
SWIDTH 480 0
DWIDTH 8 0
BBX 6 7 1 0
BITMAP
7C
C4
C0
CC
DC
7C
30
ENDCHAR
STARTCHAR uni0256
ENCODING 598
SWIDTH 480 0
DWIDTH 8 0
BBX 7 13 1 -2
BITMAP
04
0E
0E
0E
7E
CE
CE
CE
4E
7E
0E
06
02
ENDCHAR
STARTCHAR uni0257
ENCODING 599
SWIDTH 480 0
DWIDTH 8 0
BBX 7 11 1 0
BITMAP
0E
0C
08
08
28
78
C8
C8
C8
78
28
ENDCHAR
STARTCHAR uni0258
ENCODING 600
SWIDTH 480 0
DWIDTH 8 0
BBX 7 6 1 0
BITMAP
78
EC
FE
0E
CC
78
ENDCHAR
STARTCHAR uni0259
ENCODING 601
SWIDTH 480 0
DWIDTH 8 0
BBX 7 6 1 0
BITMAP
78
CC
0E
FE
EC
78
ENDCHAR
STARTCHAR uni025A
ENCODING 602
SWIDTH 480 0
DWIDTH 8 0
BBX 7 6 1 0
BITMAP
70
DE
38
C8
F8
70
ENDCHAR
STARTCHAR uni025B
ENCODING 603
SWIDTH 480 0
DWIDTH 8 0
BBX 6 6 1 0
BITMAP
7C
C4
70
C0
C4
7C
ENDCHAR
STARTCHAR uni025C
ENCODING 604
SWIDTH 480 0
DWIDTH 8 0
BBX 7 6 1 0
BITMAP
7C
CC
3C
0E
CC
7C
ENDCHAR
STARTCHAR uni025D
ENCODING 605
SWIDTH 480 0
DWIDTH 8 0
BBX 6 6 1 0
BITMAP
78
DC
30
18
D8
70
ENDCHAR
STARTCHAR uni025E
ENCODING 606
SWIDTH 480 0
DWIDTH 8 0
BBX 7 6 1 0
BITMAP
7C
CC
DC
CE
CC
7C
ENDCHAR
STARTCHAR uni025F
ENCODING 607
SWIDTH 480 0
DWIDTH 8 0
BBX 6 9 1 -3
BITMAP
18
18
18
18
3C
18
18
D8
70
ENDCHAR
STARTCHAR uni0260
ENCODING 608
SWIDTH 480 0
DWIDTH 8 0
BBX 7 11 1 -2
BITMAP
06
0E
3E
7E
CE
CE
CE
7E
0E
CE
7C
ENDCHAR
STARTCHAR uni0261
ENCODING 609
SWIDTH 480 0
DWIDTH 8 0
BBX 7 9 1 -3
BITMAP
7E
CE
CE
CE
CE
7E
0E
CC
78
ENDCHAR
STARTCHAR uni0262
ENCODING 610
SWIDTH 480 0
DWIDTH 8 0
BBX 7 6 1 0
BITMAP
78
CC
C0
DE
CE
7E
ENDCHAR
STARTCHAR uni0263
ENCODING 611
SWIDTH 480 0
DWIDTH 8 0
BBX 7 8 1 -1
BITMAP
CE
CC
48
78
38
38
48
78
ENDCHAR
STARTCHAR uni0264
ENCODING 612
SWIDTH 480 0
DWIDTH 8 0
BBX 5 6 1 0
BITMAP
C8
78
70
70
78
70
ENDCHAR
STARTCHAR uni0265
ENCODING 613
SWIDTH 480 0
DWIDTH 8 0
BBX 7 9 1 -3
BITMAP
CE
CE
CE
CE
CE
7E
0E
0E
0E
ENDCHAR
STARTCHAR uni0266
ENCODING 614
SWIDTH 480 0
DWIDTH 8 0
BBX 7 10 1 1
BITMAP
38
68
C0
C0
F8
CC
CE
CE
CE
CE
ENDCHAR
STARTCHAR uni0267
ENCODING 615
SWIDTH 480 0
DWIDTH 8 0
BBX 7 13 1 -2
BITMAP
38
68
C0
C0
F8
CC
CE
CE
CE
CE
0E
0E
0C
ENDCHAR
STARTCHAR uni0268
ENCODING 616
SWIDTH 480 0
DWIDTH 8 0
BBX 5 8 2 1
BITMAP
60
20
60
60
F0
70
60
F8
ENDCHAR
STARTCHAR uni0269
ENCODING 617
SWIDTH 480 0
DWIDTH 8 0
BBX 4 6 2 0
BITMAP
C0
40
40
40
60
70
ENDCHAR
STARTCHAR uni026A
ENCODING 618
SWIDTH 480 0
DWIDTH 8 0
BBX 6 6 1 0
BITMAP
FC
30
30
30
30
FC
ENDCHAR
STARTCHAR uni026B
ENCODING 619
SWIDTH 480 0
DWIDTH 8 0
BBX 6 10 1 1
BITMAP
70
30
30
30
7C
FC
38
30
30
FC
ENDCHAR
STARTCHAR uni026C
ENCODING 620
SWIDTH 480 0
DWIDTH 8 0
BBX 6 10 1 1
BITMAP
70
30
30
30
70
7C
3C
30
30
FC
ENDCHAR
STARTCHAR uni026D
ENCODING 621
SWIDTH 480 0
DWIDTH 8 0
BBX 4 13 1 -2
BITMAP
E0
60
60
60
60
60
60
60
60
60
60
60
30
ENDCHAR
STARTCHAR uni026E
ENCODING 622
SWIDTH 480 0
DWIDTH 8 0
BBX 7 13 1 -2
BITMAP
C0
40
40
40
7E
46
46
4C
46
E6
66
66
3C
ENDCHAR
STARTCHAR uni026F
ENCODING 623
SWIDTH 480 0
DWIDTH 8 0
BBX 7 6 1 0
BITMAP
FE
FE
FE
FE
FE
7E
ENDCHAR
STARTCHAR uni0270
ENCODING 624
SWIDTH 480 0
DWIDTH 8 0
BBX 7 9 1 -3
BITMAP
FE
FE
FE
FE
FE
7E
0E
0E
0E
ENDCHAR
STARTCHAR uni0271
ENCODING 625
SWIDTH 480 0
DWIDTH 8 0
BBX 7 9 1 -3
BITMAP
FC
FC
FE
FE
FE
FE
0E
0C
0C
ENDCHAR
STARTCHAR uni0272
ENCODING 626
SWIDTH 480 0
DWIDTH 8 0
BBX 7 9 0 -3
BITMAP
7C
66
46
46
46
46
40
C0
C0
ENDCHAR
STARTCHAR uni0273
ENCODING 627
SWIDTH 480 0
DWIDTH 8 0
BBX 7 9 1 -3
BITMAP
F8
CC
CE
CE
CE
CE
0E
0E
06
ENDCHAR
STARTCHAR uni0274
ENCODING 628
SWIDTH 480 0
DWIDTH 8 0
BBX 7 6 1 0
BITMAP
CE
EE
FE
FE
DE
CE
ENDCHAR
STARTCHAR uni0275
ENCODING 629
SWIDTH 480 0
DWIDTH 8 0
BBX 7 6 1 0
BITMAP
78
EC
FE
CE
CC
78
ENDCHAR
STARTCHAR uni0276
ENCODING 630
SWIDTH 480 0
DWIDTH 8 0
BBX 6 6 1 0
BITMAP
7C
F8
F8
F0
F0
7C
ENDCHAR
STARTCHAR uni0277
ENCODING 631
SWIDTH 480 0
DWIDTH 8 0
BBX 7 6 1 0
BITMAP
78
CC
CE
FE
FC
7C
ENDCHAR
STARTCHAR uni0278
ENCODING 632
SWIDTH 480 0
DWIDTH 8 0
BBX 7 12 1 -3
BITMAP
30
30
30
7C
FC
FE
FE
FC
7C
30
30
30
ENDCHAR
STARTCHAR uni0279
ENCODING 633
SWIDTH 480 0
DWIDTH 8 0
BBX 6 6 1 0
BITMAP
08
08
08
08
DC
7C
ENDCHAR
STARTCHAR uni027A
ENCODING 634
SWIDTH 480 0
DWIDTH 8 0
BBX 6 10 1 1
BITMAP
08
08
08
08
08
08
08
08
98
7C
ENDCHAR
STARTCHAR uni027B
ENCODING 635
SWIDTH 480 0
DWIDTH 8 0
BBX 6 9 1 -3
BITMAP
18
18
18
18
D8
78
18
18
0C
ENDCHAR
STARTCHAR uni027C
ENCODING 636
SWIDTH 480 0
DWIDTH 8 0
BBX 6 9 1 -3
BITMAP
FC
64
40
40
40
40
40
40
40
ENDCHAR
STARTCHAR uni027D
ENCODING 637
SWIDTH 480 0
DWIDTH 8 0
BBX 6 9 1 -3
BITMAP
FC
64
40
40
40
40
40
68
70
ENDCHAR
STARTCHAR uni027E
ENCODING 638
SWIDTH 480 0
DWIDTH 8 0
BBX 5 6 1 0
BITMAP
78
C8
C0
C0
C0
C0
ENDCHAR
STARTCHAR uni027F
ENCODING 639
SWIDTH 480 0
DWIDTH 8 0
BBX 5 6 1 0
BITMAP
F0
98
08
08
08
08
ENDCHAR
STARTCHAR uni0280
ENCODING 640
SWIDTH 480 0
DWIDTH 8 0
BBX 7 6 1 0
BITMAP
FC
CC
CC
F8
CC
CE
ENDCHAR
STARTCHAR uni0281
ENCODING 641
SWIDTH 480 0
DWIDTH 8 0
BBX 7 6 1 0
BITMAP
CE
CC
F8
CC
CC
FC
ENDCHAR
STARTCHAR uni0282
ENCODING 642
SWIDTH 480 0
DWIDTH 8 0
BBX 7 9 1 -3
BITMAP
7C
CC
78
0E
CC
FC
C0
C0
70
ENDCHAR
STARTCHAR uni0283
ENCODING 643
SWIDTH 480 0
DWIDTH 8 0
BBX 5 13 1 -2
BITMAP
38
60
60
60
60
60
60
60
60
60
60
60
E0
ENDCHAR
STARTCHAR uni0284
ENCODING 644
SWIDTH 480 0
DWIDTH 8 0
BBX 6 12 1 -3
BITMAP
0C
18
18
18
18
18
18
3C
18
18
D8
70
ENDCHAR
STARTCHAR uni0285
ENCODING 645
SWIDTH 480 0
DWIDTH 8 0
BBX 5 9 1 -3
BITMAP
E0
60
60
60
60
60
60
60
38
ENDCHAR
STARTCHAR uni0286
ENCODING 646
SWIDTH 480 0
DWIDTH 8 0
BBX 7 13 1 -2
BITMAP
18
10
30
30
30
30
30
30
30
30
7C
FE
74
ENDCHAR
STARTCHAR uni0287
ENCODING 647
SWIDTH 480 0
DWIDTH 8 0
BBX 6 9 1 -3
BITMAP
70
D8
18
18
18
3C
18
18
18
ENDCHAR
STARTCHAR uni0288
ENCODING 648
SWIDTH 480 0
DWIDTH 8 0
BBX 4 11 1 -2
BITMAP
20
70
F0
70
70
70
70
70
70
70
30
ENDCHAR
STARTCHAR uni0289
ENCODING 649
SWIDTH 480 0
DWIDTH 8 0
BBX 8 6 0 0
BITMAP
46
E6
FF
46
66
3E
ENDCHAR
STARTCHAR uni028A
ENCODING 650
SWIDTH 480 0
DWIDTH 8 0
BBX 7 6 1 0
BITMAP
CC
CC
CE
CE
CC
78
ENDCHAR
STARTCHAR uni028B
ENCODING 651
SWIDTH 480 0
DWIDTH 8 0
BBX 7 6 1 0
BITMAP
D8
CC
CC
CE
FC
78
ENDCHAR
STARTCHAR uni028C
ENCODING 652
SWIDTH 480 0
DWIDTH 8 0
BBX 7 6 1 0
BITMAP
30
38
78
48
CC
CE
ENDCHAR
STARTCHAR uni028D
ENCODING 653
SWIDTH 480 0
DWIDTH 8 0
BBX 7 6 1 0
BITMAP
6C
FC
FE
FE
CE
CE
ENDCHAR
STARTCHAR uni028E
ENCODING 654
SWIDTH 480 0
DWIDTH 8 0
BBX 7 9 1 0
BITMAP
1C
3C
30
70
78
78
48
CC
CE
ENDCHAR
STARTCHAR uni028F
ENCODING 655
SWIDTH 480 0
DWIDTH 8 0
BBX 7 6 1 0
BITMAP
CE
CC
78
30
30
30
ENDCHAR
STARTCHAR uni0290
ENCODING 656
SWIDTH 480 0
DWIDTH 8 0
BBX 6 9 1 -3
BITMAP
F8
18
30
60
E0
F8
08
0C
0C
ENDCHAR
STARTCHAR uni0291
ENCODING 657
SWIDTH 480 0
DWIDTH 8 0
BBX 5 7 1 0
BITMAP
F8
18
30
60
F8
F8
40
ENDCHAR
STARTCHAR uni0292
ENCODING 658
SWIDTH 480 0
DWIDTH 8 0
BBX 7 9 1 -3
BITMAP
7E
0C
18
38
3C
0E
CE
CC
78
ENDCHAR
STARTCHAR uni0293
ENCODING 659
SWIDTH 480 0
DWIDTH 8 0
BBX 7 9 1 -3
BITMAP
7E
0C
18
38
3C
6E
FC
FC
7C
ENDCHAR
STARTCHAR uni0294
ENCODING 660
SWIDTH 480 0
DWIDTH 8 0
BBX 7 10 1 1
BITMAP
38
6C
CE
0E
1C
38
30
30
30
30
ENDCHAR
STARTCHAR uni0295
ENCODING 661
SWIDTH 480 0
DWIDTH 8 0
BBX 7 10 1 1
BITMAP
38
6C
CE
C4
70
30
30
30
30
30
ENDCHAR
STARTCHAR uni0296
ENCODING 662
SWIDTH 480 0
DWIDTH 8 0
BBX 7 10 1 1
BITMAP
30
30
30
30
30
08
0C
CE
4C
78
ENDCHAR
STARTCHAR uni0297
ENCODING 663
SWIDTH 480 0
DWIDTH 8 0
BBX 6 9 1 -1
BITMAP
7C
C4
C0
C0
C0
C0
C0
C4
7C
ENDCHAR
STARTCHAR uni0298
ENCODING 664
SWIDTH 480 0
DWIDTH 8 0
BBX 7 6 1 0
BITMAP
78
EC
FE
FE
EC
78
ENDCHAR
STARTCHAR uni0299
ENCODING 665
SWIDTH 480 0
DWIDTH 8 0
BBX 7 6 1 0
BITMAP
FC
CC
FC
CE
CC
FC
ENDCHAR
STARTCHAR uni029A
ENCODING 666
SWIDTH 480 0
DWIDTH 8 0
BBX 7 6 1 0
BITMAP
7C
CC
6E
CE
CC
7C
ENDCHAR
STARTCHAR uni029B
ENCODING 667
SWIDTH 480 0
DWIDTH 8 0
BBX 7 8 1 1
BITMAP
06
0E
3E
7E
C0
DC
CE
7E
ENDCHAR
STARTCHAR uni029C
ENCODING 668
SWIDTH 480 0
DWIDTH 8 0
BBX 7 6 1 0
BITMAP
CE
CE
FE
CE
CE
CE
ENDCHAR
STARTCHAR uni029D
ENCODING 669
SWIDTH 480 0
DWIDTH 8 0
BBX 7 11 1 -2
BITMAP
08
08
18
18
08
08
08
68
F8
D8
FE
ENDCHAR
STARTCHAR uni029E
ENCODING 670
SWIDTH 480 0
DWIDTH 8 0
BBX 7 9 1 -3
BITMAP
CE
6E
3E
1E
3E
6E
0E
0E
0E
ENDCHAR
STARTCHAR uni029F
ENCODING 671
SWIDTH 480 0
DWIDTH 8 0
BBX 5 6 1 0
BITMAP
C0
C0
C0
C0
C0
F8
ENDCHAR
STARTCHAR uni02A0
ENCODING 672
SWIDTH 480 0
DWIDTH 8 0
BBX 7 13 1 -2
BITMAP
06
0E
0E
0E
7E
CE
CE
CE
4E
7E
0E
0E
0E
ENDCHAR
STARTCHAR uni02A1
ENCODING 673
SWIDTH 480 0
DWIDTH 8 0
BBX 7 10 1 1
BITMAP
38
6C
CE
0E
1C
38
30
38
30
30
ENDCHAR
STARTCHAR uni02A2
ENCODING 674
SWIDTH 480 0
DWIDTH 8 0
BBX 7 10 1 1
BITMAP
38
6C
CE
C4
70
30
30
38
30
30
ENDCHAR
STARTCHAR uni02A3
ENCODING 675
SWIDTH 480 0
DWIDTH 8 0
BBX 8 10 0 1
BITMAP
18
18
18
18
FF
DB
DE
DE
FC
FF
ENDCHAR
STARTCHAR uni02A4
ENCODING 676
SWIDTH 480 0
DWIDTH 8 0
BBX 8 13 0 -2
BITMAP
18
18
18
18
FF
DB
DE
DC
FA
FB
03
36
1C
ENDCHAR
STARTCHAR uni02A5
ENCODING 677
SWIDTH 480 0
DWIDTH 8 0
BBX 8 11 0 0
BITMAP
30
30
30
30
FF
F6
FC
FE
FD
FE
0C
ENDCHAR
STARTCHAR uni02A6
ENCODING 678
SWIDTH 480 0
DWIDTH 8 0
BBX 7 8 0 1
BITMAP
40
40
FC
FE
58
4C
46
7E
ENDCHAR
STARTCHAR uni02A7
ENCODING 679
SWIDTH 480 0
DWIDTH 8 0
BBX 8 13 0 -2
BITMAP
07
4C
4C
4C
FC
4C
4C
4C
4C
7C
0C
0C
1C
ENDCHAR
STARTCHAR uni02A8
ENCODING 680
SWIDTH 480 0
DWIDTH 8 0
BBX 8 10 0 0
BITMAP
40
40
FE
FF
58
5A
5F
7F
0C
08
ENDCHAR
STARTCHAR uni02A9
ENCODING 681
SWIDTH 480 0
DWIDTH 8 0
BBX 7 13 0 -2
BITMAP
78
78
40
40
FC
5E
5E
5E
5E
5E
06
06
0C
ENDCHAR
STARTCHAR uni02AA
ENCODING 682
SWIDTH 480 0
DWIDTH 8 0
BBX 7 10 1 1
BITMAP
C0
40
40
40
7C
78
78
4C
4E
FC
ENDCHAR
STARTCHAR uni02AB
ENCODING 683
SWIDTH 480 0
DWIDTH 8 0
BBX 6 10 1 1
BITMAP
C0
40
40
40
7C
4C
48
58
70
FC
ENDCHAR
STARTCHAR uni02AC
ENCODING 684
SWIDTH 480 0
DWIDTH 8 0
BBX 7 10 1 1
BITMAP
C4
DE
FE
FE
48
84
CE
DE
FE
7C
ENDCHAR
STARTCHAR uni02AD
ENCODING 685
SWIDTH 480 0
DWIDTH 8 0
BBX 7 6 1 1
BITMAP
FE
CC
00
00
FC
CE
ENDCHAR
STARTCHAR uni02AE
ENCODING 686
SWIDTH 480 0
DWIDTH 8 0
BBX 6 9 2 -3
BITMAP
DC
DC
FC
FC
7C
3C
1C
1C
1C
ENDCHAR
STARTCHAR uni02AF
ENCODING 687
SWIDTH 480 0
DWIDTH 8 0
BBX 5 9 2 -3
BITMAP
90
90
90
90
F0
70
10
10
18
ENDCHAR
STARTCHAR uni02B0
ENCODING 688
SWIDTH 480 0
DWIDTH 8 0
BBX 5 6 1 5
BITMAP
C0
D0
F8
D8
D8
D8
ENDCHAR
STARTCHAR uni02B1
ENCODING 689
SWIDTH 480 0
DWIDTH 8 0
BBX 5 7 1 6
BITMAP
60
C0
D0
F8
D8
D8
D8
ENDCHAR
STARTCHAR uni02B2
ENCODING 690
SWIDTH 480 0
DWIDTH 8 0
BBX 5 8 1 5
BITMAP
18
18
30
38
18
98
D8
70
ENDCHAR
STARTCHAR uni02B3
ENCODING 691
SWIDTH 480 0
DWIDTH 8 0
BBX 5 5 1 5
BITMAP
F0
D8
C0
C0
C0
ENDCHAR
STARTCHAR uni02B4
ENCODING 692
SWIDTH 480 0
DWIDTH 8 0
BBX 5 5 1 5
BITMAP
18
18
18
F8
58
ENDCHAR
STARTCHAR uni02B5
ENCODING 693
SWIDTH 480 0
DWIDTH 8 0
BBX 5 6 1 3
BITMAP
18
18
18
F8
58
08
ENDCHAR
STARTCHAR uni02B6
ENCODING 694
SWIDTH 480 0
DWIDTH 8 0
BBX 5 5 1 5
BITMAP
C8
F8
C8
C8
F8
ENDCHAR
STARTCHAR uni02B7
ENCODING 695
SWIDTH 480 0
DWIDTH 8 0
BBX 7 5 1 5
BITMAP
FE
FE
FE
78
48
ENDCHAR
STARTCHAR uni02B8
ENCODING 696
SWIDTH 480 0
DWIDTH 8 0
BBX 5 6 1 3
BITMAP
C8
C8
C8
C8
78
78
ENDCHAR
STARTCHAR uni02B9
ENCODING 697
SWIDTH 480 0
DWIDTH 8 0
BBX 4 4 1 7
BITMAP
30
60
C0
80
ENDCHAR
STARTCHAR uni02BA
ENCODING 698
SWIDTH 480 0
DWIDTH 8 0
BBX 7 3 1 8
BITMAP
36
6C
D8
ENDCHAR
STARTCHAR uni02BB
ENCODING 699
SWIDTH 480 0
DWIDTH 8 0
BBX 2 4 2 7
BITMAP
40
C0
C0
40
ENDCHAR
STARTCHAR afii57929
ENCODING 700
SWIDTH 480 0
DWIDTH 8 0
BBX 2 4 3 7
BITMAP
C0
C0
C0
80
ENDCHAR
STARTCHAR afii64937
ENCODING 701
SWIDTH 480 0
DWIDTH 8 0
BBX 2 3 3 8
BITMAP
C0
C0
C0
ENDCHAR
STARTCHAR uni02BE
ENCODING 702
SWIDTH 480 0
DWIDTH 8 0
BBX 2 4 3 7
BITMAP
C0
C0
C0
80
ENDCHAR
STARTCHAR uni02BF
ENCODING 703
SWIDTH 480 0
DWIDTH 8 0
BBX 2 3 3 8
BITMAP
40
C0
C0
ENDCHAR
STARTCHAR uni02C0
ENCODING 704
SWIDTH 480 0
DWIDTH 8 0
BBX 4 5 1 6
BITMAP
60
F0
20
60
60
ENDCHAR
STARTCHAR uni02C1
ENCODING 705
SWIDTH 480 0
DWIDTH 8 0
BBX 3 5 1 6
BITMAP
60
E0
C0
40
40
ENDCHAR
STARTCHAR uni02C2
ENCODING 706
SWIDTH 480 0
DWIDTH 8 0
BBX 5 4 1 7
BITMAP
18
F0
70
38
ENDCHAR
STARTCHAR uni02C3
ENCODING 707
SWIDTH 480 0
DWIDTH 8 0
BBX 4 4 1 7
BITMAP
C0
70
60
E0
ENDCHAR
STARTCHAR uni02C4
ENCODING 708
SWIDTH 480 0
DWIDTH 8 0
BBX 4 5 1 6
BITMAP
40
60
60
F0
90
ENDCHAR
STARTCHAR uni02C5
ENCODING 709
SWIDTH 480 0
DWIDTH 8 0
BBX 4 5 1 6
BITMAP
90
F0
60
60
40
ENDCHAR
STARTCHAR circumflex
ENCODING 710
SWIDTH 480 0
DWIDTH 8 0
BBX 4 2 1 8
BITMAP
60
F0
ENDCHAR
STARTCHAR caron
ENCODING 711
SWIDTH 480 0
DWIDTH 8 0
BBX 5 2 1 8
BITMAP
D8
70
ENDCHAR
STARTCHAR uni02C8
ENCODING 712
SWIDTH 480 0
DWIDTH 8 0
BBX 2 4 3 7
BITMAP
C0
C0
C0
C0
ENDCHAR
STARTCHAR macron
ENCODING 713
SWIDTH 480 0
DWIDTH 8 0
BBX 6 1 1 11
BITMAP
FC
ENDCHAR
STARTCHAR uni02CA
ENCODING 714
SWIDTH 480 0
DWIDTH 8 0
BBX 2 2 3 8
BITMAP
40
C0
ENDCHAR
STARTCHAR uni02CB
ENCODING 715
SWIDTH 480 0
DWIDTH 8 0
BBX 3 2 2 8
BITMAP
C0
60
ENDCHAR
STARTCHAR uni02CC
ENCODING 716
SWIDTH 480 0
DWIDTH 8 0
BBX 2 4 3 -1
BITMAP
C0
C0
C0
C0
ENDCHAR
STARTCHAR uni02CD
ENCODING 717
SWIDTH 480 0
DWIDTH 8 0
BBX 6 1 1 -1
BITMAP
FC
ENDCHAR
STARTCHAR uni02CE
ENCODING 718
SWIDTH 480 0
DWIDTH 8 0
BBX 3 2 2 -2
BITMAP
C0
60
ENDCHAR
STARTCHAR uni02CF
ENCODING 719
SWIDTH 480 0
DWIDTH 8 0
BBX 2 2 3 -2
BITMAP
40
C0
ENDCHAR
STARTCHAR uni02D0
ENCODING 720
SWIDTH 480 0
DWIDTH 8 0
BBX 4 6 1 0
BITMAP
F0
60
00
00
60
F0
ENDCHAR
STARTCHAR uni02D1
ENCODING 721
SWIDTH 480 0
DWIDTH 8 0
BBX 4 2 1 5
BITMAP
F0
60
ENDCHAR
STARTCHAR uni02D2
ENCODING 722
SWIDTH 480 0
DWIDTH 8 0
BBX 2 5 3 2
BITMAP
C0
C0
40
C0
C0
ENDCHAR
STARTCHAR uni02D3
ENCODING 723
SWIDTH 480 0
DWIDTH 8 0
BBX 2 5 3 2
BITMAP
40
C0
C0
C0
40
ENDCHAR
STARTCHAR uni02D4
ENCODING 724
SWIDTH 480 0
DWIDTH 8 0
BBX 4 4 1 2
BITMAP
40
40
F0
E0
ENDCHAR
STARTCHAR uni02D5
ENCODING 725
SWIDTH 480 0
DWIDTH 8 0
BBX 4 3 1 0
BITMAP
F0
60
40
ENDCHAR
STARTCHAR uni02D6
ENCODING 726
SWIDTH 480 0
DWIDTH 8 0
BBX 4 5 1 1
BITMAP
40
40
F0
E0
40
ENDCHAR
STARTCHAR uni02D7
ENCODING 727
SWIDTH 480 0
DWIDTH 8 0
BBX 4 2 1 2
BITMAP
90
F0
ENDCHAR
STARTCHAR breve
ENCODING 728
SWIDTH 480 0
DWIDTH 8 0
BBX 5 2 1 11
BITMAP
D8
70
ENDCHAR
STARTCHAR dotaccent
ENCODING 729
SWIDTH 480 0
DWIDTH 8 0
BBX 2 2 3 11
BITMAP
C0
C0
ENDCHAR
STARTCHAR ring
ENCODING 730
SWIDTH 480 0
DWIDTH 8 0
BBX 3 3 2 9
BITMAP
40
A0
40
ENDCHAR
STARTCHAR ogonek
ENCODING 731
SWIDTH 480 0
DWIDTH 8 0
BBX 3 3 2 -3
BITMAP
40
C0
60
ENDCHAR
STARTCHAR tilde
ENCODING 732
SWIDTH 480 0
DWIDTH 8 0
BBX 5 2 1 8
BITMAP
48
F8
ENDCHAR
STARTCHAR hungarumlaut
ENCODING 733
SWIDTH 480 0
DWIDTH 8 0
BBX 5 2 2 10
BITMAP
48
F8
ENDCHAR
STARTCHAR uni02DE
ENCODING 734
SWIDTH 480 0
DWIDTH 8 0
BBX 7 4 1 3
BITMAP
70
F0
BE
18
ENDCHAR
STARTCHAR uni02DF
ENCODING 735
SWIDTH 480 0
DWIDTH 8 0
BBX 5 4 1 8
BITMAP
C8
78
78
C8
ENDCHAR
STARTCHAR uni02E0
ENCODING 736
SWIDTH 480 0
DWIDTH 8 0
BBX 5 5 1 5
BITMAP
C8
78
70
58
78
ENDCHAR
STARTCHAR uni02E1
ENCODING 737
SWIDTH 480 0
DWIDTH 8 0
BBX 3 6 1 5
BITMAP
C0
40
40
40
60
E0
ENDCHAR
STARTCHAR uni02E2
ENCODING 738
SWIDTH 480 0
DWIDTH 8 0
BBX 4 5 1 5
BITMAP
70
E0
60
30
E0
ENDCHAR
STARTCHAR uni02E3
ENCODING 739
SWIDTH 480 0
DWIDTH 8 0
BBX 4 5 1 5
BITMAP
F0
F0
70
F0
D0
ENDCHAR
STARTCHAR uni02E4
ENCODING 740
SWIDTH 480 0
DWIDTH 8 0
BBX 5 6 1 5
BITMAP
70
D8
40
70
70
70
ENDCHAR
STARTCHAR uni02E5
ENCODING 741
SWIDTH 480 0
DWIDTH 8 0
BBX 5 10 1 1
BITMAP
F8
18
18
18
18
18
18
18
18
18
ENDCHAR
STARTCHAR uni02E6
ENCODING 742
SWIDTH 480 0
DWIDTH 8 0
BBX 5 10 1 1
BITMAP
18
18
F8
F8
18
18
18
18
18
18
ENDCHAR
STARTCHAR uni02E7
ENCODING 743
SWIDTH 480 0
DWIDTH 8 0
BBX 5 10 1 1
BITMAP
18
18
18
18
F8
18
18
18
18
18
ENDCHAR
STARTCHAR uni02E8
ENCODING 744
SWIDTH 480 0
DWIDTH 8 0
BBX 5 10 1 1
BITMAP
18
18
18
18
18
18
18
F8
18
18
ENDCHAR
STARTCHAR uni02E9
ENCODING 745
SWIDTH 480 0
DWIDTH 8 0
BBX 5 10 1 1
BITMAP
18
18
18
18
18
18
18
18
18
F8
ENDCHAR
STARTCHAR uni02EA
ENCODING 746
SWIDTH 480 0
DWIDTH 8 0
BBX 4 3 2 0
BITMAP
F0
70
70
ENDCHAR
STARTCHAR uni02EB
ENCODING 747
SWIDTH 480 0
DWIDTH 8 0
BBX 3 4 2 0
BITMAP
C0
E0
C0
C0
ENDCHAR
STARTCHAR uni02EC
ENCODING 748
SWIDTH 480 0
DWIDTH 8 0
BBX 5 2 1 -1
BITMAP
D8
70
ENDCHAR
STARTCHAR uni02ED
ENCODING 749
SWIDTH 480 0
DWIDTH 8 0
BBX 5 4 1 5
BITMAP
F8
00
F0
F0
ENDCHAR
STARTCHAR uni02EE
ENCODING 750
SWIDTH 480 0
DWIDTH 8 0
BBX 7 3 1 8
BITMAP
CC
CE
CC
ENDCHAR
STARTCHAR uni02EF
ENCODING 751
SWIDTH 480 0
DWIDTH 8 0
BBX 4 4 1 -2
BITMAP
90
F0
60
40
ENDCHAR
STARTCHAR uni02F0
ENCODING 752
SWIDTH 480 0
DWIDTH 8 0
BBX 4 5 1 -3
BITMAP
40
60
60
F0
90
ENDCHAR
STARTCHAR uni02F1
ENCODING 753
SWIDTH 480 0
DWIDTH 8 0
BBX 5 4 1 -2
BITMAP
18
F0
70
38
ENDCHAR
STARTCHAR uni02F2
ENCODING 754
SWIDTH 480 0
DWIDTH 8 0
BBX 4 4 1 -2
BITMAP
C0
70
60
E0
ENDCHAR
STARTCHAR uni02F3
ENCODING 755
SWIDTH 480 0
DWIDTH 8 0
BBX 3 3 2 -3
BITMAP
60
E0
60
ENDCHAR
STARTCHAR uni02F4
ENCODING 756
SWIDTH 480 0
DWIDTH 8 0
BBX 3 2 2 5
BITMAP
C0
60
ENDCHAR
STARTCHAR uni02F5
ENCODING 757
SWIDTH 480 0
DWIDTH 8 0
BBX 6 2 1 5
BITMAP
D8
6C
ENDCHAR
STARTCHAR uni02F6
ENCODING 758
SWIDTH 480 0
DWIDTH 8 0
BBX 6 2 1 5
BITMAP
6C
D8
ENDCHAR
STARTCHAR uni02F7
ENCODING 759
SWIDTH 480 0
DWIDTH 8 0
BBX 7 2 1 -1
BITMAP
7E
DC
ENDCHAR
STARTCHAR uni02F8
ENCODING 760
SWIDTH 480 0
DWIDTH 8 0
BBX 2 6 3 3
BITMAP
C0
C0
00
00
C0
C0
ENDCHAR
STARTCHAR uni02F9
ENCODING 761
SWIDTH 480 0
DWIDTH 8 0
BBX 2 4 3 6
BITMAP
C0
80
80
80
ENDCHAR
STARTCHAR uni02FA
ENCODING 762
SWIDTH 480 0
DWIDTH 8 0
BBX 2 3 2 7
BITMAP
C0
40
40
ENDCHAR
STARTCHAR uni02FB
ENCODING 763
SWIDTH 480 0
DWIDTH 8 0
BBX 2 4 3 1
BITMAP
80
80
80
C0
ENDCHAR
STARTCHAR uni02FC
ENCODING 764
SWIDTH 480 0
DWIDTH 8 0
BBX 2 3 2 1
BITMAP
40
40
C0
ENDCHAR
STARTCHAR uni02FD
ENCODING 765
SWIDTH 480 0
DWIDTH 8 0
BBX 7 3 1 -3
BITMAP
86
FE
FE
ENDCHAR
STARTCHAR uni02FE
ENCODING 766
SWIDTH 480 0
DWIDTH 8 0
BBX 6 2 1 -1
BITMAP
80
FC
ENDCHAR
STARTCHAR uni02FF
ENCODING 767
SWIDTH 480 0
DWIDTH 8 0
BBX 6 3 1 0
BITMAP
40
FC
60
ENDCHAR
STARTCHAR gravecomb
ENCODING 768
SWIDTH 480 0
DWIDTH 8 0
BBX 3 2 2 11
BITMAP
C0
60
ENDCHAR
STARTCHAR acutecomb
ENCODING 769
SWIDTH 480 0
DWIDTH 8 0
BBX 3 2 2 11
BITMAP
60
C0
ENDCHAR
STARTCHAR uni0302
ENCODING 770
SWIDTH 480 0
DWIDTH 8 0
BBX 4 2 1 11
BITMAP
60
F0
ENDCHAR
STARTCHAR tildecomb
ENCODING 771
SWIDTH 480 0
DWIDTH 8 0
BBX 5 2 1 11
BITMAP
F8
F0
ENDCHAR
STARTCHAR uni0304
ENCODING 772
SWIDTH 480 0
DWIDTH 8 0
BBX 5 1 1 12
BITMAP
F8
ENDCHAR
STARTCHAR uni0305
ENCODING 773
SWIDTH 480 0
DWIDTH 8 0
BBX 8 1 0 12
BITMAP
FF
ENDCHAR
STARTCHAR uni0306
ENCODING 774
SWIDTH 480 0
DWIDTH 8 0
BBX 5 2 1 11
BITMAP
C8
78
ENDCHAR
STARTCHAR uni0307
ENCODING 775
SWIDTH 480 0
DWIDTH 8 0
BBX 2 2 3 11
BITMAP
C0
80
ENDCHAR
STARTCHAR uni0308
ENCODING 776
SWIDTH 480 0
DWIDTH 8 0
BBX 5 2 1 11
BITMAP
D8
90
ENDCHAR
STARTCHAR hookabovecomb
ENCODING 777
SWIDTH 480 0
DWIDTH 8 0
BBX 4 3 1 9
BITMAP
F0
B0
60
ENDCHAR
STARTCHAR uni030A
ENCODING 778
SWIDTH 480 0
DWIDTH 8 0
BBX 3 2 1 11
BITMAP
E0
E0
ENDCHAR
STARTCHAR uni030B
ENCODING 779
SWIDTH 480 0
DWIDTH 8 0
BBX 6 2 1 11
BITMAP
6C
D8
ENDCHAR
STARTCHAR uni030C
ENCODING 780
SWIDTH 480 0
DWIDTH 8 0
BBX 5 2 1 11
BITMAP
D8
70
ENDCHAR
STARTCHAR uni030D
ENCODING 781
SWIDTH 480 0
DWIDTH 8 0
BBX 2 3 3 9
BITMAP
C0
C0
C0
ENDCHAR
STARTCHAR uni030E
ENCODING 782
SWIDTH 480 0
DWIDTH 8 0
BBX 5 3 1 9
BITMAP
D8
D8
D8
ENDCHAR
STARTCHAR uni030F
ENCODING 783
SWIDTH 480 0
DWIDTH 8 0
BBX 6 2 1 11
BITMAP
D8
6C
ENDCHAR
STARTCHAR uni0310
ENCODING 784
SWIDTH 480 0
DWIDTH 8 0
BBX 6 2 1 11
BITMAP
30
FC
ENDCHAR
STARTCHAR uni0311
ENCODING 785
SWIDTH 480 0
DWIDTH 8 0
BBX 5 2 1 11
BITMAP
78
C8
ENDCHAR
STARTCHAR uni0312
ENCODING 786
SWIDTH 480 0
DWIDTH 8 0
BBX 2 3 2 9
BITMAP
40
C0
40
ENDCHAR
STARTCHAR uni0313
ENCODING 787
SWIDTH 480 0
DWIDTH 8 0
BBX 2 3 2 9
BITMAP
40
C0
C0
ENDCHAR
STARTCHAR uni0314
ENCODING 788
SWIDTH 480 0
DWIDTH 8 0
BBX 2 3 2 9
BITMAP
40
C0
40
ENDCHAR
STARTCHAR uni0315
ENCODING 789
SWIDTH 480 0
DWIDTH 8 0
BBX 2 3 5 9
BITMAP
40
C0
C0
ENDCHAR
STARTCHAR uni0316
ENCODING 790
SWIDTH 480 0
DWIDTH 8 0
BBX 3 2 2 -2
BITMAP
C0
60
ENDCHAR
STARTCHAR uni0317
ENCODING 791
SWIDTH 480 0
DWIDTH 8 0
BBX 2 2 3 -2
BITMAP
40
C0
ENDCHAR
STARTCHAR uni0318
ENCODING 792
SWIDTH 480 0
DWIDTH 8 0
BBX 4 2 1 -2
BITMAP
30
F0
ENDCHAR
STARTCHAR uni0319
ENCODING 793
SWIDTH 480 0
DWIDTH 8 0
BBX 3 2 1 -2
BITMAP
C0
E0
ENDCHAR
STARTCHAR uni031A
ENCODING 794
SWIDTH 480 0
DWIDTH 8 0
BBX 4 2 4 11
BITMAP
F0
30
ENDCHAR
STARTCHAR uni031B
ENCODING 795
SWIDTH 480 0
DWIDTH 8 0
BBX 1 2 6 8
BITMAP
80
80
ENDCHAR
STARTCHAR uni031C
ENCODING 796
SWIDTH 480 0
DWIDTH 8 0
BBX 3 3 2 -3
BITMAP
60
C0
60
ENDCHAR
STARTCHAR uni031D
ENCODING 797
SWIDTH 480 0
DWIDTH 8 0
BBX 4 2 1 -2
BITMAP
60
F0
ENDCHAR
STARTCHAR uni031E
ENCODING 798
SWIDTH 480 0
DWIDTH 8 0
BBX 5 2 1 -2
BITMAP
F8
60
ENDCHAR
STARTCHAR uni031F
ENCODING 799
SWIDTH 480 0
DWIDTH 8 0
BBX 4 2 1 -2
BITMAP
60
F0
ENDCHAR
STARTCHAR uni0320
ENCODING 800
SWIDTH 480 0
DWIDTH 8 0
BBX 5 1 1 -1
BITMAP
F8
ENDCHAR
STARTCHAR uni0321
ENCODING 801
SWIDTH 480 0
DWIDTH 8 0
BBX 4 3 4 -3
BITMAP
70
60
E0
ENDCHAR
STARTCHAR uni0322
ENCODING 802
SWIDTH 480 0
DWIDTH 8 0
BBX 2 3 5 -3
BITMAP
C0
C0
40
ENDCHAR
STARTCHAR dotbelowcomb
ENCODING 803
SWIDTH 480 0
DWIDTH 8 0
BBX 2 2 3 -1
BITMAP
C0
C0
ENDCHAR
STARTCHAR uni0324
ENCODING 804
SWIDTH 480 0
DWIDTH 8 0
BBX 5 2 1 -1
BITMAP
D8
D8
ENDCHAR
STARTCHAR uni0325
ENCODING 805
SWIDTH 480 0
DWIDTH 8 0
BBX 3 2 1 -2
BITMAP
60
E0
ENDCHAR
STARTCHAR uni0326
ENCODING 806
SWIDTH 480 0
DWIDTH 8 0
BBX 2 2 3 -2
BITMAP
C0
C0
ENDCHAR
STARTCHAR uni0327
ENCODING 807
SWIDTH 480 0
DWIDTH 8 0
BBX 4 3 1 -3
BITMAP
60
B0
E0
ENDCHAR
STARTCHAR uni0328
ENCODING 808
SWIDTH 480 0
DWIDTH 8 0
BBX 4 3 1 -3
BITMAP
60
F0
F0
ENDCHAR
STARTCHAR uni0329
ENCODING 809
SWIDTH 480 0
DWIDTH 8 0
BBX 2 3 3 -3
BITMAP
C0
C0
C0
ENDCHAR
STARTCHAR uni032A
ENCODING 810
SWIDTH 480 0
DWIDTH 8 0
BBX 7 2 1 -2
BITMAP
FC
CE
ENDCHAR
STARTCHAR uni032B
ENCODING 811
SWIDTH 480 0
DWIDTH 8 0
BBX 6 2 1 -2
BITMAP
FC
FC
ENDCHAR
STARTCHAR uni032C
ENCODING 812
SWIDTH 480 0
DWIDTH 8 0
BBX 5 2 1 -2
BITMAP
D8
70
ENDCHAR
STARTCHAR uni032D
ENCODING 813
SWIDTH 480 0
DWIDTH 8 0
BBX 4 2 1 -2
BITMAP
60
F0
ENDCHAR
STARTCHAR uni032E
ENCODING 814
SWIDTH 480 0
DWIDTH 8 0
BBX 5 2 1 -1
BITMAP
C8
78
ENDCHAR
STARTCHAR uni032F
ENCODING 815
SWIDTH 480 0
DWIDTH 8 0
BBX 5 2 1 -1
BITMAP
78
C8
ENDCHAR
STARTCHAR uni0330
ENCODING 816
SWIDTH 480 0
DWIDTH 8 0
BBX 5 2 1 -2
BITMAP
48
F8
ENDCHAR
STARTCHAR uni0331
ENCODING 817
SWIDTH 480 0
DWIDTH 8 0
BBX 5 1 1 0
BITMAP
F8
ENDCHAR
STARTCHAR uni0332
ENCODING 818
SWIDTH 480 0
DWIDTH 8 0
BBX 8 1 0 0
BITMAP
FF
ENDCHAR
STARTCHAR uni0333
ENCODING 819
SWIDTH 480 0
DWIDTH 8 0
BBX 8 2 0 -2
BITMAP
FF
FE
ENDCHAR
STARTCHAR uni0334
ENCODING 820
SWIDTH 480 0
DWIDTH 8 0
BBX 5 2 1 4
BITMAP
48
F8
ENDCHAR
STARTCHAR uni0335
ENCODING 821
SWIDTH 480 0
DWIDTH 8 0
BBX 5 1 1 5
BITMAP
F8
ENDCHAR
STARTCHAR uni0336
ENCODING 822
SWIDTH 480 0
DWIDTH 8 0
BBX 8 1 0 5
BITMAP
FF
ENDCHAR
STARTCHAR uni0337
ENCODING 823
SWIDTH 480 0
DWIDTH 8 0
BBX 5 5 2 2
BITMAP
08
18
30
60
C0
ENDCHAR
STARTCHAR uni0338
ENCODING 824
SWIDTH 480 0
DWIDTH 8 0
BBX 7 11 1 0
BITMAP
0E
0C
08
18
18
30
30
60
60
40
C0
ENDCHAR
STARTCHAR uni0339
ENCODING 825
SWIDTH 480 0
DWIDTH 8 0
BBX 3 3 2 -3
BITMAP
E0
60
E0
ENDCHAR
STARTCHAR uni033A
ENCODING 826
SWIDTH 480 0
DWIDTH 8 0
BBX 7 2 1 -2
BITMAP
C4
FE
ENDCHAR
STARTCHAR uni033B
ENCODING 827
SWIDTH 480 0
DWIDTH 8 0
BBX 5 2 1 -2
BITMAP
F8
F8
ENDCHAR
STARTCHAR uni033C
ENCODING 828
SWIDTH 480 0
DWIDTH 8 0
BBX 6 2 0 -2
BITMAP
6C
FC
ENDCHAR
STARTCHAR uni033D
ENCODING 829
SWIDTH 480 0
DWIDTH 8 0
BBX 6 2 1 11
BITMAP
CC
FC
ENDCHAR
STARTCHAR uni033E
ENCODING 830
SWIDTH 480 0
DWIDTH 8 0
BBX 2 3 2 9
BITMAP
40
C0
C0
ENDCHAR
STARTCHAR uni033F
ENCODING 831
SWIDTH 480 0
DWIDTH 8 0
BBX 8 2 0 11
BITMAP
FF
FE
ENDCHAR
STARTCHAR uni0340
ENCODING 832
SWIDTH 480 0
DWIDTH 8 0
BBX 3 2 2 11
BITMAP
C0
60
ENDCHAR
STARTCHAR uni0341
ENCODING 833
SWIDTH 480 0
DWIDTH 8 0
BBX 3 2 2 11
BITMAP
60
C0
ENDCHAR
STARTCHAR uni0342
ENCODING 834
SWIDTH 480 0
DWIDTH 8 0
BBX 5 2 1 11
BITMAP
F8
F0
ENDCHAR
STARTCHAR uni0343
ENCODING 835
SWIDTH 480 0
DWIDTH 8 0
BBX 2 3 2 9
BITMAP
40
C0
C0
ENDCHAR
STARTCHAR uni0344
ENCODING 836
SWIDTH 480 0
DWIDTH 8 0
BBX 6 2 1 11
BITMAP
18
FC
ENDCHAR
STARTCHAR uni0345
ENCODING 837
SWIDTH 480 0
DWIDTH 8 0
BBX 2 2 2 -2
BITMAP
C0
C0
ENDCHAR
STARTCHAR uni0346
ENCODING 838
SWIDTH 480 0
DWIDTH 8 0
BBX 5 2 1 11
BITMAP
F8
90
ENDCHAR
STARTCHAR uni0347
ENCODING 839
SWIDTH 480 0
DWIDTH 8 0
BBX 6 2 1 -2
BITMAP
FC
FC
ENDCHAR
STARTCHAR uni0348
ENCODING 840
SWIDTH 480 0
DWIDTH 8 0
BBX 5 2 1 -2
BITMAP
D8
D8
ENDCHAR
STARTCHAR uni0349
ENCODING 841
SWIDTH 480 0
DWIDTH 8 0
BBX 4 2 2 -2
BITMAP
E0
70
ENDCHAR
STARTCHAR uni034A
ENCODING 842
SWIDTH 480 0
DWIDTH 8 0
BBX 7 5 1 8
BITMAP
18
78
FE
B8
70
ENDCHAR
STARTCHAR uni034B
ENCODING 843
SWIDTH 480 0
DWIDTH 8 0
BBX 4 5 1 7
BITMAP
30
70
F0
00
40
ENDCHAR
STARTCHAR uni034C
ENCODING 844
SWIDTH 480 0
DWIDTH 8 0
BBX 5 4 1 9
BITMAP
F8
B0
58
F0
ENDCHAR
STARTCHAR uni034D
ENCODING 845
SWIDTH 480 0
DWIDTH 8 0
BBX 6 2 1 -2
BITMAP
40
FC
ENDCHAR
STARTCHAR uni034E
ENCODING 846
SWIDTH 480 0
DWIDTH 8 0
BBX 3 3 1 -3
BITMAP
60
E0
40
ENDCHAR
STARTCHAR uni034F
ENCODING 847
SWIDTH 480 0
DWIDTH 8 0
BBX 1 1 7 -3
BITMAP
00
ENDCHAR
STARTCHAR uni0350
ENCODING 848
SWIDTH 480 0
DWIDTH 8 0
BBX 4 2 2 11
BITMAP
E0
F0
ENDCHAR
STARTCHAR uni0351
ENCODING 849
SWIDTH 480 0
DWIDTH 8 0
BBX 2 3 3 9
BITMAP
C0
C0
C0
ENDCHAR
STARTCHAR uni0352
ENCODING 850
SWIDTH 480 0
DWIDTH 8 0
BBX 6 3 1 9
BITMAP
7C
D4
30
ENDCHAR
STARTCHAR uni0353
ENCODING 851
SWIDTH 480 0
DWIDTH 8 0
BBX 3 3 2 -3
BITMAP
E0
60
E0
ENDCHAR
STARTCHAR uni0354
ENCODING 852
SWIDTH 480 0
DWIDTH 8 0
BBX 4 2 1 -2
BITMAP
70
E0
ENDCHAR
STARTCHAR uni0355
ENCODING 853
SWIDTH 480 0
DWIDTH 8 0
BBX 3 2 1 -2
BITMAP
C0
E0
ENDCHAR
STARTCHAR uni0356
ENCODING 854
SWIDTH 480 0
DWIDTH 8 0
BBX 5 3 1 -3
BITMAP
08
F8
D8
ENDCHAR
STARTCHAR uni0357
ENCODING 855
SWIDTH 480 0
DWIDTH 8 0
BBX 2 3 3 9
BITMAP
C0
C0
C0
ENDCHAR
STARTCHAR uni0358
ENCODING 856
SWIDTH 480 0
DWIDTH 8 0
BBX 2 2 6 11
BITMAP
C0
80
ENDCHAR
STARTCHAR uni0359
ENCODING 857
SWIDTH 480 0
DWIDTH 8 0
BBX 5 4 2 -2
BITMAP
90
F8
F0
F0
ENDCHAR
STARTCHAR uni035A
ENCODING 858
SWIDTH 480 0
DWIDTH 8 0
BBX 5 2 1 -2
BITMAP
58
F8
ENDCHAR
STARTCHAR uni035B
ENCODING 859
SWIDTH 480 0
DWIDTH 8 0
BBX 6 4 1 9
BITMAP
60
FC
0C
18
ENDCHAR
STARTCHAR uni035C
ENCODING 860
SWIDTH 480 0
DWIDTH 8 0
BBX 6 2 1 -3
BITMAP
CC
78
ENDCHAR
STARTCHAR uni035D
ENCODING 861
SWIDTH 480 0
DWIDTH 8 0
BBX 6 2 1 11
BITMAP
CC
78
ENDCHAR
STARTCHAR uni035E
ENCODING 862
SWIDTH 480 0
DWIDTH 8 0
BBX 5 1 3 12
BITMAP
F8
ENDCHAR
STARTCHAR uni035F
ENCODING 863
SWIDTH 480 0
DWIDTH 8 0
BBX 5 1 3 -1
BITMAP
F8
ENDCHAR
STARTCHAR uni0360
ENCODING 864
SWIDTH 480 0
DWIDTH 8 0
BBX 6 2 1 11
BITMAP
EC
98
ENDCHAR
STARTCHAR uni0361
ENCODING 865
SWIDTH 480 0
DWIDTH 8 0
BBX 6 2 1 11
BITMAP
FC
84
ENDCHAR
STARTCHAR uni0362
ENCODING 866
SWIDTH 480 0
DWIDTH 8 0
BBX 5 2 3 -2
BITMAP
10
F8
ENDCHAR
STARTCHAR uni0363
ENCODING 867
SWIDTH 480 0
DWIDTH 8 0
BBX 4 4 2 8
BITMAP
40
60
B0
70
ENDCHAR
STARTCHAR uni0364
ENCODING 868
SWIDTH 480 0
DWIDTH 8 0
BBX 3 4 2 8
BITMAP
40
E0
C0
40
ENDCHAR
STARTCHAR uni0365
ENCODING 869
SWIDTH 480 0
DWIDTH 8 0
BBX 2 4 2 7
BITMAP
C0
40
40
C0
ENDCHAR
STARTCHAR uni0366
ENCODING 870
SWIDTH 480 0
DWIDTH 8 0
BBX 3 3 2 9
BITMAP
40
A0
40
ENDCHAR
STARTCHAR uni0367
ENCODING 871
SWIDTH 480 0
DWIDTH 8 0
BBX 4 4 2 8
BITMAP
A0
B0
70
20
ENDCHAR
STARTCHAR uni0368
ENCODING 872
SWIDTH 480 0
DWIDTH 8 0
BBX 2 3 2 9
BITMAP
40
80
40
ENDCHAR
STARTCHAR uni0369
ENCODING 873
SWIDTH 480 0
DWIDTH 8 0
BBX 4 5 2 7
BITMAP
30
70
F0
F0
60
ENDCHAR
STARTCHAR uni036A
ENCODING 874
SWIDTH 480 0
DWIDTH 8 0
BBX 4 5 2 7
BITMAP
80
C0
E0
B0
80
ENDCHAR
STARTCHAR uni036B
ENCODING 875
SWIDTH 480 0
DWIDTH 8 0
BBX 4 3 2 9
BITMAP
E0
F0
D0
ENDCHAR
STARTCHAR uni036C
ENCODING 876
SWIDTH 480 0
DWIDTH 8 0
BBX 2 3 2 9
BITMAP
C0
C0
80
ENDCHAR
STARTCHAR uni036D
ENCODING 877
SWIDTH 480 0
DWIDTH 8 0
BBX 3 5 2 7
BITMAP
40
C0
40
40
20
ENDCHAR
STARTCHAR uni036E
ENCODING 878
SWIDTH 480 0
DWIDTH 8 0
BBX 3 3 2 9
BITMAP
A0
E0
40
ENDCHAR
STARTCHAR uni036F
ENCODING 879
SWIDTH 480 0
DWIDTH 8 0
BBX 3 3 2 9
BITMAP
A0
40
A0
ENDCHAR
STARTCHAR uni0370
ENCODING 880
SWIDTH 480 0
DWIDTH 8 0
BBX 4 10 1 1
BITMAP
C0
C0
C0
C0
F0
C0
C0
C0
C0
C0
ENDCHAR
STARTCHAR uni0371
ENCODING 881
SWIDTH 480 0
DWIDTH 8 0
BBX 5 6 0 0
BITMAP
E0
E0
78
60
60
60
ENDCHAR
STARTCHAR uni0372
ENCODING 882
SWIDTH 480 0
DWIDTH 8 0
BBX 7 10 1 1
BITMAP
FC
B6
B6
30
30
30
30
30
30
30
ENDCHAR
STARTCHAR uni0373
ENCODING 883
SWIDTH 480 0
DWIDTH 8 0
BBX 5 10 1 1
BITMAP
78
F8
E8
60
60
60
60
60
60
60
ENDCHAR
STARTCHAR uni0374
ENCODING 884
SWIDTH 480 0
DWIDTH 8 0
BBX 2 2 3 8
BITMAP
40
C0
ENDCHAR
STARTCHAR uni0375
ENCODING 885
SWIDTH 480 0
DWIDTH 8 0
BBX 3 2 2 -1
BITMAP
60
C0
ENDCHAR
STARTCHAR uni0376
ENCODING 886
SWIDTH 480 0
DWIDTH 8 0
BBX 7 10 1 1
BITMAP
C4
CE
DE
DE
DE
FE
FE
EE
CE
CE
ENDCHAR
STARTCHAR uni0377
ENCODING 887
SWIDTH 480 0
DWIDTH 8 0
BBX 7 6 1 0
BITMAP
CE
DE
DE
FE
EE
C6
ENDCHAR
STARTCHAR uni037A
ENCODING 890
SWIDTH 480 0
DWIDTH 8 0
BBX 2 2 2 -2
BITMAP
C0
C0
ENDCHAR
STARTCHAR uni037B
ENCODING 891
SWIDTH 480 0
DWIDTH 8 0
BBX 7 6 1 0
BITMAP
78
CC
0E
0E
CC
78
ENDCHAR
STARTCHAR uni037C
ENCODING 892
SWIDTH 480 0
DWIDTH 8 0
BBX 6 6 1 0
BITMAP
7C
C4
D8
D8
C4
7C
ENDCHAR
STARTCHAR uni037D
ENCODING 893
SWIDTH 480 0
DWIDTH 8 0
BBX 7 6 1 0
BITMAP
78
CC
2E
2E
CC
78
ENDCHAR
STARTCHAR uni037E
ENCODING 894
SWIDTH 480 0
DWIDTH 8 0
BBX 4 7 2 0
BITMAP
70
60
00
00
60
70
C0
ENDCHAR
STARTCHAR tonos
ENCODING 900
SWIDTH 480 0
DWIDTH 8 0
BBX 2 2 3 8
BITMAP
40
C0
ENDCHAR
STARTCHAR dieresistonos
ENCODING 901
SWIDTH 480 0
DWIDTH 8 0
BBX 6 2 1 8
BITMAP
18
FC
ENDCHAR
STARTCHAR Alphatonos
ENCODING 902
SWIDTH 480 0
DWIDTH 8 0
BBX 7 10 1 1
BITMAP
58
FC
7E
7E
7E
7E
7E
7E
7E
7E
ENDCHAR
STARTCHAR anoteleia
ENCODING 903
SWIDTH 480 0
DWIDTH 8 0
BBX 2 2 3 5
BITMAP
C0
C0
ENDCHAR
STARTCHAR Epsilontonos
ENCODING 904
SWIDTH 480 0
DWIDTH 8 0
BBX 7 10 0 1
BITMAP
7E
F0
30
30
3C
38
30
30
30
3E
ENDCHAR
STARTCHAR Etatonos
ENCODING 905
SWIDTH 480 0
DWIDTH 8 0
BBX 7 10 0 1
BITMAP
76
F6
36
36
3E
3E
36
36
36
36
ENDCHAR
STARTCHAR Iotatonos
ENCODING 906
SWIDTH 480 0
DWIDTH 8 0
BBX 7 10 0 1
BITMAP
7E
DC
08
08
08
08
08
08
08
3E
ENDCHAR
STARTCHAR Omicrontonos
ENCODING 908
SWIDTH 480 0
DWIDTH 8 0
BBX 7 10 0 1
BITMAP
48
DC
36
36
36
36
36
36
1C
1C
ENDCHAR
STARTCHAR Upsilontonos
ENCODING 910
SWIDTH 480 0
DWIDTH 8 0
BBX 7 10 0 1
BITMAP
76
F6
36
36
1C
1C
08
08
08
08
ENDCHAR
STARTCHAR Omegatonos
ENCODING 911
SWIDTH 480 0
DWIDTH 8 0
BBX 7 10 1 1
BITMAP
58
FC
7E
7E
7E
7E
7E
3C
18
3C
ENDCHAR
STARTCHAR iotadieresistonos
ENCODING 912
SWIDTH 480 0
DWIDTH 8 0
BBX 6 10 1 1
BITMAP
18
FC
00
00
10
30
30
30
34
1C
ENDCHAR
STARTCHAR Alpha
ENCODING 913
SWIDTH 480 0
DWIDTH 8 0
BBX 7 10 1 1
BITMAP
30
78
48
CC
CE
FE
FE
CE
CE
CE
ENDCHAR
STARTCHAR Beta
ENCODING 914
SWIDTH 480 0
DWIDTH 8 0
BBX 7 10 1 1
BITMAP
F0
D8
C8
C8
F8
C8
CC
CE
CC
F8
ENDCHAR
STARTCHAR Gamma
ENCODING 915
SWIDTH 480 0
DWIDTH 8 0
BBX 6 10 1 1
BITMAP
FC
C0
C0
C0
C0
C0
C0
C0
C0
C0
ENDCHAR
STARTCHAR Delta
ENCODING 916
SWIDTH 480 0
DWIDTH 8 0
BBX 7 10 1 1
BITMAP
30
30
38
78
78
48
48
CC
CE
FE
ENDCHAR
STARTCHAR Epsilon
ENCODING 917
SWIDTH 480 0
DWIDTH 8 0
BBX 6 10 1 1
BITMAP
FC
C0
C0
C0
F0
C0
C0
C0
C0
FC
ENDCHAR
STARTCHAR Zeta
ENCODING 918
SWIDTH 480 0
DWIDTH 8 0
BBX 7 10 1 1
BITMAP
FC
0E
0C
18
18
30
70
60
C0
FC
ENDCHAR
STARTCHAR Eta
ENCODING 919
SWIDTH 480 0
DWIDTH 8 0
BBX 7 10 1 1
BITMAP
C4
CE
CE
CE
FE
CE
CE
CE
CE
CE
ENDCHAR
STARTCHAR Theta
ENCODING 920
SWIDTH 480 0
DWIDTH 8 0
BBX 7 10 1 1
BITMAP
38
6C
CE
CE
FE
CE
CE
CE
4C
78
ENDCHAR
STARTCHAR Iota
ENCODING 921
SWIDTH 480 0
DWIDTH 8 0
BBX 6 10 1 1
BITMAP
FC
30
30
30
30
30
30
30
30
FC
ENDCHAR
STARTCHAR Kappa
ENCODING 922
SWIDTH 480 0
DWIDTH 8 0
BBX 7 10 1 1
BITMAP
C4
CC
C8
D8
F8
D8
D8
C8
CC
CE
ENDCHAR
STARTCHAR Lambda
ENCODING 923
SWIDTH 480 0
DWIDTH 8 0
BBX 7 10 1 1
BITMAP
30
30
38
78
78
48
48
CC
CE
CE
ENDCHAR
STARTCHAR Mu
ENCODING 924
SWIDTH 480 0
DWIDTH 8 0
BBX 7 10 1 1
BITMAP
C4
CE
CE
FE
FE
FE
FE
CE
CE
CE
ENDCHAR
STARTCHAR Nu
ENCODING 925
SWIDTH 480 0
DWIDTH 8 0
BBX 7 10 1 1
BITMAP
C4
CE
EE
FE
FE
DE
DE
CE
CE
CE
ENDCHAR
STARTCHAR Xi
ENCODING 926
SWIDTH 480 0
DWIDTH 8 0
BBX 6 10 1 1
BITMAP
FC
00
00
00
78
00
00
00
00
FC
ENDCHAR
STARTCHAR Omicron
ENCODING 927
SWIDTH 480 0
DWIDTH 8 0
BBX 7 10 1 1
BITMAP
38
6C
CE
CE
CE
CE
CE
CE
4C
78
ENDCHAR
STARTCHAR Pi
ENCODING 928
SWIDTH 480 0
DWIDTH 8 0
BBX 6 10 1 1
BITMAP
FC
6C
48
48
48
48
48
48
48
48
ENDCHAR
STARTCHAR Rho
ENCODING 929
SWIDTH 480 0
DWIDTH 8 0
BBX 7 10 1 1
BITMAP
F8
CC
CE
CE
CC
F8
F0
C0
C0
C0
ENDCHAR
STARTCHAR Sigma
ENCODING 931
SWIDTH 480 0
DWIDTH 8 0
BBX 6 10 1 1
BITMAP
FC
E0
60
30
18
10
30
60
C0
FC
ENDCHAR
STARTCHAR Tau
ENCODING 932
SWIDTH 480 0
DWIDTH 8 0
BBX 6 10 1 1
BITMAP
FC
30
30
30
30
30
30
30
30
30
ENDCHAR
STARTCHAR Upsilon
ENCODING 933
SWIDTH 480 0
DWIDTH 8 0
BBX 6 10 1 1
BITMAP
C4
CC
48
78
38
30
30
30
30
30
ENDCHAR
STARTCHAR Phi
ENCODING 934
SWIDTH 480 0
DWIDTH 8 0
BBX 7 10 1 1
BITMAP
30
78
FC
FE
FE
FE
FE
FC
38
30
ENDCHAR
STARTCHAR Chi
ENCODING 935
SWIDTH 480 0
DWIDTH 8 0
BBX 7 10 1 1
BITMAP
C4
CC
48
78
38
38
78
68
CC
CE
ENDCHAR
STARTCHAR Psi
ENCODING 936
SWIDTH 480 0
DWIDTH 8 0
BBX 7 10 1 1
BITMAP
FC
FE
FE
FE
FE
FE
7C
30
30
30
ENDCHAR
STARTCHAR Omega
ENCODING 937
SWIDTH 480 0
DWIDTH 8 0
BBX 7 10 1 1
BITMAP
38
6C
CE
CE
CE
CE
CE
CC
48
CC
ENDCHAR
STARTCHAR Iotadieresis
ENCODING 938
SWIDTH 480 0
DWIDTH 8 0
BBX 6 11 1 1
BITMAP
C4
C4
FC
7C
30
30
30
30
30
30
7C
ENDCHAR
STARTCHAR Upsilondieresis
ENCODING 939
SWIDTH 480 0
DWIDTH 8 0
BBX 6 11 1 1
BITMAP
C4
C4
84
4C
78
78
30
30
30
30
30
ENDCHAR
STARTCHAR alphatonos
ENCODING 940
SWIDTH 480 0
DWIDTH 8 0
BBX 7 10 1 1
BITMAP
08
18
00
00
7C
CE
CE
CE
DE
7E
ENDCHAR
STARTCHAR epsilontonos
ENCODING 941
SWIDTH 480 0
DWIDTH 8 0
BBX 6 10 1 1
BITMAP
08
18
00
00
7C
C0
78
C0
C4
7C
ENDCHAR
STARTCHAR etatonos
ENCODING 942
SWIDTH 480 0
DWIDTH 8 0
BBX 7 13 1 -2
BITMAP
08
18
00
00
F8
CC
CE
CE
CE
CE
0E
0E
0E
ENDCHAR
STARTCHAR iotatonos
ENCODING 943
SWIDTH 480 0
DWIDTH 8 0
BBX 4 10 2 1
BITMAP
20
60
00
00
C0
C0
C0
C0
D0
70
ENDCHAR
STARTCHAR upsilondieresistonos
ENCODING 944
SWIDTH 480 0
DWIDTH 8 0
BBX 7 10 1 1
BITMAP
18
FC
00
00
CC
CE
CE
CE
4C
78
ENDCHAR
STARTCHAR alpha
ENCODING 945
SWIDTH 480 0
DWIDTH 8 0
BBX 7 6 1 0
BITMAP
7E
CE
CE
CE
DE
7E
ENDCHAR
STARTCHAR beta
ENCODING 946
SWIDTH 480 0
DWIDTH 8 0
BBX 7 13 1 -2
BITMAP
30
78
C8
D8
F8
CC
CE
CE
EC
F8
C0
C0
C0
ENDCHAR
STARTCHAR gamma
ENCODING 947
SWIDTH 480 0
DWIDTH 8 0
BBX 7 9 1 -3
BITMAP
CE
CC
4C
68
78
30
30
30
30
ENDCHAR
STARTCHAR delta
ENCODING 948
SWIDTH 480 0
DWIDTH 8 0
BBX 7 10 1 1
BITMAP
78
E8
60
30
78
CC
CE
CE
4C
78
ENDCHAR
STARTCHAR epsilon
ENCODING 949
SWIDTH 480 0
DWIDTH 8 0
BBX 6 6 1 0
BITMAP
7C
C4
78
C0
C4
7C
ENDCHAR
STARTCHAR zeta
ENCODING 950
SWIDTH 480 0
DWIDTH 8 0
BBX 6 13 1 -2
BITMAP
FC
30
60
40
C0
C0
C0
C0
40
78
0C
1C
18
ENDCHAR
STARTCHAR eta
ENCODING 951
SWIDTH 480 0
DWIDTH 8 0
BBX 7 9 1 -3
BITMAP
F8
CC
CE
CE
CE
CE
0E
0E
0E
ENDCHAR
STARTCHAR theta
ENCODING 952
SWIDTH 480 0
DWIDTH 8 0
BBX 5 10 1 1
BITMAP
30
78
C8
C8
F8
C8
C8
C8
58
70
ENDCHAR
STARTCHAR iota
ENCODING 953
SWIDTH 480 0
DWIDTH 8 0
BBX 4 6 2 0
BITMAP
C0
C0
C0
C0
D0
70
ENDCHAR
STARTCHAR kappa
ENCODING 954
SWIDTH 480 0
DWIDTH 8 0
BBX 6 6 1 0
BITMAP
CC
D8
F0
F0
D8
CC
ENDCHAR
STARTCHAR lambda
ENCODING 955
SWIDTH 480 0
DWIDTH 8 0
BBX 7 10 1 1
BITMAP
38
6C
0E
0E
7E
CE
CE
CE
CE
CE
ENDCHAR
STARTCHAR mu
ENCODING 956
SWIDTH 480 0
DWIDTH 8 0
BBX 7 9 1 -3
BITMAP
CE
CE
CE
CE
CE
FE
C0
C0
C0
ENDCHAR
STARTCHAR nu
ENCODING 957
SWIDTH 480 0
DWIDTH 8 0
BBX 7 6 1 0
BITMAP
CE
CC
48
78
38
30
ENDCHAR
STARTCHAR xi
ENCODING 958
SWIDTH 480 0
DWIDTH 8 0
BBX 6 13 1 -2
BITMAP
FC
30
60
40
38
30
60
C0
C0
78
0C
1C
18
ENDCHAR
STARTCHAR omicron
ENCODING 959
SWIDTH 480 0
DWIDTH 8 0
BBX 7 6 1 0
BITMAP
78
CC
CE
CE
CC
78
ENDCHAR
STARTCHAR pi
ENCODING 960
SWIDTH 480 0
DWIDTH 8 0
BBX 6 6 1 0
BITMAP
FC
6C
48
48
48
48
ENDCHAR
STARTCHAR rho
ENCODING 961
SWIDTH 480 0
DWIDTH 8 0
BBX 7 9 1 -3
BITMAP
78
CC
CE
CE
CC
F8
C0
C0
C0
ENDCHAR
STARTCHAR sigma1
ENCODING 962
SWIDTH 480 0
DWIDTH 8 0
BBX 7 8 1 -1
BITMAP
7C
C4
C0
C0
C0
78
0E
1C
ENDCHAR
STARTCHAR sigma
ENCODING 963
SWIDTH 480 0
DWIDTH 8 0
BBX 7 6 1 0
BITMAP
7C
DC
CC
CE
CC
78
ENDCHAR
STARTCHAR tau
ENCODING 964
SWIDTH 480 0
DWIDTH 8 0
BBX 6 6 1 0
BITMAP
FC
30
30
30
34
1C
ENDCHAR
STARTCHAR upsilon
ENCODING 965
SWIDTH 480 0
DWIDTH 8 0
BBX 7 6 1 0
BITMAP
CE
CE
CE
CE
CC
78
ENDCHAR
STARTCHAR phi
ENCODING 966
SWIDTH 480 0
DWIDTH 8 0
BBX 7 9 1 -3
BITMAP
7C
FC
FE
FE
FC
7C
30
30
30
ENDCHAR
STARTCHAR chi
ENCODING 967
SWIDTH 480 0
DWIDTH 8 0
BBX 7 9 1 -3
BITMAP
CE
CC
48
38
30
38
48
CC
CE
ENDCHAR
STARTCHAR psi
ENCODING 968
SWIDTH 480 0
DWIDTH 8 0
BBX 7 9 1 -3
BITMAP
FE
FE
FE
FE
FC
7C
30
30
30
ENDCHAR
STARTCHAR omega
ENCODING 969
SWIDTH 480 0
DWIDTH 8 0
BBX 7 6 1 0
BITMAP
CE
FE
FE
FE
FC
6C
ENDCHAR
STARTCHAR iotadieresis
ENCODING 970
SWIDTH 480 0
DWIDTH 8 0
BBX 7 9 1 0
BITMAP
CE
C4
00
30
30
30
30
34
1C
ENDCHAR
STARTCHAR upsilondieresis
ENCODING 971
SWIDTH 480 0
DWIDTH 8 0
BBX 7 9 1 0
BITMAP
CE
C4
00
CE
CE
CE
CE
CC
78
ENDCHAR
STARTCHAR omicrontonos
ENCODING 972
SWIDTH 480 0
DWIDTH 8 0
BBX 7 10 1 1
BITMAP
08
18
00
00
78
CC
CE
CE
4C
78
ENDCHAR
STARTCHAR upsilontonos
ENCODING 973
SWIDTH 480 0
DWIDTH 8 0
BBX 7 10 1 1
BITMAP
08
18
00
00
CC
CE
CE
CE
4C
78
ENDCHAR
STARTCHAR omegatonos
ENCODING 974
SWIDTH 480 0
DWIDTH 8 0
BBX 7 10 1 1
BITMAP
08
18
00
00
DC
FE
FE
FE
FE
7C
ENDCHAR
STARTCHAR uni03CF
ENCODING 975
SWIDTH 480 0
DWIDTH 8 0
BBX 7 13 1 -2
BITMAP
C4
CC
C8
D8
F8
D8
D8
C8
CC
CE
1C
38
10
ENDCHAR
STARTCHAR uni03D0
ENCODING 976
SWIDTH 480 0
DWIDTH 8 0
BBX 7 10 1 1
BITMAP
30
78
C8
D8
F8
CC
CE
CE
4C
78
ENDCHAR
STARTCHAR theta1
ENCODING 977
SWIDTH 480 0
DWIDTH 8 0
BBX 6 10 0 1
BITMAP
78
6C
4C
6C
BC
CC
4C
4C
6C
38
ENDCHAR
STARTCHAR Upsilon1
ENCODING 978
SWIDTH 480 0
DWIDTH 8 0
BBX 7 10 1 1
BITMAP
8C
DA
70
30
30
30
30
30
30
30
ENDCHAR
STARTCHAR uni03D3
ENCODING 979
SWIDTH 480 0
DWIDTH 8 0
BBX 8 10 0 1
BITMAP
46
6D
38
D8
98
18
18
18
18
18
ENDCHAR
STARTCHAR uni03D4
ENCODING 980
SWIDTH 480 0
DWIDTH 8 0
BBX 7 11 0 0
BITMAP
46
46
46
EC
3C
38
18
18
18
18
10
ENDCHAR
STARTCHAR phi1
ENCODING 981
SWIDTH 480 0
DWIDTH 8 0
BBX 7 13 1 -2
BITMAP
30
30
30
30
7C
FE
FE
FE
FE
7C
30
30
30
ENDCHAR
STARTCHAR omega1
ENCODING 982
SWIDTH 480 0
DWIDTH 8 0
BBX 8 6 0 0
BITMAP
FF
FE
5E
5E
7E
6C
ENDCHAR
STARTCHAR uni03D7
ENCODING 983
SWIDTH 480 0
DWIDTH 8 0
BBX 7 13 1 -2
BITMAP
40
30
00
00
C4
6C
78
70
CC
8E
0C
18
30
ENDCHAR
STARTCHAR uni03D8
ENCODING 984
SWIDTH 480 0
DWIDTH 8 0
BBX 7 13 1 -2
BITMAP
38
6C
CE
CE
CE
CE
CE
CE
4C
78
30
30
10
ENDCHAR
STARTCHAR uni03D9
ENCODING 985
SWIDTH 480 0
DWIDTH 8 0
BBX 7 8 1 -1
BITMAP
78
CC
CE
CE
CC
78
30
30
ENDCHAR
STARTCHAR uni03DA
ENCODING 986
SWIDTH 480 0
DWIDTH 8 0
BBX 7 13 1 -2
BITMAP
38
64
C0
C0
C0
C0
C0
C0
78
3C
0E
1C
08
ENDCHAR
STARTCHAR uni03DB
ENCODING 987
SWIDTH 480 0
DWIDTH 8 0
BBX 6 10 1 -2
BITMAP
04
78
C0
C0
C0
40
78
0C
1C
08
ENDCHAR
STARTCHAR uni03DC
ENCODING 988
SWIDTH 480 0
DWIDTH 8 0
BBX 6 10 1 1
BITMAP
FC
C0
C0
C0
F0
C0
C0
C0
C0
C0
ENDCHAR
STARTCHAR uni03DD
ENCODING 989
SWIDTH 480 0
DWIDTH 8 0
BBX 5 9 1 -3
BITMAP
F8
C0
C0
F8
C0
C0
C0
C0
C0
ENDCHAR
STARTCHAR uni03DE
ENCODING 990
SWIDTH 480 0
DWIDTH 8 0
BBX 8 10 0 1
BITMAP
C0
C0
46
4E
5E
7E
66
46
06
03
ENDCHAR
STARTCHAR uni03DF
ENCODING 991
SWIDTH 480 0
DWIDTH 8 0
BBX 6 13 1 -2
BITMAP
30
30
70
60
40
C0
FC
0C
08
18
18
30
10
ENDCHAR
STARTCHAR uni03E0
ENCODING 992
SWIDTH 480 0
DWIDTH 8 0
BBX 7 10 1 1
BITMAP
30
30
38
78
78
48
48
DC
FE
FE
ENDCHAR
STARTCHAR uni03E1
ENCODING 993
SWIDTH 480 0
DWIDTH 8 0
BBX 7 12 0 -1
BITMAP
C0
60
30
18
18
2C
6C
1C
26
06
06
06
ENDCHAR
STARTCHAR uni03E2
ENCODING 994
SWIDTH 480 0
DWIDTH 8 0
BBX 7 11 0 0
BITMAP
FE
FE
5E
5E
5E
5E
5E
7E
0E
7C
60
ENDCHAR
STARTCHAR uni03E3
ENCODING 995
SWIDTH 480 0
DWIDTH 8 0
BBX 7 8 1 -1
BITMAP
FE
FE
FE
FE
7C
7C
C0
C0
ENDCHAR
STARTCHAR uni03E4
ENCODING 996
SWIDTH 480 0
DWIDTH 8 0
BBX 7 10 1 1
BITMAP
24
7E
CE
CE
CE
7E
3E
0E
0E
0E
ENDCHAR
STARTCHAR uni03E5
ENCODING 997
SWIDTH 480 0
DWIDTH 8 0
BBX 7 6 1 0
BITMAP
7E
FE
CE
6E
3E
0E
ENDCHAR
STARTCHAR uni03E6
ENCODING 998
SWIDTH 480 0
DWIDTH 8 0
BBX 7 12 1 -1
BITMAP
E0
60
40
40
78
6C
4E
4E
4E
EE
7C
C0
ENDCHAR
STARTCHAR uni03E7
ENCODING 999
SWIDTH 480 0
DWIDTH 8 0
BBX 7 7 1 1
BITMAP
30
7C
7E
2E
6E
FE
DC
ENDCHAR
STARTCHAR uni03E8
ENCODING 1000
SWIDTH 480 0
DWIDTH 8 0
BBX 7 10 1 1
BITMAP
38
6C
CE
4E
3C
60
C8
CC
4C
78
ENDCHAR
STARTCHAR uni03E9
ENCODING 1001
SWIDTH 480 0
DWIDTH 8 0
BBX 7 8 1 -1
BITMAP
7C
CC
4E
08
38
E0
38
1C
ENDCHAR
STARTCHAR uni03EA
ENCODING 1002
SWIDTH 480 0
DWIDTH 8 0
BBX 8 10 0 1
BITMAP
C7
ED
6C
3C
38
38
38
6C
66
7E
ENDCHAR
STARTCHAR uni03EB
ENCODING 1003
SWIDTH 480 0
DWIDTH 8 0
BBX 8 6 0 0
BITMAP
E7
BC
18
18
3C
7E
ENDCHAR
STARTCHAR uni03EC
ENCODING 1004
SWIDTH 480 0
DWIDTH 8 0
BBX 7 11 1 0
BITMAP
0C
78
C0
DC
DC
CE
CE
CE
CE
68
38
ENDCHAR
STARTCHAR uni03ED
ENCODING 1005
SWIDTH 480 0
DWIDTH 8 0
BBX 7 7 1 1
BITMAP
04
78
D8
FC
CE
CE
7C
ENDCHAR
STARTCHAR uni03EE
ENCODING 1006
SWIDTH 480 0
DWIDTH 8 0
BBX 6 10 1 1
BITMAP
38
30
38
FC
B4
30
30
30
30
38
ENDCHAR
STARTCHAR uni03EF
ENCODING 1007
SWIDTH 480 0
DWIDTH 8 0
BBX 6 6 1 0
BITMAP
38
7C
F8
30
30
30
ENDCHAR
STARTCHAR uni03F0
ENCODING 1008
SWIDTH 480 0
DWIDTH 8 0
BBX 7 6 1 0
BITMAP
C6
6C
78
70
D8
8C
ENDCHAR
STARTCHAR uni03F1
ENCODING 1009
SWIDTH 480 0
DWIDTH 8 0
BBX 7 9 1 -3
BITMAP
78
CC
CE
CE
CC
F8
C0
C0
78
ENDCHAR
STARTCHAR uni03F2
ENCODING 1010
SWIDTH 480 0
DWIDTH 8 0
BBX 6 6 1 0
BITMAP
7C
C0
C0
C0
C0
7C
ENDCHAR
STARTCHAR uni03F3
ENCODING 1011
SWIDTH 480 0
DWIDTH 8 0
BBX 5 11 1 -2
BITMAP
08
08
18
18
08
08
08
08
88
C8
F8
ENDCHAR
STARTCHAR uni03F4
ENCODING 1012
SWIDTH 480 0
DWIDTH 8 0
BBX 7 10 1 1
BITMAP
38
6C
CE
CE
FE
CE
CE
CE
4C
78
ENDCHAR
STARTCHAR uni03F5
ENCODING 1013
SWIDTH 480 0
DWIDTH 8 0
BBX 5 6 1 0
BITMAP
78
E0
F8
C0
C0
78
ENDCHAR
STARTCHAR uni03F6
ENCODING 1014
SWIDTH 480 0
DWIDTH 8 0
BBX 5 6 1 0
BITMAP
F0
18
08
78
18
F0
ENDCHAR
STARTCHAR uni03F7
ENCODING 1015
SWIDTH 480 0
DWIDTH 8 0
BBX 7 10 1 1
BITMAP
C0
F0
C8
CC
CE
CE
CE
F8
C0
C0
ENDCHAR
STARTCHAR uni03F8
ENCODING 1016
SWIDTH 480 0
DWIDTH 8 0
BBX 7 12 1 -3
BITMAP
C0
C0
C0
F8
CC
CE
CE
CC
F8
C0
C0
C0
ENDCHAR
STARTCHAR uni03F9
ENCODING 1017
SWIDTH 480 0
DWIDTH 8 0
BBX 6 10 1 1
BITMAP
38
64
C0
C0
C0
C0
C0
C0
40
78
ENDCHAR
STARTCHAR uni03FA
ENCODING 1018
SWIDTH 480 0
DWIDTH 8 0
BBX 7 10 1 1
BITMAP
C4
FE
FE
FE
CE
CE
CE
CE
CE
CE
ENDCHAR
STARTCHAR uni03FB
ENCODING 1019
SWIDTH 480 0
DWIDTH 8 0
BBX 7 9 1 -3
BITMAP
CE
EE
FE
FE
CE
CE
C0
C0
C0
ENDCHAR
STARTCHAR uni03FC
ENCODING 1020
SWIDTH 480 0
DWIDTH 8 0
BBX 7 9 0 -3
BITMAP
3C
66
46
46
66
7C
E0
F0
40
ENDCHAR
STARTCHAR uni03FD
ENCODING 1021
SWIDTH 480 0
DWIDTH 8 0
BBX 6 10 2 1
BITMAP
70
D8
1C
1C
1C
1C
1C
1C
98
F0
ENDCHAR
STARTCHAR uni03FE
ENCODING 1022
SWIDTH 480 0
DWIDTH 8 0
BBX 6 10 1 1
BITMAP
38
6C
C0
C0
C0
D8
C0
C4
4C
78
ENDCHAR
STARTCHAR uni03FF
ENCODING 1023
SWIDTH 480 0
DWIDTH 8 0
BBX 6 10 2 1
BITMAP
70
D8
1C
1C
5C
FC
5C
1C
98
F0
ENDCHAR
STARTCHAR uni0400
ENCODING 1024
SWIDTH 480 0
DWIDTH 8 0
BBX 6 12 1 0
BITMAP
70
10
FC
C0
C0
C0
C0
F8
C0
C0
C0
FC
ENDCHAR
STARTCHAR afii10023
ENCODING 1025
SWIDTH 480 0
DWIDTH 8 0
BBX 6 12 1 0
BITMAP
48
6C
FC
C0
C0
C0
C0
F8
C0
C0
C0
FC
ENDCHAR
STARTCHAR afii10051
ENCODING 1026
SWIDTH 480 0
DWIDTH 8 0
BBX 7 11 0 0
BITMAP
FC
30
30
3C
3E
36
36
36
36
36
06
ENDCHAR
STARTCHAR afii10052
ENCODING 1027
SWIDTH 480 0
DWIDTH 8 0
BBX 6 12 1 0
BITMAP
38
20
FC
C0
C0
C0
C0
C0
C0
C0
C0
C0
ENDCHAR
STARTCHAR afii10053
ENCODING 1028
SWIDTH 480 0
DWIDTH 8 0
BBX 6 10 1 1
BITMAP
38
6C
C0
C0
F8
C0
C0
C4
4C
78
ENDCHAR
STARTCHAR afii10054
ENCODING 1029
SWIDTH 480 0
DWIDTH 8 0
BBX 7 10 1 1
BITMAP
38
6C
C0
C0
70
08
0C
0E
4C
78
ENDCHAR
STARTCHAR afii10055
ENCODING 1030
SWIDTH 480 0
DWIDTH 8 0
BBX 6 10 1 1
BITMAP
FC
30
30
30
30
30
30
30
30
FC
ENDCHAR
STARTCHAR afii10056
ENCODING 1031
SWIDTH 480 0
DWIDTH 8 0
BBX 6 12 1 0
BITMAP
48
6C
FC
30
30
30
30
30
30
30
30
FC
ENDCHAR
STARTCHAR afii10057
ENCODING 1032
SWIDTH 480 0
DWIDTH 8 0
BBX 7 10 1 1
BITMAP
3C
0E
0E
0E
0E
0E
0E
CE
4C
78
ENDCHAR
STARTCHAR afii10058
ENCODING 1033
SWIDTH 480 0
DWIDTH 8 0
BBX 7 10 0 1
BITMAP
78
78
58
58
5C
5E
5E
5E
5C
DC
ENDCHAR
STARTCHAR afii10059
ENCODING 1034
SWIDTH 480 0
DWIDTH 8 0
BBX 7 10 1 1
BITMAP
F0
F0
F0
F0
F8
F8
FC
FE
FC
F8
ENDCHAR
STARTCHAR afii10060
ENCODING 1035
SWIDTH 480 0
DWIDTH 8 0
BBX 7 10 0 1
BITMAP
FC
30
30
3C
3E
36
36
36
36
36
ENDCHAR
STARTCHAR afii10061
ENCODING 1036
SWIDTH 480 0
DWIDTH 8 0
BBX 7 12 1 0
BITMAP
08
18
C4
CC
CC
D8
D8
F8
D8
C8
CC
CE
ENDCHAR
STARTCHAR uni040D
ENCODING 1037
SWIDTH 480 0
DWIDTH 8 0
BBX 7 12 1 0
BITMAP
30
18
CC
CE
CE
CE
DE
FE
FE
CE
CE
CE
ENDCHAR
STARTCHAR afii10062
ENCODING 1038
SWIDTH 480 0
DWIDTH 8 0
BBX 7 12 1 0
BITMAP
68
38
C4
CE
CE
CE
CE
7E
0E
0E
CC
7C
ENDCHAR
STARTCHAR afii10145
ENCODING 1039
SWIDTH 480 0
DWIDTH 8 0
BBX 7 11 1 0
BITMAP
C4
CE
CE
CE
CE
CE
CE
CE
CE
FE
30
ENDCHAR
STARTCHAR afii10017
ENCODING 1040
SWIDTH 480 0
DWIDTH 8 0
BBX 7 10 1 1
BITMAP
30
78
48
CC
CE
FE
FE
CE
CE
CE
ENDCHAR
STARTCHAR afii10018
ENCODING 1041
SWIDTH 480 0
DWIDTH 8 0
BBX 7 10 1 1
BITMAP
F8
C0
C0
C0
F0
C8
CC
CE
CC
F8
ENDCHAR
STARTCHAR afii10019
ENCODING 1042
SWIDTH 480 0
DWIDTH 8 0
BBX 7 10 1 1
BITMAP
F0
D8
C8
C8
F8
C8
CC
CE
CC
F8
ENDCHAR
STARTCHAR afii10020
ENCODING 1043
SWIDTH 480 0
DWIDTH 8 0
BBX 6 10 1 1
BITMAP
FC
C0
C0
C0
C0
C0
C0
C0
C0
C0
ENDCHAR
STARTCHAR afii10021
ENCODING 1044
SWIDTH 480 0
DWIDTH 8 0
BBX 7 11 1 0
BITMAP
38
68
48
48
48
48
48
48
48
FC
CE
ENDCHAR
STARTCHAR afii10022
ENCODING 1045
SWIDTH 480 0
DWIDTH 8 0
BBX 6 10 1 1
BITMAP
FC
C0
C0
C0
F0
C0
C0
C0
C0
FC
ENDCHAR
STARTCHAR afii10024
ENCODING 1046
SWIDTH 480 0
DWIDTH 8 0
BBX 7 10 1 1
BITMAP
FC
FE
FE
FE
7C
78
FC
FE
FE
FE
ENDCHAR
STARTCHAR afii10025
ENCODING 1047
SWIDTH 480 0
DWIDTH 8 0
BBX 7 10 1 1
BITMAP
38
6C
CE
0E
1C
08
0C
CE
4C
78
ENDCHAR
STARTCHAR afii10026
ENCODING 1048
SWIDTH 480 0
DWIDTH 8 0
BBX 7 10 1 1
BITMAP
C4
CE
CE
CE
DE
FE
FE
EE
CE
CE
ENDCHAR
STARTCHAR afii10027
ENCODING 1049
SWIDTH 480 0
DWIDTH 8 0
BBX 7 12 1 0
BITMAP
68
38
C4
CE
CE
CE
DE
FE
FE
CE
CE
CE
ENDCHAR
STARTCHAR afii10028
ENCODING 1050
SWIDTH 480 0
DWIDTH 8 0
BBX 7 10 1 1
BITMAP
C4
CC
C8
D8
F8
D8
D8
C8
CC
CE
ENDCHAR
STARTCHAR afii10029
ENCODING 1051
SWIDTH 480 0
DWIDTH 8 0
BBX 7 10 1 1
BITMAP
3C
6E
4E
4E
4E
4E
4E
4E
CE
CE
ENDCHAR
STARTCHAR afii10030
ENCODING 1052
SWIDTH 480 0
DWIDTH 8 0
BBX 7 10 1 1
BITMAP
C4
CE
CE
FE
FE
FE
FE
CE
CE
CE
ENDCHAR
STARTCHAR afii10031
ENCODING 1053
SWIDTH 480 0
DWIDTH 8 0
BBX 7 10 1 1
BITMAP
C4
CE
CE
CE
FE
CE
CE
CE
CE
CE
ENDCHAR
STARTCHAR afii10032
ENCODING 1054
SWIDTH 480 0
DWIDTH 8 0
BBX 7 10 1 1
BITMAP
38
6C
CE
CE
CE
CE
CE
CE
4C
78
ENDCHAR
STARTCHAR afii10033
ENCODING 1055
SWIDTH 480 0
DWIDTH 8 0
BBX 7 10 1 1
BITMAP
FC
CE
CE
CE
CE
CE
CE
CE
CE
CE
ENDCHAR
STARTCHAR afii10034
ENCODING 1056
SWIDTH 480 0
DWIDTH 8 0
BBX 7 10 1 1
BITMAP
F8
CC
CE
CE
CC
F8
F0
C0
C0
C0
ENDCHAR
STARTCHAR afii10035
ENCODING 1057
SWIDTH 480 0
DWIDTH 8 0
BBX 6 10 1 1
BITMAP
38
6C
C0
C0
C0
C0
C0
C4
4C
78
ENDCHAR
STARTCHAR afii10036
ENCODING 1058
SWIDTH 480 0
DWIDTH 8 0
BBX 6 10 1 1
BITMAP
FC
30
30
30
30
30
30
30
30
30
ENDCHAR
STARTCHAR afii10037
ENCODING 1059
SWIDTH 480 0
DWIDTH 8 0
BBX 7 10 1 1
BITMAP
C4
CE
CE
CE
FE
0E
0E
0E
8E
7C
ENDCHAR
STARTCHAR afii10038
ENCODING 1060
SWIDTH 480 0
DWIDTH 8 0
BBX 7 10 1 1
BITMAP
30
7C
FE
FE
FE
FE
FE
FC
38
30
ENDCHAR
STARTCHAR afii10039
ENCODING 1061
SWIDTH 480 0
DWIDTH 8 0
BBX 7 10 1 1
BITMAP
C4
CC
48
78
38
38
78
68
CC
CE
ENDCHAR
STARTCHAR afii10040
ENCODING 1062
SWIDTH 480 0
DWIDTH 8 0
BBX 7 11 1 0
BITMAP
C4
CE
CE
CE
CE
CE
CE
CE
CE
FE
06
ENDCHAR
STARTCHAR afii10041
ENCODING 1063
SWIDTH 480 0
DWIDTH 8 0
BBX 7 10 1 1
BITMAP
C4
CE
CE
CE
CE
7E
3E
0E
0E
0E
ENDCHAR
STARTCHAR afii10042
ENCODING 1064
SWIDTH 480 0
DWIDTH 8 0
BBX 7 10 1 1
BITMAP
FC
FE
FE
FE
FE
FE
FE
FE
FE
FE
ENDCHAR
STARTCHAR afii10043
ENCODING 1065
SWIDTH 480 0
DWIDTH 8 0
BBX 7 11 1 0
BITMAP
FC
FE
FE
FE
FE
FE
FE
FE
FE
FE
06
ENDCHAR
STARTCHAR afii10044
ENCODING 1066
SWIDTH 480 0
DWIDTH 8 0
BBX 7 10 1 1
BITMAP
E0
F0
70
70
7C
7E
7E
7E
7E
7C
ENDCHAR
STARTCHAR afii10045
ENCODING 1067
SWIDTH 480 0
DWIDTH 8 0
BBX 7 10 1 1
BITMAP
C4
CE
CE
CE
FE
FE
FE
FE
FE
FE
ENDCHAR
STARTCHAR afii10046
ENCODING 1068
SWIDTH 480 0
DWIDTH 8 0
BBX 7 10 1 1
BITMAP
C0
C0
C0
C0
F8
CC
CE
CE
CC
F8
ENDCHAR
STARTCHAR afii10047
ENCODING 1069
SWIDTH 480 0
DWIDTH 8 0
BBX 6 10 2 1
BITMAP
70
D8
1C
1C
FC
1C
1C
1C
98
F0
ENDCHAR
STARTCHAR afii10048
ENCODING 1070
SWIDTH 480 0
DWIDTH 8 0
BBX 7 10 1 1
BITMAP
D8
DC
FE
FE
FE
FE
FE
FE
FE
DC
ENDCHAR
STARTCHAR afii10049
ENCODING 1071
SWIDTH 480 0
DWIDTH 8 0
BBX 7 10 1 1
BITMAP
3C
6E
CE
CE
CE
7E
7E
6E
CE
CE
ENDCHAR
STARTCHAR afii10065
ENCODING 1072
SWIDTH 480 0
DWIDTH 8 0
BBX 7 6 1 0
BITMAP
7C
6C
7E
CE
CE
7E
ENDCHAR
STARTCHAR afii10066
ENCODING 1073
SWIDTH 480 0
DWIDTH 8 0
BBX 7 9 1 0
BITMAP
08
F8
C0
78
CC
CE
CE
CC
78
ENDCHAR
STARTCHAR afii10067
ENCODING 1074
SWIDTH 480 0
DWIDTH 8 0
BBX 7 6 1 0
BITMAP
F8
C8
F8
CE
CC
FC
ENDCHAR
STARTCHAR afii10068
ENCODING 1075
SWIDTH 480 0
DWIDTH 8 0
BBX 6 6 1 0
BITMAP
FC
C0
C0
C0
C0
C0
ENDCHAR
STARTCHAR afii10069
ENCODING 1076
SWIDTH 480 0
DWIDTH 8 0
BBX 7 8 1 -1
BITMAP
38
68
48
48
6C
FC
CE
C4
ENDCHAR
STARTCHAR afii10070
ENCODING 1077
SWIDTH 480 0
DWIDTH 8 0
BBX 7 6 1 0
BITMAP
78
EC
FE
C0
C4
7C
ENDCHAR
STARTCHAR afii10072
ENCODING 1078
SWIDTH 480 0
DWIDTH 8 0
BBX 7 6 1 0
BITMAP
FE
FC
7C
7C
FC
FE
ENDCHAR
STARTCHAR afii10073
ENCODING 1079
SWIDTH 480 0
DWIDTH 8 0
BBX 6 6 1 0
BITMAP
7C
CC
3C
0C
CC
7C
ENDCHAR
STARTCHAR afii10074
ENCODING 1080
SWIDTH 480 0
DWIDTH 8 0
BBX 7 6 1 0
BITMAP
CE
CE
DE
FE
EE
CE
ENDCHAR
STARTCHAR afii10075
ENCODING 1081
SWIDTH 480 0
DWIDTH 8 0
BBX 7 8 1 1
BITMAP
48
38
84
CE
CE
DE
FE
EE
ENDCHAR
STARTCHAR afii10076
ENCODING 1082
SWIDTH 480 0
DWIDTH 8 0
BBX 6 6 1 0
BITMAP
CC
D8
F0
F0
D8
CC
ENDCHAR
STARTCHAR afii10077
ENCODING 1083
SWIDTH 480 0
DWIDTH 8 0
BBX 7 6 1 0
BITMAP
3E
6E
4E
4E
4E
CE
ENDCHAR
STARTCHAR afii10078
ENCODING 1084
SWIDTH 480 0
DWIDTH 8 0
BBX 7 6 1 0
BITMAP
CE
FE
FE
FE
DE
CE
ENDCHAR
STARTCHAR afii10079
ENCODING 1085
SWIDTH 480 0
DWIDTH 8 0
BBX 7 6 1 0
BITMAP
CE
CE
FE
CE
CE
CE
ENDCHAR
STARTCHAR afii10080
ENCODING 1086
SWIDTH 480 0
DWIDTH 8 0
BBX 7 6 1 0
BITMAP
78
CC
CE
CE
CC
78
ENDCHAR
STARTCHAR afii10081
ENCODING 1087
SWIDTH 480 0
DWIDTH 8 0
BBX 7 6 1 0
BITMAP
FE
CE
CE
CE
CE
CE
ENDCHAR
STARTCHAR afii10082
ENCODING 1088
SWIDTH 480 0
DWIDTH 8 0
BBX 7 9 1 -3
BITMAP
F8
CC
CE
CE
CC
F8
C0
C0
C0
ENDCHAR
STARTCHAR afii10083
ENCODING 1089
SWIDTH 480 0
DWIDTH 8 0
BBX 6 6 1 0
BITMAP
7C
C4
C0
C0
C4
7C
ENDCHAR
STARTCHAR afii10084
ENCODING 1090
SWIDTH 480 0
DWIDTH 8 0
BBX 6 6 1 0
BITMAP
FC
30
30
30
30
30
ENDCHAR
STARTCHAR afii10085
ENCODING 1091
SWIDTH 480 0
DWIDTH 8 0
BBX 7 9 1 -3
BITMAP
CE
CE
CE
CE
CE
7E
0E
CC
78
ENDCHAR
STARTCHAR afii10086
ENCODING 1092
SWIDTH 480 0
DWIDTH 8 0
BBX 7 11 1 -3
BITMAP
30
78
FC
FE
FE
FE
FC
78
30
30
10
ENDCHAR
STARTCHAR afii10087
ENCODING 1093
SWIDTH 480 0
DWIDTH 8 0
BBX 6 6 1 0
BITMAP
CC
78
30
30
78
CC
ENDCHAR
STARTCHAR afii10088
ENCODING 1094
SWIDTH 480 0
DWIDTH 8 0
BBX 7 8 1 -1
BITMAP
C8
C8
C8
C8
CC
FC
0E
04
ENDCHAR
STARTCHAR afii10089
ENCODING 1095
SWIDTH 480 0
DWIDTH 8 0
BBX 7 6 1 0
BITMAP
CE
CE
CE
7E
0E
0E
ENDCHAR
STARTCHAR afii10090
ENCODING 1096
SWIDTH 480 0
DWIDTH 8 0
BBX 7 6 1 0
BITMAP
FE
FE
FE
FE
FE
FE
ENDCHAR
STARTCHAR afii10091
ENCODING 1097
SWIDTH 480 0
DWIDTH 8 0
BBX 7 8 1 -1
BITMAP
FE
FE
FE
FE
FE
FE
06
02
ENDCHAR
STARTCHAR afii10092
ENCODING 1098
SWIDTH 480 0
DWIDTH 8 0
BBX 7 6 1 0
BITMAP
C0
F8
6C
4E
6C
7C
ENDCHAR
STARTCHAR afii10093
ENCODING 1099
SWIDTH 480 0
DWIDTH 8 0
BBX 7 6 1 0
BITMAP
CE
EE
FE
FE
FE
FE
ENDCHAR
STARTCHAR afii10094
ENCODING 1100
SWIDTH 480 0
DWIDTH 8 0
BBX 7 6 1 0
BITMAP
C0
C0
F8
CE
CC
FC
ENDCHAR
STARTCHAR afii10095
ENCODING 1101
SWIDTH 480 0
DWIDTH 8 0
BBX 7 6 1 0
BITMAP
7C
CC
0E
3E
CC
7C
ENDCHAR
STARTCHAR afii10096
ENCODING 1102
SWIDTH 480 0
DWIDTH 8 0
BBX 7 6 1 0
BITMAP
DC
FC
FE
FE
FC
DC
ENDCHAR
STARTCHAR afii10097
ENCODING 1103
SWIDTH 480 0
DWIDTH 8 0
BBX 7 6 1 0
BITMAP
7E
CE
CE
7E
6E
CE
ENDCHAR
STARTCHAR uni0450
ENCODING 1104
SWIDTH 480 0
DWIDTH 8 0
BBX 7 9 1 0
BITMAP
30
18
00
78
EC
FE
C0
C4
7C
ENDCHAR
STARTCHAR afii10071
ENCODING 1105
SWIDTH 480 0
DWIDTH 8 0
BBX 6 8 1 1
BITMAP
48
48
30
78
FC
C0
C0
7C
ENDCHAR
STARTCHAR afii10099
ENCODING 1106
SWIDTH 480 0
DWIDTH 8 0
BBX 6 13 2 -2
BITMAP
80
E0
C0
80
F0
D8
9C
9C
9C
9C
1C
18
30
ENDCHAR
STARTCHAR afii10100
ENCODING 1107
SWIDTH 480 0
DWIDTH 8 0
BBX 6 9 1 0
BITMAP
18
30
00
FC
C0
C0
C0
C0
C0
ENDCHAR
STARTCHAR afii10101
ENCODING 1108
SWIDTH 480 0
DWIDTH 8 0
BBX 6 6 1 0
BITMAP
7C
C4
F0
C0
C4
7C
ENDCHAR
STARTCHAR afii10102
ENCODING 1109
SWIDTH 480 0
DWIDTH 8 0
BBX 7 6 1 0
BITMAP
7C
CC
78
0E
CC
7C
ENDCHAR
STARTCHAR afii10103
ENCODING 1110
SWIDTH 480 0
DWIDTH 8 0
BBX 5 8 2 1
BITMAP
60
20
60
60
60
60
60
F8
ENDCHAR
STARTCHAR afii10104
ENCODING 1111
SWIDTH 480 0
DWIDTH 8 0
BBX 6 9 1 0
BITMAP
48
68
70
30
30
30
30
30
FC
ENDCHAR
STARTCHAR afii10105
ENCODING 1112
SWIDTH 480 0
DWIDTH 8 0
BBX 5 11 1 -2
BITMAP
08
08
38
18
08
08
08
08
88
C8
F8
ENDCHAR
STARTCHAR afii10106
ENCODING 1113
SWIDTH 480 0
DWIDTH 8 0
BBX 7 6 0 0
BITMAP
78
78
5C
5E
DE
DC
ENDCHAR
STARTCHAR afii10107
ENCODING 1114
SWIDTH 480 0
DWIDTH 8 0
BBX 7 6 1 0
BITMAP
F0
F0
F8
FE
FC
FC
ENDCHAR
STARTCHAR afii10108
ENCODING 1115
SWIDTH 480 0
DWIDTH 8 0
BBX 7 10 0 1
BITMAP
40
40
F0
E0
7C
66
46
46
46
46
ENDCHAR
STARTCHAR afii10109
ENCODING 1116
SWIDTH 480 0
DWIDTH 8 0
BBX 6 9 1 0
BITMAP
18
30
00
CC
D8
F0
F0
D8
CC
ENDCHAR
STARTCHAR uni045D
ENCODING 1117
SWIDTH 480 0
DWIDTH 8 0
BBX 7 9 1 0
BITMAP
30
18
00
CE
CE
DE
FE
EE
CE
ENDCHAR
STARTCHAR afii10110
ENCODING 1118
SWIDTH 480 0
DWIDTH 8 0
BBX 7 11 1 -2
BITMAP
48
38
84
CE
CE
CE
CE
7E
0E
CE
7C
ENDCHAR
STARTCHAR afii10193
ENCODING 1119
SWIDTH 480 0
DWIDTH 8 0
BBX 7 8 1 -1
BITMAP
CE
CE
CE
CE
CE
FE
30
10
ENDCHAR
STARTCHAR uni0460
ENCODING 1120
SWIDTH 480 0
DWIDTH 8 0
BBX 7 10 1 1
BITMAP
48
CC
CE
CE
DE
FE
FE
FE
FE
7C
ENDCHAR
STARTCHAR uni0461
ENCODING 1121
SWIDTH 480 0
DWIDTH 8 0
BBX 7 6 1 0
BITMAP
CE
CE
FE
FE
FC
6C
ENDCHAR
STARTCHAR afii10146
ENCODING 1122
SWIDTH 480 0
DWIDTH 8 0
BBX 7 11 1 0
BITMAP
40
F0
F0
40
78
68
4E
4E
4E
68
78
ENDCHAR
STARTCHAR afii10194
ENCODING 1123
SWIDTH 480 0
DWIDTH 8 0
BBX 7 8 1 1
BITMAP
40
40
F0
70
7C
4E
4E
7C
ENDCHAR
STARTCHAR uni0464
ENCODING 1124
SWIDTH 480 0
DWIDTH 8 0
BBX 7 10 1 1
BITMAP
D8
DC
F8
F0
F8
F8
F0
F4
FE
DC
ENDCHAR
STARTCHAR uni0465
ENCODING 1125
SWIDTH 480 0
DWIDTH 8 0
BBX 6 6 1 0
BITMAP
DC
FC
F8
F0
F4
DC
ENDCHAR
STARTCHAR uni0466
ENCODING 1126
SWIDTH 480 0
DWIDTH 8 0
BBX 7 10 1 1
BITMAP
30
78
48
CC
CE
FE
FE
FE
FE
FE
ENDCHAR
STARTCHAR uni0467
ENCODING 1127
SWIDTH 480 0
DWIDTH 8 0
BBX 7 6 1 0
BITMAP
30
78
CC
FE
FE
FE
ENDCHAR
STARTCHAR uni0468
ENCODING 1128
SWIDTH 480 0
DWIDTH 8 0
BBX 5 10 1 1
BITMAP
90
98
B8
E8
F8
F8
D8
D8
D8
D8
ENDCHAR
STARTCHAR uni0469
ENCODING 1129
SWIDTH 480 0
DWIDTH 8 0
BBX 5 5 1 2
BITMAP
90
B8
F8
D8
D8
ENDCHAR
STARTCHAR uni046A
ENCODING 1130
SWIDTH 480 0
DWIDTH 8 0
BBX 7 10 1 1
BITMAP
FC
CE
4C
78
30
78
FC
FE
FE
FE
ENDCHAR
STARTCHAR uni046B
ENCODING 1131
SWIDTH 480 0
DWIDTH 8 0
BBX 7 6 1 0
BITMAP
FC
78
30
78
FC
FE
ENDCHAR
STARTCHAR uni046C
ENCODING 1132
SWIDTH 480 0
DWIDTH 8 0
BBX 5 10 1 1
BITMAP
F8
E8
E8
B8
F0
B8
F8
D8
D8
D8
ENDCHAR
STARTCHAR uni046D
ENCODING 1133
SWIDTH 480 0
DWIDTH 8 0
BBX 5 5 1 2
BITMAP
F8
E8
F0
B8
F8
ENDCHAR
STARTCHAR uni046E
ENCODING 1134
SWIDTH 480 0
DWIDTH 8 0
BBX 7 14 1 -1
BITMAP
68
38
00
78
CC
CE
08
1C
0C
0E
0C
78
C0
C0
ENDCHAR
STARTCHAR uni046F
ENCODING 1135
SWIDTH 480 0
DWIDTH 8 0
BBX 7 11 1 -1
BITMAP
68
38
00
7C
CC
0C
0E
0C
7C
C0
C0
ENDCHAR
STARTCHAR uni0470
ENCODING 1136
SWIDTH 480 0
DWIDTH 8 0
BBX 7 10 1 1
BITMAP
FC
FE
FE
FE
FC
78
30
30
30
30
ENDCHAR
STARTCHAR uni0471
ENCODING 1137
SWIDTH 480 0
DWIDTH 8 0
BBX 7 9 1 -1
BITMAP
30
F4
FE
FE
FE
FE
78
38
30
ENDCHAR
STARTCHAR afii10147
ENCODING 1138
SWIDTH 480 0
DWIDTH 8 0
BBX 7 10 1 1
BITMAP
38
6C
CE
CE
FE
CE
CE
CE
4C
78
ENDCHAR
STARTCHAR afii10195
ENCODING 1139
SWIDTH 480 0
DWIDTH 8 0
BBX 7 6 1 0
BITMAP
78
EC
FE
CE
CC
78
ENDCHAR
STARTCHAR afii10148
ENCODING 1140
SWIDTH 480 0
DWIDTH 8 0
BBX 6 10 1 1
BITMAP
C4
CC
D8
D8
D8
70
70
70
70
70
ENDCHAR
STARTCHAR afii10196
ENCODING 1141
SWIDTH 480 0
DWIDTH 8 0
BBX 6 6 1 0
BITMAP
CC
D8
D8
70
70
70
ENDCHAR
STARTCHAR uni0476
ENCODING 1142
SWIDTH 480 0
DWIDTH 8 0
BBX 6 11 1 1
BITMAP
D8
48
84
CC
C8
D8
D8
F8
70
70
70
ENDCHAR
STARTCHAR uni0477
ENCODING 1143
SWIDTH 480 0
DWIDTH 8 0
BBX 6 8 1 1
BITMAP
D8
48
84
CC
D8
70
70
70
ENDCHAR
STARTCHAR uni0478
ENCODING 1144
SWIDTH 480 0
DWIDTH 8 0
BBX 8 12 0 -1
BITMAP
60
F0
F0
F0
FB
FB
FB
FF
F6
E6
0C
08
ENDCHAR
STARTCHAR uni0479
ENCODING 1145
SWIDTH 480 0
DWIDTH 8 0
BBX 8 8 0 -1
BITMAP
FB
FB
FB
FF
F6
E6
0C
0C
ENDCHAR
STARTCHAR uni047A
ENCODING 1146
SWIDTH 480 0
DWIDTH 8 0
BBX 7 11 1 0
BITMAP
30
78
FC
CE
CE
CE
CE
CE
FE
78
38
ENDCHAR
STARTCHAR uni047B
ENCODING 1147
SWIDTH 480 0
DWIDTH 8 0
BBX 7 8 1 0
BITMAP
30
78
FC
DE
DE
7C
78
30
ENDCHAR
STARTCHAR uni047C
ENCODING 1148
SWIDTH 480 0
DWIDTH 8 0
BBX 7 11 1 1
BITMAP
78
C4
00
CC
CE
DE
FE
FE
FE
FE
FC
ENDCHAR
STARTCHAR uni047D
ENCODING 1149
SWIDTH 480 0
DWIDTH 8 0
BBX 7 8 1 1
BITMAP
78
C4
84
FE
FE
FE
FE
FC
ENDCHAR
STARTCHAR uni047E
ENCODING 1150
SWIDTH 480 0
DWIDTH 8 0
BBX 7 11 1 1
BITMAP
FC
B4
00
CC
CE
DE
FE
FE
FE
FE
FC
ENDCHAR
STARTCHAR uni047F
ENCODING 1151
SWIDTH 480 0
DWIDTH 8 0
BBX 7 8 1 1
BITMAP
FC
B4
84
FE
FE
FE
FE
FC
ENDCHAR
STARTCHAR uni0480
ENCODING 1152
SWIDTH 480 0
DWIDTH 8 0
BBX 6 11 1 0
BITMAP
38
6C
C0
C0
C0
C0
C0
C0
40
78
08
ENDCHAR
STARTCHAR uni0481
ENCODING 1153
SWIDTH 480 0
DWIDTH 8 0
BBX 6 8 1 -1
BITMAP
7C
C4
C0
C0
C0
70
18
18
ENDCHAR
STARTCHAR uni0482
ENCODING 1154
SWIDTH 480 0
DWIDTH 8 0
BBX 6 9 1 0
BITMAP
0C
2C
38
1C
F4
70
70
78
C0
ENDCHAR
STARTCHAR uni0483
ENCODING 1155
SWIDTH 480 0
DWIDTH 8 0
BBX 5 2 1 11
BITMAP
18
F8
ENDCHAR
STARTCHAR uni0484
ENCODING 1156
SWIDTH 480 0
DWIDTH 8 0
BBX 5 2 0 11
BITMAP
78
D8
ENDCHAR
STARTCHAR uni0485
ENCODING 1157
SWIDTH 480 0
DWIDTH 8 0
BBX 4 2 1 11
BITMAP
C0
F0
ENDCHAR
STARTCHAR uni0486
ENCODING 1158
SWIDTH 480 0
DWIDTH 8 0
BBX 4 2 1 11
BITMAP
30
F0
ENDCHAR
STARTCHAR uni0487
ENCODING 1159
SWIDTH 480 0
DWIDTH 8 0
BBX 6 2 1 11
BITMAP
70
DC
ENDCHAR
STARTCHAR uni0488
ENCODING 1160
SWIDTH 480 0
DWIDTH 8 0
BBX 8 15 0 -3
BITMAP
18
D2
07
00
00
00
00
00
00
00
00
00
C0
92
38
ENDCHAR
STARTCHAR uni0489
ENCODING 1161
SWIDTH 480 0
DWIDTH 8 0
BBX 8 15 0 -3
BITMAP
18
92
C3
00
00
00
00
00
00
00
00
00
C3
9A
10
ENDCHAR
STARTCHAR uni048A
ENCODING 1162
SWIDTH 480 0
DWIDTH 8 0
BBX 7 14 1 -1
BITMAP
68
38
C4
CE
CE
CE
DE
FE
FE
CE
CE
CE
06
0C
ENDCHAR
STARTCHAR uni048B
ENCODING 1163
SWIDTH 480 0
DWIDTH 8 0
BBX 7 11 1 -1
BITMAP
48
38
84
CE
CE
DE
FE
EE
06
06
08
ENDCHAR
STARTCHAR uni048C
ENCODING 1164
SWIDTH 480 0
DWIDTH 8 0
BBX 7 10 0 1
BITMAP
40
E0
E0
40
7C
46
46
46
44
7C
ENDCHAR
STARTCHAR uni048D
ENCODING 1165
SWIDTH 480 0
DWIDTH 8 0
BBX 7 6 0 0
BITMAP
E0
E0
7C
46
66
7C
ENDCHAR
STARTCHAR uni048E
ENCODING 1166
SWIDTH 480 0
DWIDTH 8 0
BBX 7 10 1 1
BITMAP
F8
CC
CE
CE
DC
F8
FC
C0
C0
C0
ENDCHAR
STARTCHAR uni048F
ENCODING 1167
SWIDTH 480 0
DWIDTH 8 0
BBX 7 9 1 -3
BITMAP
F8
CC
CE
CE
FC
F8
C4
C0
C0
ENDCHAR
STARTCHAR afii10050
ENCODING 1168
SWIDTH 480 0
DWIDTH 8 0
BBX 7 11 1 0
BITMAP
0E
FC
C0
C0
C0
C0
C0
C0
C0
C0
C0
ENDCHAR
STARTCHAR afii10098
ENCODING 1169
SWIDTH 480 0
DWIDTH 8 0
BBX 7 8 1 0
BITMAP
0E
FC
C0
C0
C0
C0
C0
C0
ENDCHAR
STARTCHAR uni0492
ENCODING 1170
SWIDTH 480 0
DWIDTH 8 0
BBX 5 10 2 1
BITMAP
78
E0
E0
E0
E0
E0
E0
E0
E0
E0
ENDCHAR
STARTCHAR uni0493
ENCODING 1171
SWIDTH 480 0
DWIDTH 8 0
BBX 6 6 1 0
BITMAP
7C
70
70
F8
70
70
ENDCHAR
STARTCHAR uni0494
ENCODING 1172
SWIDTH 480 0
DWIDTH 8 0
BBX 7 11 1 0
BITMAP
FC
C0
C0
C0
F0
C8
CC
CE
CE
CE
0C
ENDCHAR
STARTCHAR uni0495
ENCODING 1173
SWIDTH 480 0
DWIDTH 8 0
BBX 6 8 1 -1
BITMAP
FC
C0
C0
F8
C8
C8
08
18
ENDCHAR
STARTCHAR uni0496
ENCODING 1174
SWIDTH 480 0
DWIDTH 8 0
BBX 7 11 1 0
BITMAP
FC
FE
FE
FE
7C
78
FC
FE
FE
FE
06
ENDCHAR
STARTCHAR uni0497
ENCODING 1175
SWIDTH 480 0
DWIDTH 8 0
BBX 7 8 1 -1
BITMAP
FE
FC
7C
7C
FC
FE
06
02
ENDCHAR
STARTCHAR uni0498
ENCODING 1176
SWIDTH 480 0
DWIDTH 8 0
BBX 7 13 1 -2
BITMAP
38
6C
CE
0E
1C
08
0C
CE
4C
78
30
30
20
ENDCHAR
STARTCHAR uni0499
ENCODING 1177
SWIDTH 480 0
DWIDTH 8 0
BBX 7 8 1 -1
BITMAP
7C
CC
3C
0E
CC
7C
30
30
ENDCHAR
STARTCHAR uni049A
ENCODING 1178
SWIDTH 480 0
DWIDTH 8 0
BBX 7 11 1 0
BITMAP
C4
CC
C8
D8
F8
D8
D8
C8
CE
CE
06
ENDCHAR
STARTCHAR uni049B
ENCODING 1179
SWIDTH 480 0
DWIDTH 8 0
BBX 7 8 1 -1
BITMAP
C8
D8
F0
F0
D8
CE
06
02
ENDCHAR
STARTCHAR uni049C
ENCODING 1180
SWIDTH 480 0
DWIDTH 8 0
BBX 7 10 1 1
BITMAP
C4
CC
C8
F8
F8
F8
F8
C8
CC
CE
ENDCHAR
STARTCHAR uni049D
ENCODING 1181
SWIDTH 480 0
DWIDTH 8 0
BBX 7 6 1 0
BITMAP
CE
FC
F8
F8
FC
CE
ENDCHAR
STARTCHAR uni049E
ENCODING 1182
SWIDTH 480 0
DWIDTH 8 0
BBX 7 10 0 1
BITMAP
42
E6
EC
4C
78
78
48
4C
46
46
ENDCHAR
STARTCHAR uni049F
ENCODING 1183
SWIDTH 480 0
DWIDTH 8 0
BBX 7 10 0 1
BITMAP
40
40
F0
E0
4C
58
70
78
4C
46
ENDCHAR
STARTCHAR uni04A0
ENCODING 1184
SWIDTH 480 0
DWIDTH 8 0
BBX 7 10 0 1
BITMAP
C2
C6
4C
4C
78
78
48
4C
46
46
ENDCHAR
STARTCHAR uni04A1
ENCODING 1185
SWIDTH 480 0
DWIDTH 8 0
BBX 7 6 0 0
BITMAP
C6
EC
78
78
6C
46
ENDCHAR
STARTCHAR uni04A2
ENCODING 1186
SWIDTH 480 0
DWIDTH 8 0
BBX 7 11 1 0
BITMAP
C4
CE
CE
CE
FE
CE
CE
CE
CE
CE
06
ENDCHAR
STARTCHAR uni04A3
ENCODING 1187
SWIDTH 480 0
DWIDTH 8 0
BBX 7 8 1 -1
BITMAP
CE
CE
FE
CE
CE
CE
06
02
ENDCHAR
STARTCHAR uni04A4
ENCODING 1188
SWIDTH 480 0
DWIDTH 8 0
BBX 8 10 0 1
BITMAP
DF
D8
D8
D8
F8
D8
D8
D8
D8
D8
ENDCHAR
STARTCHAR uni04A5
ENCODING 1189
SWIDTH 480 0
DWIDTH 8 0
BBX 6 6 1 0
BITMAP
FC
F0
F0
F0
F0
F0
ENDCHAR
STARTCHAR uni04A6
ENCODING 1190
SWIDTH 480 0
DWIDTH 8 0
BBX 7 11 0 0
BITMAP
F8
D8
D8
D8
DC
DE
DE
DE
DE
DE
06
ENDCHAR
STARTCHAR uni04A7
ENCODING 1191
SWIDTH 480 0
DWIDTH 8 0
BBX 7 8 1 -1
BITMAP
F0
F0
F8
FE
FE
FE
0C
08
ENDCHAR
STARTCHAR uni04A8
ENCODING 1192
SWIDTH 480 0
DWIDTH 8 0
BBX 7 11 0 0
BITMAP
78
C0
C0
C0
C8
DC
FE
FE
DC
7C
04
ENDCHAR
STARTCHAR uni04A9
ENCODING 1193
SWIDTH 480 0
DWIDTH 8 0
BBX 7 8 1 -1
BITMAP
78
C0
D8
FE
FC
7C
18
0C
ENDCHAR
STARTCHAR uni04AA
ENCODING 1194
SWIDTH 480 0
DWIDTH 8 0
BBX 6 12 1 -1
BITMAP
38
6C
C0
C0
C0
C0
C0
C4
4C
78
30
18
ENDCHAR
STARTCHAR uni04AB
ENCODING 1195
SWIDTH 480 0
DWIDTH 8 0
BBX 6 8 1 -1
BITMAP
7C
C4
C0
C0
C4
7C
30
18
ENDCHAR
STARTCHAR uni04AC
ENCODING 1196
SWIDTH 480 0
DWIDTH 8 0
BBX 6 11 1 0
BITMAP
FC
30
30
30
30
30
30
30
30
38
18
ENDCHAR
STARTCHAR uni04AD
ENCODING 1197
SWIDTH 480 0
DWIDTH 8 0
BBX 6 8 1 -1
BITMAP
FC
30
30
30
30
38
18
18
ENDCHAR
STARTCHAR uni04AE
ENCODING 1198
SWIDTH 480 0
DWIDTH 8 0
BBX 6 10 1 1
BITMAP
C4
CC
48
78
38
30
30
30
30
30
ENDCHAR
STARTCHAR uni04AF
ENCODING 1199
SWIDTH 480 0
DWIDTH 8 0
BBX 7 8 1 -1
BITMAP
CE
CC
78
30
30
30
30
30
ENDCHAR
STARTCHAR uni04B0
ENCODING 1200
SWIDTH 480 0
DWIDTH 8 0
BBX 6 10 1 1
BITMAP
C4
CC
48
78
38
38
38
30
30
30
ENDCHAR
STARTCHAR uni04B1
ENCODING 1201
SWIDTH 480 0
DWIDTH 8 0
BBX 7 8 1 -1
BITMAP
CE
CC
78
30
30
78
30
30
ENDCHAR
STARTCHAR uni04B2
ENCODING 1202
SWIDTH 480 0
DWIDTH 8 0
BBX 7 11 1 0
BITMAP
C4
CC
48
78
38
38
78
68
CE
CE
06
ENDCHAR
STARTCHAR uni04B3
ENCODING 1203
SWIDTH 480 0
DWIDTH 8 0
BBX 7 8 1 -1
BITMAP
CC
78
30
30
78
CE
06
02
ENDCHAR
STARTCHAR uni04B4
ENCODING 1204
SWIDTH 480 0
DWIDTH 8 0
BBX 8 11 0 0
BITMAP
FE
66
66
66
66
66
66
66
66
7F
03
ENDCHAR
STARTCHAR uni04B5
ENCODING 1205
SWIDTH 480 0
DWIDTH 8 0
BBX 8 8 0 -1
BITMAP
FE
66
66
66
66
7F
03
02
ENDCHAR
STARTCHAR uni04B6
ENCODING 1206
SWIDTH 480 0
DWIDTH 8 0
BBX 7 11 1 0
BITMAP
C4
CE
CE
CE
CE
7E
3E
0E
0E
0E
06
ENDCHAR
STARTCHAR uni04B7
ENCODING 1207
SWIDTH 480 0
DWIDTH 8 0
BBX 7 8 1 -1
BITMAP
CE
CE
CE
7E
0E
0E
06
02
ENDCHAR
STARTCHAR uni04B8
ENCODING 1208
SWIDTH 480 0
DWIDTH 8 0
BBX 7 10 1 1
BITMAP
C4
CE
CE
CE
CE
7E
3E
0E
0E
0E
ENDCHAR
STARTCHAR uni04B9
ENCODING 1209
SWIDTH 480 0
DWIDTH 8 0
BBX 7 6 1 0
BITMAP
CE
CE
FE
7E
3E
0E
ENDCHAR
STARTCHAR uni04BA
ENCODING 1210
SWIDTH 480 0
DWIDTH 8 0
BBX 7 10 1 1
BITMAP
C0
C0
C0
C0
FC
CE
CE
CE
CE
CE
ENDCHAR
STARTCHAR uni04BB
ENCODING 1211
SWIDTH 480 0
DWIDTH 8 0
BBX 5 10 1 1
BITMAP
C0
C0
C0
C0
F0
C8
C8
C8
C8
C8
ENDCHAR
STARTCHAR uni04BC
ENCODING 1212
SWIDTH 480 0
DWIDTH 8 0
BBX 7 10 0 1
BITMAP
18
3C
E6
E6
7E
60
60
60
34
1C
ENDCHAR
STARTCHAR uni04BD
ENCODING 1213
SWIDTH 480 0
DWIDTH 8 0
BBX 7 6 0 0
BITMAP
1C
BE
FE
60
34
1C
ENDCHAR
STARTCHAR uni04BE
ENCODING 1214
SWIDTH 480 0
DWIDTH 8 0
BBX 7 13 0 -2
BITMAP
18
3C
E6
E6
7E
60
60
60
34
1C
18
0C
04
ENDCHAR
STARTCHAR uni04BF
ENCODING 1215
SWIDTH 480 0
DWIDTH 8 0
BBX 7 8 0 -1
BITMAP
1C
BE
FE
60
34
1C
08
0C
ENDCHAR
STARTCHAR uni04C0
ENCODING 1216
SWIDTH 480 0
DWIDTH 8 0
BBX 6 10 1 1
BITMAP
FC
30
30
30
30
30
30
30
30
FC
ENDCHAR
STARTCHAR uni04C1
ENCODING 1217
SWIDTH 480 0
DWIDTH 8 0
BBX 7 11 1 1
BITMAP
48
38
94
FE
FE
7C
78
7C
FE
FE
FE
ENDCHAR
STARTCHAR uni04C2
ENCODING 1218
SWIDTH 480 0
DWIDTH 8 0
BBX 7 8 1 1
BITMAP
48
38
94
FE
FC
78
FC
FE
ENDCHAR
STARTCHAR uni04C3
ENCODING 1219
SWIDTH 480 0
DWIDTH 8 0
BBX 7 11 1 0
BITMAP
C4
CC
C8
D8
F8
C8
CC
CE
CE
CE
3C
ENDCHAR
STARTCHAR uni04C4
ENCODING 1220
SWIDTH 480 0
DWIDTH 8 0
BBX 7 8 1 -1
BITMAP
CC
D8
F0
FC
CC
CE
0C
38
ENDCHAR
STARTCHAR uni04C5
ENCODING 1221
SWIDTH 480 0
DWIDTH 8 0
BBX 7 12 1 -1
BITMAP
3C
6E
4E
4E
4E
4E
4E
4E
CE
CE
06
0C
ENDCHAR
STARTCHAR uni04C6
ENCODING 1222
SWIDTH 480 0
DWIDTH 8 0
BBX 7 8 1 -1
BITMAP
3E
6E
4E
4E
4E
CE
06
0C
ENDCHAR
STARTCHAR uni04C7
ENCODING 1223
SWIDTH 480 0
DWIDTH 8 0
BBX 7 11 1 0
BITMAP
C4
CE
CE
CE
FE
CE
CE
CE
CE
CE
3C
ENDCHAR
STARTCHAR uni04C8
ENCODING 1224
SWIDTH 480 0
DWIDTH 8 0
BBX 7 8 1 -1
BITMAP
CE
CE
FE
CE
CE
CE
0C
38
ENDCHAR
STARTCHAR uni04C9
ENCODING 1225
SWIDTH 480 0
DWIDTH 8 0
BBX 7 12 1 -1
BITMAP
C4
CE
CE
CE
FE
CE
CE
CE
CE
CE
06
0C
ENDCHAR
STARTCHAR uni04CA
ENCODING 1226
SWIDTH 480 0
DWIDTH 8 0
BBX 7 8 1 -1
BITMAP
CE
CE
FE
CE
CE
CE
06
0C
ENDCHAR
STARTCHAR uni04CB
ENCODING 1227
SWIDTH 480 0
DWIDTH 8 0
BBX 7 11 1 0
BITMAP
C4
CE
CE
CE
CE
7E
3E
0E
0E
0E
0C
ENDCHAR
STARTCHAR uni04CC
ENCODING 1228
SWIDTH 480 0
DWIDTH 8 0
BBX 7 8 1 -1
BITMAP
CE
CE
CE
7E
0E
0E
08
08
ENDCHAR
STARTCHAR uni04CD
ENCODING 1229
SWIDTH 480 0
DWIDTH 8 0
BBX 7 12 1 -1
BITMAP
C4
CE
CE
FE
FE
FE
FE
CE
CE
CE
06
0C
ENDCHAR
STARTCHAR uni04CE
ENCODING 1230
SWIDTH 480 0
DWIDTH 8 0
BBX 7 8 1 -1
BITMAP
CE
FE
FE
FE
DE
CE
06
0C
ENDCHAR
STARTCHAR uni04CF
ENCODING 1231
SWIDTH 480 0
DWIDTH 8 0
BBX 3 10 2 1
BITMAP
E0
60
40
40
40
40
40
40
40
E0
ENDCHAR
STARTCHAR uni04D0
ENCODING 1232
SWIDTH 480 0
DWIDTH 8 0
BBX 7 11 1 1
BITMAP
48
38
10
38
68
CC
CE
FE
CE
CE
CE
ENDCHAR
STARTCHAR uni04D1
ENCODING 1233
SWIDTH 480 0
DWIDTH 8 0
BBX 7 8 1 1
BITMAP
48
38
38
7C
7E
CE
CE
FE
ENDCHAR
STARTCHAR uni04D2
ENCODING 1234
SWIDTH 480 0
DWIDTH 8 0
BBX 7 11 1 1
BITMAP
48
48
10
38
68
CC
CE
FE
CE
CE
CE
ENDCHAR
STARTCHAR uni04D3
ENCODING 1235
SWIDTH 480 0
DWIDTH 8 0
BBX 7 8 1 1
BITMAP
48
48
38
FC
7E
CE
CE
FE
ENDCHAR
STARTCHAR uni04D4
ENCODING 1236
SWIDTH 480 0
DWIDTH 8 0
BBX 6 10 1 1
BITMAP
3C
78
58
D8
FC
D8
D8
D8
D8
DC
ENDCHAR
STARTCHAR uni04D5
ENCODING 1237
SWIDTH 480 0
DWIDTH 8 0
BBX 6 6 1 0
BITMAP
7C
3C
3C
70
F0
7C
ENDCHAR
STARTCHAR uni04D6
ENCODING 1238
SWIDTH 480 0
DWIDTH 8 0
BBX 6 11 1 1
BITMAP
48
38
FC
FC
C0
C0
F8
C0
C0
C0
FC
ENDCHAR
STARTCHAR uni04D7
ENCODING 1239
SWIDTH 480 0
DWIDTH 8 0
BBX 6 8 1 1
BITMAP
48
38
30
78
FC
C0
C0
7C
ENDCHAR
STARTCHAR uni04D8
ENCODING 1240
SWIDTH 480 0
DWIDTH 8 0
BBX 7 10 1 1
BITMAP
38
6C
0E
0E
7E
CE
CE
CC
48
78
ENDCHAR
STARTCHAR afii10846
ENCODING 1241
SWIDTH 480 0
DWIDTH 8 0
BBX 7 6 1 0
BITMAP
78
CC
0E
FE
EC
78
ENDCHAR
STARTCHAR uni04DA
ENCODING 1242
SWIDTH 480 0
DWIDTH 8 0
BBX 7 11 1 1
BITMAP
48
48
30
78
CC
0E
FE
CE
CE
4C
78
ENDCHAR
STARTCHAR uni04DB
ENCODING 1243
SWIDTH 480 0
DWIDTH 8 0
BBX 7 8 1 1
BITMAP
48
48
30
F8
0C
FE
FE
7C
ENDCHAR
STARTCHAR uni04DC
ENCODING 1244
SWIDTH 480 0
DWIDTH 8 0
BBX 7 11 1 1
BITMAP
48
48
94
FE
FE
7C
78
7C
FE
FE
FE
ENDCHAR
STARTCHAR uni04DD
ENCODING 1245
SWIDTH 480 0
DWIDTH 8 0
BBX 7 8 1 1
BITMAP
48
48
94
FE
FC
78
FC
FE
ENDCHAR
STARTCHAR uni04DE
ENCODING 1246
SWIDTH 480 0
DWIDTH 8 0
BBX 7 11 1 1
BITMAP
48
48
30
78
CC
0C
38
0C
8E
CE
7C
ENDCHAR
STARTCHAR uni04DF
ENCODING 1247
SWIDTH 480 0
DWIDTH 8 0
BBX 6 8 1 1
BITMAP
48
48
38
FC
1C
18
0C
FC
ENDCHAR
STARTCHAR uni04E0
ENCODING 1248
SWIDTH 480 0
DWIDTH 8 0
BBX 7 10 1 1
BITMAP
FC
0C
08
18
38
0C
0E
CE
4C
78
ENDCHAR
STARTCHAR uni04E1
ENCODING 1249
SWIDTH 480 0
DWIDTH 8 0
BBX 7 10 1 -2
BITMAP
FC
0C
08
18
38
0C
0E
CE
4C
78
ENDCHAR
STARTCHAR uni04E2
ENCODING 1250
SWIDTH 480 0
DWIDTH 8 0
BBX 7 11 1 1
BITMAP
FC
84
CE
CE
CE
DE
FE
FE
EE
CE
CE
ENDCHAR
STARTCHAR uni04E3
ENCODING 1251
SWIDTH 480 0
DWIDTH 8 0
BBX 7 8 1 0
BITMAP
FC
C4
CE
CE
DE
FE
CE
C4
ENDCHAR
STARTCHAR uni04E4
ENCODING 1252
SWIDTH 480 0
DWIDTH 8 0
BBX 7 11 1 1
BITMAP
48
48
84
CE
CE
DE
FE
FE
EE
CE
CE
ENDCHAR
STARTCHAR uni04E5
ENCODING 1253
SWIDTH 480 0
DWIDTH 8 0
BBX 7 8 1 1
BITMAP
48
48
84
CE
CE
DE
FE
EE
ENDCHAR
STARTCHAR uni04E6
ENCODING 1254
SWIDTH 480 0
DWIDTH 8 0
BBX 7 11 1 1
BITMAP
48
48
30
78
CC
CE
CE
CE
CE
CE
7C
ENDCHAR
STARTCHAR uni04E7
ENCODING 1255
SWIDTH 480 0
DWIDTH 8 0
BBX 7 8 1 1
BITMAP
48
48
30
78
CC
CE
CE
7C
ENDCHAR
STARTCHAR uni04E8
ENCODING 1256
SWIDTH 480 0
DWIDTH 8 0
BBX 7 10 1 1
BITMAP
38
6C
CE
CE
FE
CE
CE
CE
4C
78
ENDCHAR
STARTCHAR uni04E9
ENCODING 1257
SWIDTH 480 0
DWIDTH 8 0
BBX 7 6 1 0
BITMAP
78
EC
FE
CE
CC
78
ENDCHAR
STARTCHAR uni04EA
ENCODING 1258
SWIDTH 480 0
DWIDTH 8 0
BBX 7 11 1 1
BITMAP
48
48
30
78
CC
CE
FE
CE
CE
CE
7C
ENDCHAR
STARTCHAR uni04EB
ENCODING 1259
SWIDTH 480 0
DWIDTH 8 0
BBX 7 8 1 1
BITMAP
48
48
30
78
FC
CE
CE
7C
ENDCHAR
STARTCHAR uni04EC
ENCODING 1260
SWIDTH 480 0
DWIDTH 8 0
BBX 7 11 1 1
BITMAP
48
48
30
78
CC
0E
7E
0E
0E
CE
7C
ENDCHAR
STARTCHAR uni04ED
ENCODING 1261
SWIDTH 480 0
DWIDTH 8 0
BBX 7 8 1 1
BITMAP
48
48
38
FC
3E
0E
0E
FC
ENDCHAR
STARTCHAR uni04EE
ENCODING 1262
SWIDTH 480 0
DWIDTH 8 0
BBX 7 11 1 1
BITMAP
FC
84
CE
CE
CE
CE
7E
0E
0E
0E
FC
ENDCHAR
STARTCHAR uni04EF
ENCODING 1263
SWIDTH 480 0
DWIDTH 8 0
BBX 7 11 1 -3
BITMAP
FC
C4
CE
CE
CE
CE
6E
3E
CE
68
38
ENDCHAR
STARTCHAR uni04F0
ENCODING 1264
SWIDTH 480 0
DWIDTH 8 0
BBX 7 13 1 -1
BITMAP
48
48
84
CE
CE
CE
CE
7E
0E
0E
0E
7C
38
ENDCHAR
STARTCHAR uni04F1
ENCODING 1265
SWIDTH 480 0
DWIDTH 8 0
BBX 7 11 1 -2
BITMAP
48
48
84
CE
CE
CE
CE
7E
0E
CE
7C
ENDCHAR
STARTCHAR uni04F2
ENCODING 1266
SWIDTH 480 0
DWIDTH 8 0
BBX 7 12 1 0
BITMAP
6C
4C
C4
CE
CE
CE
CE
7E
0E
0E
CC
7C
ENDCHAR
STARTCHAR uni04F3
ENCODING 1267
SWIDTH 480 0
DWIDTH 8 0
BBX 7 11 1 -2
BITMAP
24
48
84
CE
CE
CE
CE
7E
0E
CE
7C
ENDCHAR
STARTCHAR uni04F4
ENCODING 1268
SWIDTH 480 0
DWIDTH 8 0
BBX 7 11 1 1
BITMAP
48
48
84
CE
CE
CE
CE
7E
0E
0E
0E
ENDCHAR
STARTCHAR uni04F5
ENCODING 1269
SWIDTH 480 0
DWIDTH 8 0
BBX 7 8 1 1
BITMAP
48
48
84
CE
CE
7E
3E
0E
ENDCHAR
STARTCHAR uni04F6
ENCODING 1270
SWIDTH 480 0
DWIDTH 8 0
BBX 6 11 1 0
BITMAP
FC
C0
C0
C0
C0
C0
C0
C0
C0
C0
40
ENDCHAR
STARTCHAR uni04F7
ENCODING 1271
SWIDTH 480 0
DWIDTH 8 0
BBX 6 8 1 -1
BITMAP
FC
C0
C0
C0
C0
C0
40
40
ENDCHAR
STARTCHAR uni04F8
ENCODING 1272
SWIDTH 480 0
DWIDTH 8 0
BBX 7 11 1 1
BITMAP
48
48
84
CE
CE
CE
EE
FE
FE
FE
FE
ENDCHAR
STARTCHAR uni04F9
ENCODING 1273
SWIDTH 480 0
DWIDTH 8 0
BBX 7 8 1 1
BITMAP
48
48
84
CE
FE
FE
FE
FE
ENDCHAR
STARTCHAR uni04FA
ENCODING 1274
SWIDTH 480 0
DWIDTH 8 0
BBX 7 11 0 0
BITMAP
3E
30
30
30
78
78
30
30
30
30
F0
ENDCHAR
STARTCHAR uni04FB
ENCODING 1275
SWIDTH 480 0
DWIDTH 8 0
BBX 7 8 0 -1
BITMAP
3E
30
30
7C
30
30
70
E0
ENDCHAR
STARTCHAR uni04FC
ENCODING 1276
SWIDTH 480 0
DWIDTH 8 0
BBX 7 11 1 0
BITMAP
C4
CC
48
78
38
38
78
68
CC
CE
3C
ENDCHAR
STARTCHAR uni04FD
ENCODING 1277
SWIDTH 480 0
DWIDTH 8 0
BBX 6 8 1 -1
BITMAP
CC
78
30
30
78
CC
0C
38
ENDCHAR
STARTCHAR uni04FE
ENCODING 1278
SWIDTH 480 0
DWIDTH 8 0
BBX 7 10 1 1
BITMAP
C4
CC
48
78
7C
78
78
68
CC
CE
ENDCHAR
STARTCHAR uni04FF
ENCODING 1279
SWIDTH 480 0
DWIDTH 8 0
BBX 6 6 1 0
BITMAP
CC
78
30
FC
7C
CC
ENDCHAR
STARTCHAR uni0500
ENCODING 1280
SWIDTH 480 0
DWIDTH 8 0
BBX 7 10 1 1
BITMAP
04
0E
0E
3E
6E
CE
CE
CE
4E
7E
ENDCHAR
STARTCHAR uni0501
ENCODING 1281
SWIDTH 480 0
DWIDTH 8 0
BBX 7 10 1 1
BITMAP
04
0E
0E
0E
7E
CE
CE
CE
4E
7E
ENDCHAR
STARTCHAR uni0502
ENCODING 1282
SWIDTH 480 0
DWIDTH 8 0
BBX 7 10 0 1
BITMAP
18
18
18
78
D8
DE
DE
DE
DE
7C
ENDCHAR
STARTCHAR uni0503
ENCODING 1283
SWIDTH 480 0
DWIDTH 8 0
BBX 7 10 0 1
BITMAP
18
18
18
18
78
DE
DE
DE
FE
7C
ENDCHAR
STARTCHAR uni0504
ENCODING 1284
SWIDTH 480 0
DWIDTH 8 0
BBX 7 10 0 1
BITMAP
60
F0
18
18
70
76
1E
1E
1E
1C
ENDCHAR
STARTCHAR uni0505
ENCODING 1285
SWIDTH 480 0
DWIDTH 8 0
BBX 7 6 0 0
BITMAP
F0
98
70
1E
1E
1C
ENDCHAR
STARTCHAR uni0506
ENCODING 1286
SWIDTH 480 0
DWIDTH 8 0
BBX 7 12 0 -1
BITMAP
78
CC
CC
8C
18
18
0C
0C
0C
0E
06
0C
ENDCHAR
STARTCHAR uni0507
ENCODING 1287
SWIDTH 480 0
DWIDTH 8 0
BBX 7 8 0 -1
BITMAP
FC
8C
7C
0C
0C
0E
06
0C
ENDCHAR
STARTCHAR uni0508
ENCODING 1288
SWIDTH 480 0
DWIDTH 8 0
BBX 7 10 0 1
BITMAP
78
78
58
58
58
5E
5E
5E
DE
DC
ENDCHAR
STARTCHAR uni0509
ENCODING 1289
SWIDTH 480 0
DWIDTH 8 0
BBX 7 6 0 0
BITMAP
78
78
5E
5E
DE
DC
ENDCHAR
STARTCHAR uni050A
ENCODING 1290
SWIDTH 480 0
DWIDTH 8 0
BBX 7 10 1 1
BITMAP
F0
F0
F0
F0
F4
FE
FE
FE
FE
DC
ENDCHAR
STARTCHAR uni050B
ENCODING 1291
SWIDTH 480 0
DWIDTH 8 0
BBX 7 6 1 0
BITMAP
F0
F0
F4
FE
FC
DC
ENDCHAR
STARTCHAR uni050C
ENCODING 1292
SWIDTH 480 0
DWIDTH 8 0
BBX 7 10 1 1
BITMAP
38
6C
C0
C0
CC
CE
CE
CE
4C
78
ENDCHAR
STARTCHAR uni050D
ENCODING 1293
SWIDTH 480 0
DWIDTH 8 0
BBX 7 6 1 0
BITMAP
78
CC
C0
DE
CC
78
ENDCHAR
STARTCHAR uni050E
ENCODING 1294
SWIDTH 480 0
DWIDTH 8 0
BBX 7 10 1 1
BITMAP
FC
30
30
30
34
3E
3E
3E
3E
1C
ENDCHAR
STARTCHAR uni050F
ENCODING 1295
SWIDTH 480 0
DWIDTH 8 0
BBX 7 6 1 0
BITMAP
FC
30
34
3E
3C
1C
ENDCHAR
STARTCHAR uni0510
ENCODING 1296
SWIDTH 480 0
DWIDTH 8 0
BBX 7 10 1 1
BITMAP
38
6C
CE
C4
70
60
C0
CC
4C
78
ENDCHAR
STARTCHAR uni0511
ENCODING 1297
SWIDTH 480 0
DWIDTH 8 0
BBX 6 6 1 0
BITMAP
7C
C4
78
40
C4
7C
ENDCHAR
STARTCHAR uni0512
ENCODING 1298
SWIDTH 480 0
DWIDTH 8 0
BBX 7 11 1 0
BITMAP
3C
6E
4E
4E
4E
4E
4E
4E
CE
CE
3C
ENDCHAR
STARTCHAR uni0513
ENCODING 1299
SWIDTH 480 0
DWIDTH 8 0
BBX 7 8 1 -1
BITMAP
3E
6E
4E
4E
4E
CE
0C
38
ENDCHAR
STARTCHAR uni0514
ENCODING 1300
SWIDTH 480 0
DWIDTH 8 0
BBX 7 10 0 1
BITMAP
FE
FE
5E
5E
5E
5E
5E
5E
DE
DE
ENDCHAR
STARTCHAR uni0515
ENCODING 1301
SWIDTH 480 0
DWIDTH 8 0
BBX 7 6 0 0
BITMAP
FE
FE
5C
5C
DE
DE
ENDCHAR
STARTCHAR uni0516
ENCODING 1302
SWIDTH 480 0
DWIDTH 8 0
BBX 7 10 1 1
BITMAP
E6
F6
DE
DE
DC
FC
E6
C6
C6
C6
ENDCHAR
STARTCHAR uni0517
ENCODING 1303
SWIDTH 480 0
DWIDTH 8 0
BBX 7 9 1 -3
BITMAP
F6
DE
DE
DE
DE
F6
C0
C0
C0
ENDCHAR
STARTCHAR uni0518
ENCODING 1304
SWIDTH 480 0
DWIDTH 8 0
BBX 6 10 1 1
BITMAP
3C
78
D8
D8
D8
7C
7C
58
D8
DC
ENDCHAR
STARTCHAR uni0519
ENCODING 1305
SWIDTH 480 0
DWIDTH 8 0
BBX 7 6 1 0
BITMAP
7C
FC
FE
70
F4
DC
ENDCHAR
STARTCHAR uni051A
ENCODING 1306
SWIDTH 480 0
DWIDTH 8 0
BBX 7 11 1 0
BITMAP
38
6C
CE
CE
CE
CE
CE
DE
4C
78
04
ENDCHAR
STARTCHAR uni051B
ENCODING 1307
SWIDTH 480 0
DWIDTH 8 0
BBX 7 9 1 -3
BITMAP
7E
CE
CE
CE
CE
7E
0E
0E
0E
ENDCHAR
STARTCHAR uni051C
ENCODING 1308
SWIDTH 480 0
DWIDTH 8 0
BBX 7 10 1 1
BITMAP
C4
CE
CE
CE
DE
FE
FE
EE
CE
CE
ENDCHAR
STARTCHAR uni051D
ENCODING 1309
SWIDTH 480 0
DWIDTH 8 0
BBX 7 6 1 0
BITMAP
CE
CE
FE
FE
FC
6C
ENDCHAR
STARTCHAR uni051E
ENCODING 1310
SWIDTH 480 0
DWIDTH 8 0
BBX 7 10 1 1
BITMAP
C4
DC
C8
DC
F8
D8
D8
C8
CC
CE
ENDCHAR
STARTCHAR uni051F
ENCODING 1311
SWIDTH 480 0
DWIDTH 8 0
BBX 6 6 1 0
BITMAP
DC
DC
FC
F0
D8
CC
ENDCHAR
STARTCHAR uni0520
ENCODING 1312
SWIDTH 480 0
DWIDTH 8 0
BBX 7 11 0 0
BITMAP
38
78
58
58
5C
5E
5E
5E
DE
DE
1E
ENDCHAR
STARTCHAR uni0521
ENCODING 1313
SWIDTH 480 0
DWIDTH 8 0
BBX 7 8 0 -1
BITMAP
38
78
5C
5E
DE
DE
0E
1C
ENDCHAR
STARTCHAR uni0522
ENCODING 1314
SWIDTH 480 0
DWIDTH 8 0
BBX 7 11 1 0
BITMAP
F0
F0
F0
F0
F8
FC
FE
FE
FE
FE
3C
ENDCHAR
STARTCHAR uni0523
ENCODING 1315
SWIDTH 480 0
DWIDTH 8 0
BBX 7 8 1 -1
BITMAP
F0
F0
F8
FE
FE
FE
0C
38
ENDCHAR
STARTCHAR uni0531
ENCODING 1329
SWIDTH 480 0
DWIDTH 8 0
BBX 7 10 1 1
BITMAP
D8
D8
D8
D8
D8
D8
D8
DC
DE
76
ENDCHAR
STARTCHAR uni0532
ENCODING 1330
SWIDTH 480 0
DWIDTH 8 0
BBX 6 10 1 1
BITMAP
78
EC
C0
C0
F8
C0
C0
C0
C0
C0
ENDCHAR
STARTCHAR uni0533
ENCODING 1331
SWIDTH 480 0
DWIDTH 8 0
BBX 7 10 1 1
BITMAP
30
78
D8
D8
78
1C
1E
18
18
18
ENDCHAR
STARTCHAR uni0534
ENCODING 1332
SWIDTH 480 0
DWIDTH 8 0
BBX 7 10 1 1
BITMAP
70
D8
18
18
1C
1E
18
18
18
18
ENDCHAR
STARTCHAR uni0535
ENCODING 1333
SWIDTH 480 0
DWIDTH 8 0
BBX 7 10 1 1
BITMAP
C0
C0
F0
F8
C0
C0
C0
C0
46
7C
ENDCHAR
STARTCHAR uni0536
ENCODING 1334
SWIDTH 480 0
DWIDTH 8 0
BBX 7 10 1 1
BITMAP
38
6C
CE
CE
7E
0C
08
78
FC
76
ENDCHAR
STARTCHAR uni0537
ENCODING 1335
SWIDTH 480 0
DWIDTH 8 0
BBX 7 13 1 -2
BITMAP
C0
C0
C0
C0
F8
C8
C0
C0
C0
7C
0E
1C
08
ENDCHAR
STARTCHAR uni0538
ENCODING 1336
SWIDTH 480 0
DWIDTH 8 0
BBX 6 11 1 0
BITMAP
78
C8
C8
C0
C0
C0
C0
C0
C0
78
0C
ENDCHAR
STARTCHAR uni0539
ENCODING 1337
SWIDTH 480 0
DWIDTH 8 0
BBX 7 10 0 1
BITMAP
78
D8
C8
DE
FC
D8
D0
C0
C0
C0
ENDCHAR
STARTCHAR uni053A
ENCODING 1338
SWIDTH 480 0
DWIDTH 8 0
BBX 6 10 1 1
BITMAP
08
08
08
08
7C
CC
C8
C8
F8
78
ENDCHAR
STARTCHAR uni053B
ENCODING 1339
SWIDTH 480 0
DWIDTH 8 0
BBX 7 10 1 1
BITMAP
C0
C0
C0
C0
FC
CE
C4
C0
C0
C0
ENDCHAR
STARTCHAR uni053C
ENCODING 1340
SWIDTH 480 0
DWIDTH 8 0
BBX 6 11 1 0
BITMAP
C0
C0
C0
C0
C0
C0
C0
C0
C0
78
0C
ENDCHAR
STARTCHAR uni053D
ENCODING 1341
SWIDTH 480 0
DWIDTH 8 0
BBX 7 10 1 1
BITMAP
C0
C0
C0
C0
FC
FE
FE
D8
C0
C0
ENDCHAR
STARTCHAR uni053E
ENCODING 1342
SWIDTH 480 0
DWIDTH 8 0
BBX 7 10 1 1
BITMAP
FC
30
38
78
CC
CE
CE
CE
4C
78
ENDCHAR
STARTCHAR uni053F
ENCODING 1343
SWIDTH 480 0
DWIDTH 8 0
BBX 7 10 1 1
BITMAP
C0
C0
C0
C4
CE
CE
7E
0E
0E
0E
ENDCHAR
STARTCHAR uni0540
ENCODING 1344
SWIDTH 480 0
DWIDTH 8 0
BBX 6 10 1 1
BITMAP
30
70
30
18
30
60
C0
E0
30
1C
ENDCHAR
STARTCHAR uni0541
ENCODING 1345
SWIDTH 480 0
DWIDTH 8 0
BBX 6 10 1 1
BITMAP
78
C8
C8
C8
F8
08
08
78
D8
7C
ENDCHAR
STARTCHAR uni0542
ENCODING 1346
SWIDTH 480 0
DWIDTH 8 0
BBX 6 11 1 0
BITMAP
70
D8
D8
18
18
18
18
18
18
18
0C
ENDCHAR
STARTCHAR uni0543
ENCODING 1347
SWIDTH 480 0
DWIDTH 8 0
BBX 7 10 1 1
BITMAP
18
0C
8E
4C
78
48
48
CC
CE
FE
ENDCHAR
STARTCHAR uni0544
ENCODING 1348
SWIDTH 480 0
DWIDTH 8 0
BBX 7 10 1 1
BITMAP
DC
DE
D8
D8
D8
D8
D8
D8
D8
70
ENDCHAR
STARTCHAR uni0545
ENCODING 1349
SWIDTH 480 0
DWIDTH 8 0
BBX 7 10 1 1
BITMAP
78
CC
0E
0E
7C
78
2C
0E
8C
78
ENDCHAR
STARTCHAR uni0546
ENCODING 1350
SWIDTH 480 0
DWIDTH 8 0
BBX 7 10 1 1
BITMAP
60
E0
C0
E0
70
70
70
74
7E
3C
ENDCHAR
STARTCHAR uni0547
ENCODING 1351
SWIDTH 480 0
DWIDTH 8 0
BBX 7 10 1 1
BITMAP
04
F8
60
C4
CE
CE
CE
CE
4C
78
ENDCHAR
STARTCHAR uni0548
ENCODING 1352
SWIDTH 480 0
DWIDTH 8 0
BBX 7 10 1 1
BITMAP
38
6C
CE
CE
CE
CE
CE
CE
CE
CE
ENDCHAR
STARTCHAR uni0549
ENCODING 1353
SWIDTH 480 0
DWIDTH 8 0
BBX 7 10 1 1
BITMAP
38
6C
4E
4E
4E
7C
38
10
30
FC
ENDCHAR
STARTCHAR uni054A
ENCODING 1354
SWIDTH 480 0
DWIDTH 8 0
BBX 7 10 1 1
BITMAP
78
FC
FE
FE
3E
3E
1E
0E
0E
0E
ENDCHAR
STARTCHAR uni054B
ENCODING 1355
SWIDTH 480 0
DWIDTH 8 0
BBX 7 10 1 1
BITMAP
78
CC
CE
4E
3E
1C
08
78
FC
76
ENDCHAR
STARTCHAR uni054C
ENCODING 1356
SWIDTH 480 0
DWIDTH 8 0
BBX 7 10 1 1
BITMAP
60
F0
F0
F0
FC
FE
F4
F0
F0
F0
ENDCHAR
STARTCHAR uni054D
ENCODING 1357
SWIDTH 480 0
DWIDTH 8 0
BBX 7 10 1 1
BITMAP
C4
CE
CE
CE
CE
CE
CE
CE
4C
78
ENDCHAR
STARTCHAR uni054E
ENCODING 1358
SWIDTH 480 0
DWIDTH 8 0
BBX 7 11 1 0
BITMAP
D8
D8
D8
D8
D8
D8
D8
78
18
1C
06
ENDCHAR
STARTCHAR uni054F
ENCODING 1359
SWIDTH 480 0
DWIDTH 8 0
BBX 7 10 1 1
BITMAP
38
64
C0
C0
70
08
0C
0E
8C
78
ENDCHAR
STARTCHAR uni0550
ENCODING 1360
SWIDTH 480 0
DWIDTH 8 0
BBX 7 10 1 1
BITMAP
78
CC
CE
C4
C0
C0
C0
C0
C0
C0
ENDCHAR
STARTCHAR uni0551
ENCODING 1361
SWIDTH 480 0
DWIDTH 8 0
BBX 7 10 1 1
BITMAP
38
6C
CE
4C
78
CC
0E
0E
4C
78
ENDCHAR
STARTCHAR uni0552
ENCODING 1362
SWIDTH 480 0
DWIDTH 8 0
BBX 7 10 1 1
BITMAP
C0
C0
C0
F8
E8
C8
CE
C0
C0
C0
ENDCHAR
STARTCHAR uni0553
ENCODING 1363
SWIDTH 480 0
DWIDTH 8 0
BBX 7 8 1 2
BITMAP
38
FC
FE
FE
FE
FE
FC
78
ENDCHAR
STARTCHAR uni0554
ENCODING 1364
SWIDTH 480 0
DWIDTH 8 0
BBX 7 10 0 1
BITMAP
1C
3E
36
3C
30
B0
F8
3C
30
30
ENDCHAR
STARTCHAR uni0555
ENCODING 1365
SWIDTH 480 0
DWIDTH 8 0
BBX 7 10 1 1
BITMAP
38
6C
CE
CE
CE
CE
CE
CE
4C
78
ENDCHAR
STARTCHAR uni0556
ENCODING 1366
SWIDTH 480 0
DWIDTH 8 0
BBX 7 10 1 1
BITMAP
60
F0
F0
F0
7C
3E
3E
3E
FE
7C
ENDCHAR
STARTCHAR uni0559
ENCODING 1369
SWIDTH 480 0
DWIDTH 8 0
BBX 2 3 1 8
BITMAP
40
C0
40
ENDCHAR
STARTCHAR uni055A
ENCODING 1370
SWIDTH 480 0
DWIDTH 8 0
BBX 2 3 1 8
BITMAP
C0
40
C0
ENDCHAR
STARTCHAR uni055B
ENCODING 1371
SWIDTH 480 0
DWIDTH 8 0
BBX 2 2 2 8
BITMAP
40
C0
ENDCHAR
STARTCHAR uni055C
ENCODING 1372
SWIDTH 480 0
DWIDTH 8 0
BBX 5 3 1 8
BITMAP
08
78
C0
ENDCHAR
STARTCHAR uni055D
ENCODING 1373
SWIDTH 480 0
DWIDTH 8 0
BBX 2 2 2 8
BITMAP
80
C0
ENDCHAR
STARTCHAR uni055E
ENCODING 1374
SWIDTH 480 0
DWIDTH 8 0
BBX 7 7 1 2
BITMAP
38
6C
FE
FE
FE
5C
08
ENDCHAR
STARTCHAR uni055F
ENCODING 1375
SWIDTH 480 0
DWIDTH 8 0
BBX 5 4 1 6
BITMAP
C0
C8
C8
78
ENDCHAR
STARTCHAR uni0561
ENCODING 1377
SWIDTH 480 0
DWIDTH 8 0
BBX 7 6 1 0
BITMAP
CE
CE
FE
FE
FE
6E
ENDCHAR
STARTCHAR uni0562
ENCODING 1378
SWIDTH 480 0
DWIDTH 8 0
BBX 7 8 1 -1
BITMAP
FC
CC
CE
C0
C0
FC
C0
C0
ENDCHAR
STARTCHAR uni0563
ENCODING 1379
SWIDTH 480 0
DWIDTH 8 0
BBX 8 9 0 -3
BITMAP
7C
CC
CC
CC
CC
7F
0C
0C
0C
ENDCHAR
STARTCHAR uni0564
ENCODING 1380
SWIDTH 480 0
DWIDTH 8 0
BBX 8 9 0 -3
BITMAP
F8
CC
CC
CC
CC
CF
0C
0C
0C
ENDCHAR
STARTCHAR uni0565
ENCODING 1381
SWIDTH 480 0
DWIDTH 8 0
BBX 7 8 0 1
BITMAP
40
40
7E
7C
40
46
46
DE
ENDCHAR
STARTCHAR uni0566
ENCODING 1382
SWIDTH 480 0
DWIDTH 8 0
BBX 8 9 0 -3
BITMAP
7C
CC
CC
CC
CC
7C
0C
0C
0F
ENDCHAR
STARTCHAR uni0567
ENCODING 1383
SWIDTH 480 0
DWIDTH 8 0
BBX 6 11 1 -1
BITMAP
C0
C0
F8
F8
C0
C0
C0
F0
08
0C
04
ENDCHAR
STARTCHAR uni0568
ENCODING 1384
SWIDTH 480 0
DWIDTH 8 0
BBX 7 9 1 -3
BITMAP
F8
CC
CE
CE
CE
CE
C0
C0
FC
ENDCHAR
STARTCHAR uni0569
ENCODING 1385
SWIDTH 480 0
DWIDTH 8 0
BBX 7 9 1 -3
BITMAP
F8
CC
CE
DE
FC
D8
C0
C0
C0
ENDCHAR
STARTCHAR uni056A
ENCODING 1386
SWIDTH 480 0
DWIDTH 8 0
BBX 7 10 0 1
BITMAP
0C
0C
0C
0C
7E
CC
CC
CC
CC
78
ENDCHAR
STARTCHAR uni056B
ENCODING 1387
SWIDTH 480 0
DWIDTH 8 0
BBX 7 13 1 -2
BITMAP
C0
C0
C0
C0
F8
CC
CE
CE
CE
CE
C0
C0
C0
ENDCHAR
STARTCHAR uni056C
ENCODING 1388
SWIDTH 480 0
DWIDTH 8 0
BBX 5 9 1 -3
BITMAP
E0
60
60
60
60
60
60
30
18
ENDCHAR
STARTCHAR uni056D
ENCODING 1389
SWIDTH 480 0
DWIDTH 8 0
BBX 7 13 0 -2
BITMAP
C0
C0
C0
C0
F6
DE
DE
DE
DE
DC
C0
C0
80
ENDCHAR
STARTCHAR uni056E
ENCODING 1390
SWIDTH 480 0
DWIDTH 8 0
BBX 6 9 1 0
BITMAP
60
30
18
7C
CC
C8
C8
D8
70
ENDCHAR
STARTCHAR uni056F
ENCODING 1391
SWIDTH 480 0
DWIDTH 8 0
BBX 7 13 1 -2
BITMAP
C0
C0
C0
C0
CC
CE
CE
CE
4E
7E
0E
0E
0E
ENDCHAR
STARTCHAR uni0570
ENCODING 1392
SWIDTH 480 0
DWIDTH 8 0
BBX 7 10 1 1
BITMAP
C0
C0
C0
C0
FC
CE
CE
CE
CE
CE
ENDCHAR
STARTCHAR uni0571
ENCODING 1393
SWIDTH 480 0
DWIDTH 8 0
BBX 7 9 1 0
BITMAP
18
18
00
7E
CE
CE
CE
CE
7E
ENDCHAR
STARTCHAR uni0572
ENCODING 1394
SWIDTH 480 0
DWIDTH 8 0
BBX 8 9 0 -3
BITMAP
F8
CC
CC
CC
CC
CC
0C
0C
0F
ENDCHAR
STARTCHAR uni0573
ENCODING 1395
SWIDTH 480 0
DWIDTH 8 0
BBX 7 10 1 1
BITMAP
38
64
40
40
FC
4E
4E
4E
6E
3E
ENDCHAR
STARTCHAR uni0574
ENCODING 1396
SWIDTH 480 0
DWIDTH 8 0
BBX 6 9 1 0
BITMAP
0C
0C
08
C8
C8
C8
C8
D8
78
ENDCHAR
STARTCHAR uni0575
ENCODING 1397
SWIDTH 480 0
DWIDTH 8 0
BBX 5 8 1 -1
BITMAP
38
08
08
08
08
08
08
F8
ENDCHAR
STARTCHAR uni0576
ENCODING 1398
SWIDTH 480 0
DWIDTH 8 0
BBX 7 10 1 1
BITMAP
38
68
C0
C0
CC
CE
CE
CE
4E
7E
ENDCHAR
STARTCHAR uni0577
ENCODING 1399
SWIDTH 480 0
DWIDTH 8 0
BBX 7 9 1 -3
BITMAP
78
CC
CE
0C
18
30
60
E0
FC
ENDCHAR
STARTCHAR uni0578
ENCODING 1400
SWIDTH 480 0
DWIDTH 8 0
BBX 7 6 1 0
BITMAP
F8
CC
CE
CE
CE
CE
ENDCHAR
STARTCHAR uni0579
ENCODING 1401
SWIDTH 480 0
DWIDTH 8 0
BBX 4 8 1 -1
BITMAP
60
60
60
30
60
C0
C0
70
ENDCHAR
STARTCHAR uni057A
ENCODING 1402
SWIDTH 480 0
DWIDTH 8 0
BBX 7 9 1 -3
BITMAP
CE
CE
FE
FE
FE
6E
0E
0E
0E
ENDCHAR
STARTCHAR uni057B
ENCODING 1403
SWIDTH 480 0
DWIDTH 8 0
BBX 7 9 1 -3
BITMAP
78
CC
CE
CE
6C
18
30
70
7C
ENDCHAR
STARTCHAR uni057C
ENCODING 1404
SWIDTH 480 0
DWIDTH 8 0
BBX 8 6 0 0
BITMAP
F8
CC
CC
CC
CC
C7
ENDCHAR
STARTCHAR uni057D
ENCODING 1405
SWIDTH 480 0
DWIDTH 8 0
BBX 7 6 1 0
BITMAP
CE
CE
CE
CE
CE
7E
ENDCHAR
STARTCHAR uni057E
ENCODING 1406
SWIDTH 480 0
DWIDTH 8 0
BBX 7 13 1 -2
BITMAP
08
08
08
08
C8
C8
C8
C8
D8
78
08
08
0E
ENDCHAR
STARTCHAR uni057F
ENCODING 1407
SWIDTH 480 0
DWIDTH 8 0
BBX 8 6 0 0
BITMAP
DE
DB
DB
DB
FB
FB
ENDCHAR
STARTCHAR uni0580
ENCODING 1408
SWIDTH 480 0
DWIDTH 8 0
BBX 7 9 1 -3
BITMAP
F8
CC
CE
CE
CE
CE
C0
C0
C0
ENDCHAR
STARTCHAR uni0581
ENCODING 1409
SWIDTH 480 0
DWIDTH 8 0
BBX 7 9 1 -3
BITMAP
7C
CC
CE
CE
CE
7E
0E
CC
7C
ENDCHAR
STARTCHAR uni0582
ENCODING 1410
SWIDTH 480 0
DWIDTH 8 0
BBX 5 6 1 0
BITMAP
F0
70
70
70
30
18
ENDCHAR
STARTCHAR uni0583
ENCODING 1411
SWIDTH 480 0
DWIDTH 8 0
BBX 8 13 0 -2
BITMAP
18
18
18
18
18
9A
DB
DB
FB
FB
18
18
18
ENDCHAR
STARTCHAR uni0584
ENCODING 1412
SWIDTH 480 0
DWIDTH 8 0
BBX 7 10 1 1
BITMAP
1C
16
30
30
FC
30
30
30
30
30
ENDCHAR
STARTCHAR uni0585
ENCODING 1413
SWIDTH 480 0
DWIDTH 8 0
BBX 7 6 1 0
BITMAP
78
CC
CE
CE
CC
78
ENDCHAR
STARTCHAR uni0586
ENCODING 1414
SWIDTH 480 0
DWIDTH 8 0
BBX 7 13 1 -2
BITMAP
70
F0
F0
F0
7C
3E
3E
FE
FE
7C
30
30
30
ENDCHAR
STARTCHAR uni0587
ENCODING 1415
SWIDTH 480 0
DWIDTH 8 0
BBX 7 10 1 1
BITMAP
C0
C0
C0
C0
C8
C8
C8
C8
48
7E
ENDCHAR
STARTCHAR uni0589
ENCODING 1417
SWIDTH 480 0
DWIDTH 8 0
BBX 2 5 2 3
BITMAP
40
C0
00
40
C0
ENDCHAR
STARTCHAR uni058A
ENCODING 1418
SWIDTH 480 0
DWIDTH 8 0
BBX 4 2 1 5
BITMAP
C0
30
ENDCHAR
STARTCHAR afii57799
ENCODING 1456
SWIDTH 480 0
DWIDTH 8 0
BBX 2 2 3 -2
BITMAP
C0
80
ENDCHAR
STARTCHAR afii57801
ENCODING 1457
SWIDTH 480 0
DWIDTH 8 0
BBX 6 2 1 -2
BITMAP
F4
44
ENDCHAR
STARTCHAR afii57800
ENCODING 1458
SWIDTH 480 0
DWIDTH 8 0
BBX 6 2 1 -2
BITMAP
04
F4
ENDCHAR
STARTCHAR afii57802
ENCODING 1459
SWIDTH 480 0
DWIDTH 8 0
BBX 7 2 0 -2
BITMAP
FE
60
ENDCHAR
STARTCHAR afii57793
ENCODING 1460
SWIDTH 480 0
DWIDTH 8 0
BBX 2 2 2 -1
BITMAP
C0
C0
ENDCHAR
STARTCHAR afii57794
ENCODING 1461
SWIDTH 480 0
DWIDTH 8 0
BBX 4 2 1 -1
BITMAP
F0
F0
ENDCHAR
STARTCHAR afii57795
ENCODING 1462
SWIDTH 480 0
DWIDTH 8 0
BBX 5 2 1 -2
BITMAP
D8
20
ENDCHAR
STARTCHAR afii57798
ENCODING 1463
SWIDTH 480 0
DWIDTH 8 0
BBX 5 1 1 0
BITMAP
F8
ENDCHAR
STARTCHAR afii57797
ENCODING 1464
SWIDTH 480 0
DWIDTH 8 0
BBX 5 2 1 -2
BITMAP
F8
70
ENDCHAR
STARTCHAR afii57806
ENCODING 1465
SWIDTH 480 0
DWIDTH 8 0
BBX 2 2 1 11
BITMAP
C0
C0
ENDCHAR
STARTCHAR uni05BA
ENCODING 1466
SWIDTH 480 0
DWIDTH 8 0
BBX 2 2 1 10
BITMAP
C0
C0
ENDCHAR
STARTCHAR afii57796
ENCODING 1467
SWIDTH 480 0
DWIDTH 8 0
BBX 6 3 0 -3
BITMAP
C0
B4
0C
ENDCHAR
STARTCHAR afii57807
ENCODING 1468
SWIDTH 480 0
DWIDTH 8 0
BBX 2 2 3 3
BITMAP
C0
80
ENDCHAR
STARTCHAR afii57839
ENCODING 1469
SWIDTH 480 0
DWIDTH 8 0
BBX 1 2 3 -2
BITMAP
80
80
ENDCHAR
STARTCHAR afii57645
ENCODING 1470
SWIDTH 480 0
DWIDTH 8 0
BBX 7 2 0 6
BITMAP
7E
FC
ENDCHAR
STARTCHAR afii57841
ENCODING 1471
SWIDTH 480 0
DWIDTH 8 0
BBX 5 1 1 9
BITMAP
F8
ENDCHAR
STARTCHAR afii57842
ENCODING 1472
SWIDTH 480 0
DWIDTH 8 0
BBX 2 8 1 0
BITMAP
C0
C0
C0
C0
C0
C0
C0
80
ENDCHAR
STARTCHAR afii57804
ENCODING 1473
SWIDTH 480 0
DWIDTH 8 0
BBX 2 2 5 9
BITMAP
C0
C0
ENDCHAR
STARTCHAR afii57803
ENCODING 1474
SWIDTH 480 0
DWIDTH 8 0
BBX 2 2 0 9
BITMAP
C0
C0
ENDCHAR
STARTCHAR afii57658
ENCODING 1475
SWIDTH 480 0
DWIDTH 8 0
BBX 2 5 1 1
BITMAP
40
C0
00
40
C0
ENDCHAR
STARTCHAR uni05C4
ENCODING 1476
SWIDTH 480 0
DWIDTH 8 0
BBX 2 2 3 9
BITMAP
C0
C0
ENDCHAR
STARTCHAR uni05C5
ENCODING 1477
SWIDTH 480 0
DWIDTH 8 0
BBX 2 2 1 -2
BITMAP
C0
C0
ENDCHAR
STARTCHAR uni05C6
ENCODING 1478
SWIDTH 480 0
DWIDTH 8 0
BBX 5 8 1 0
BITMAP
78
78
40
40
40
40
F8
F8
ENDCHAR
STARTCHAR uni05C7
ENCODING 1479
SWIDTH 480 0
DWIDTH 8 0
BBX 5 3 1 -3
BITMAP
F8
70
70
ENDCHAR
STARTCHAR afii57664
ENCODING 1488
SWIDTH 480 0
DWIDTH 8 0
BBX 7 8 0 0
BITMAP
CE
CE
6C
F8
D8
CC
C6
C6
ENDCHAR
STARTCHAR afii57665
ENCODING 1489
SWIDTH 480 0
DWIDTH 8 0
BBX 7 8 0 0
BITMAP
FC
FC
0C
0C
0C
0C
FE
FE
ENDCHAR
STARTCHAR afii57666
ENCODING 1490
SWIDTH 480 0
DWIDTH 8 0
BBX 5 8 1 0
BITMAP
F0
F0
30
30
30
30
F8
D8
ENDCHAR
STARTCHAR afii57667
ENCODING 1491
SWIDTH 480 0
DWIDTH 8 0
BBX 7 8 0 0
BITMAP
FE
FE
0C
0C
0C
0C
0C
04
ENDCHAR
STARTCHAR afii57668
ENCODING 1492
SWIDTH 480 0
DWIDTH 8 0
BBX 7 8 0 0
BITMAP
FC
FE
06
06
46
46
46
46
ENDCHAR
STARTCHAR afii57669
ENCODING 1493
SWIDTH 480 0
DWIDTH 8 0
BBX 3 8 1 0
BITMAP
E0
E0
60
60
60
60
60
20
ENDCHAR
STARTCHAR afii57670
ENCODING 1494
SWIDTH 480 0
DWIDTH 8 0
BBX 5 8 1 0
BITMAP
E0
F0
78
60
60
60
60
20
ENDCHAR
STARTCHAR afii57671
ENCODING 1495
SWIDTH 480 0
DWIDTH 8 0
BBX 7 8 0 0
BITMAP
FC
FE
46
46
46
46
46
46
ENDCHAR
STARTCHAR afii57672
ENCODING 1496
SWIDTH 480 0
DWIDTH 8 0
BBX 7 8 0 0
BITMAP
CC
E6
66
46
46
4E
7C
78
ENDCHAR
STARTCHAR afii57673
ENCODING 1497
SWIDTH 480 0
DWIDTH 8 0
BBX 3 5 1 3
BITMAP
E0
E0
60
60
20
ENDCHAR
STARTCHAR afii57674
ENCODING 1498
SWIDTH 480 0
DWIDTH 8 0
BBX 6 10 0 -1
BITMAP
FC
FC
08
08
08
08
08
08
08
08
ENDCHAR
STARTCHAR afii57675
ENCODING 1499
SWIDTH 480 0
DWIDTH 8 0
BBX 7 8 0 0
BITMAP
FC
FE
06
06
06
06
FE
FC
ENDCHAR
STARTCHAR afii57676
ENCODING 1500
SWIDTH 480 0
DWIDTH 8 0
BBX 7 11 0 0
BITMAP
C0
C0
C0
FC
FE
06
06
06
0C
18
10
ENDCHAR
STARTCHAR afii57677
ENCODING 1501
SWIDTH 480 0
DWIDTH 8 0
BBX 7 8 0 0
BITMAP
FC
FE
C6
C6
C6
C6
FE
FE
ENDCHAR
STARTCHAR afii57678
ENCODING 1502
SWIDTH 480 0
DWIDTH 8 0
BBX 7 8 0 0
BITMAP
FC
FE
6E
C6
C6
C6
DE
9C
ENDCHAR
STARTCHAR afii57679
ENCODING 1503
SWIDTH 480 0
DWIDTH 8 0
BBX 3 10 1 -1
BITMAP
E0
E0
60
60
60
60
60
60
60
60
ENDCHAR
STARTCHAR afii57680
ENCODING 1504
SWIDTH 480 0
DWIDTH 8 0
BBX 3 8 1 0
BITMAP
E0
E0
60
60
60
60
E0
C0
ENDCHAR
STARTCHAR afii57681
ENCODING 1505
SWIDTH 480 0
DWIDTH 8 0
BBX 7 8 0 0
BITMAP
FC
FE
46
46
46
46
7C
38
ENDCHAR
STARTCHAR afii57682
ENCODING 1506
SWIDTH 480 0
DWIDTH 8 0
BBX 7 8 0 0
BITMAP
CC
CE
C6
66
36
1E
7E
7C
ENDCHAR
STARTCHAR afii57683
ENCODING 1507
SWIDTH 480 0
DWIDTH 8 0
BBX 6 10 0 -1
BITMAP
FC
FC
CC
CC
CC
0C
0C
0C
0C
0C
ENDCHAR
STARTCHAR afii57684
ENCODING 1508
SWIDTH 480 0
DWIDTH 8 0
BBX 7 8 0 0
BITMAP
FC
FE
46
66
66
06
FE
FC
ENDCHAR
STARTCHAR afii57685
ENCODING 1509
SWIDTH 480 0
DWIDTH 8 0
BBX 7 10 0 -1
BITMAP
CE
CE
4C
78
70
60
40
40
40
40
ENDCHAR
STARTCHAR afii57686
ENCODING 1510
SWIDTH 480 0
DWIDTH 8 0
BBX 7 8 0 0
BITMAP
CE
E6
6C
38
18
0C
FE
FE
ENDCHAR
STARTCHAR afii57687
ENCODING 1511
SWIDTH 480 0
DWIDTH 8 0
BBX 7 10 0 -1
BITMAP
FC
FE
46
46
46
4C
58
50
40
40
ENDCHAR
STARTCHAR afii57688
ENCODING 1512
SWIDTH 480 0
DWIDTH 8 0
BBX 7 8 0 0
BITMAP
FC
FE
06
06
06
06
06
06
ENDCHAR
STARTCHAR afii57689
ENCODING 1513
SWIDTH 480 0
DWIDTH 8 0
BBX 7 8 0 0
BITMAP
DE
DE
DE
DE
F6
E6
FC
F8
ENDCHAR
STARTCHAR afii57690
ENCODING 1514
SWIDTH 480 0
DWIDTH 8 0
BBX 7 8 0 0
BITMAP
FC
FE
46
46
46
46
C6
C6
ENDCHAR
STARTCHAR afii57716
ENCODING 1520
SWIDTH 480 0
DWIDTH 8 0
BBX 7 8 0 0
BITMAP
EC
EE
66
66
66
66
66
26
ENDCHAR
STARTCHAR afii57717
ENCODING 1521
SWIDTH 480 0
DWIDTH 8 0
BBX 7 8 0 0
BITMAP
EC
EE
66
66
26
06
06
06
ENDCHAR
STARTCHAR afii57718
ENCODING 1522
SWIDTH 480 0
DWIDTH 8 0
BBX 7 5 0 3
BITMAP
EC
EE
66
66
26
ENDCHAR
STARTCHAR uni05F3
ENCODING 1523
SWIDTH 480 0
DWIDTH 8 0
BBX 2 2 3 7
BITMAP
C0
80
ENDCHAR
STARTCHAR uni05F4
ENCODING 1524
SWIDTH 480 0
DWIDTH 8 0
BBX 5 2 1 7
BITMAP
D8
90
ENDCHAR
STARTCHAR uni0600
ENCODING 1536
SWIDTH 480 0
DWIDTH 8 0
BBX 8 3 0 0
BITMAP
02
FE
FF
ENDCHAR
STARTCHAR uni0601
ENCODING 1537
SWIDTH 480 0
DWIDTH 8 0
BBX 6 2 0 0
BITMAP
50
FC
ENDCHAR
STARTCHAR uni0602
ENCODING 1538
SWIDTH 480 0
DWIDTH 8 0
BBX 7 3 0 -1
BITMAP
C0
FE
FE
ENDCHAR
STARTCHAR uni0603
ENCODING 1539
SWIDTH 480 0
DWIDTH 8 0
BBX 8 2 0 0
BITMAP
07
FF
ENDCHAR
STARTCHAR afii57388
ENCODING 1548
SWIDTH 480 0
DWIDTH 8 0
BBX 2 4 2 2
BITMAP
40
C0
C0
C0
ENDCHAR
STARTCHAR uni060D
ENCODING 1549
SWIDTH 480 0
DWIDTH 8 0
BBX 4 4 2 1
BITMAP
30
70
C0
80
ENDCHAR
STARTCHAR uni060E
ENCODING 1550
SWIDTH 480 0
DWIDTH 8 0
BBX 8 4 0 0
BITMAP
40
E3
FE
7C
ENDCHAR
STARTCHAR uni060F
ENCODING 1551
SWIDTH 480 0
DWIDTH 8 0
BBX 7 10 1 -2
BITMAP
38
78
70
38
70
7C
7E
7E
FC
18
ENDCHAR
STARTCHAR uni0610
ENCODING 1552
SWIDTH 480 0
DWIDTH 8 0
BBX 5 4 0 9
BITMAP
18
78
40
80
ENDCHAR
STARTCHAR uni0611
ENCODING 1553
SWIDTH 480 0
DWIDTH 8 0
BBX 5 4 0 9
BITMAP
18
60
78
80
ENDCHAR
STARTCHAR uni0612
ENCODING 1554
SWIDTH 480 0
DWIDTH 8 0
BBX 5 4 0 9
BITMAP
F0
C8
48
38
ENDCHAR
STARTCHAR uni0613
ENCODING 1555
SWIDTH 480 0
DWIDTH 8 0
BBX 6 5 0 7
BITMAP
20
B4
FC
8C
18
ENDCHAR
STARTCHAR uni0614
ENCODING 1556
SWIDTH 480 0
DWIDTH 8 0
BBX 7 2 0 10
BITMAP
02
FE
ENDCHAR
STARTCHAR uni0615
ENCODING 1557
SWIDTH 480 0
DWIDTH 8 0
BBX 4 4 0 9
BITMAP
40
70
70
E0
ENDCHAR
STARTCHAR afii57403
ENCODING 1563
SWIDTH 480 0
DWIDTH 8 0
BBX 2 8 3 2
BITMAP
40
C0
C0
C0
C0
00
C0
C0
ENDCHAR
STARTCHAR afii57407
ENCODING 1567
SWIDTH 480 0
DWIDTH 8 0
BBX 5 10 1 1
BITMAP
38
68
C0
C0
60
30
30
10
10
30
ENDCHAR
STARTCHAR afii57409
ENCODING 1569
SWIDTH 480 0
DWIDTH 8 0
BBX 5 5 1 1
BITMAP
70
70
78
F8
C0
ENDCHAR
STARTCHAR afii57410
ENCODING 1570
SWIDTH 480 0
DWIDTH 8 0
BBX 6 10 1 2
BITMAP
44
FC
00
30
30
30
30
30
30
30
ENDCHAR
STARTCHAR afii57411
ENCODING 1571
SWIDTH 480 0
DWIDTH 8 0
BBX 3 9 2 1
BITMAP
60
E0
C0
40
40
40
40
40
40
ENDCHAR
STARTCHAR afii57412
ENCODING 1572
SWIDTH 480 0
DWIDTH 8 0
BBX 7 12 1 -3
BITMAP
38
38
30
00
38
7C
3E
1E
0E
18
F8
E0
ENDCHAR
STARTCHAR afii57413
ENCODING 1573
SWIDTH 480 0
DWIDTH 8 0
BBX 3 12 2 -1
BITMAP
40
40
40
40
40
40
40
40
00
60
E0
C0
ENDCHAR
STARTCHAR afii57414
ENCODING 1574
SWIDTH 480 0
DWIDTH 8 0
BBX 8 10 0 -1
BITMAP
70
60
66
0F
8C
CE
C7
FF
7C
3C
ENDCHAR
STARTCHAR afii57415
ENCODING 1575
SWIDTH 480 0
DWIDTH 8 0
BBX 2 8 3 2
BITMAP
C0
C0
C0
C0
C0
C0
C0
C0
ENDCHAR
STARTCHAR afii57416
ENCODING 1576
SWIDTH 480 0
DWIDTH 8 0
BBX 7 5 0 0
BITMAP
C6
FE
FC
00
18
ENDCHAR
STARTCHAR afii57417
ENCODING 1577
SWIDTH 480 0
DWIDTH 8 0
BBX 5 8 1 1
BITMAP
F0
B0
60
F0
F8
D8
F8
70
ENDCHAR
STARTCHAR afii57418
ENCODING 1578
SWIDTH 480 0
DWIDTH 8 0
BBX 7 5 0 2
BITMAP
68
68
86
C6
FE
ENDCHAR
STARTCHAR afii57419
ENCODING 1579
SWIDTH 480 0
DWIDTH 8 0
BBX 7 8 0 1
BITMAP
30
30
68
68
86
C6
FE
7C
ENDCHAR
STARTCHAR afii57420
ENCODING 1580
SWIDTH 480 0
DWIDTH 8 0
BBX 7 9 0 -3
BITMAP
78
7E
38
60
C8
C8
C0
FE
7E
ENDCHAR
STARTCHAR afii57421
ENCODING 1581
SWIDTH 480 0
DWIDTH 8 0
BBX 7 9 0 -3
BITMAP
78
7E
38
60
C0
C0
C0
FE
7E
ENDCHAR
STARTCHAR afii57422
ENCODING 1582
SWIDTH 480 0
DWIDTH 8 0
BBX 7 11 0 -2
BITMAP
18
18
30
7E
5E
20
60
C0
C0
C0
7E
ENDCHAR
STARTCHAR afii57423
ENCODING 1583
SWIDTH 480 0
DWIDTH 8 0
BBX 5 5 1 2
BITMAP
60
70
18
18
F8
ENDCHAR
STARTCHAR afii57424
ENCODING 1584
SWIDTH 480 0
DWIDTH 8 0
BBX 5 8 1 1
BITMAP
60
20
60
70
38
18
F8
F0
ENDCHAR
STARTCHAR afii57425
ENCODING 1585
SWIDTH 480 0
DWIDTH 8 0
BBX 6 7 0 -1
BITMAP
0C
0C
0C
1C
38
F0
C0
ENDCHAR
STARTCHAR afii57426
ENCODING 1586
SWIDTH 480 0
DWIDTH 8 0
BBX 6 10 0 -2
BITMAP
08
08
08
0C
0C
0C
1C
F8
E0
80
ENDCHAR
STARTCHAR afii57427
ENCODING 1587
SWIDTH 480 0
DWIDTH 8 0
BBX 8 6 0 -1
BITMAP
1D
9F
9E
98
F8
F0
ENDCHAR
STARTCHAR afii57428
ENCODING 1588
SWIDTH 480 0
DWIDTH 8 0
BBX 8 11 0 -1
BITMAP
0C
04
0B
0B
16
1D
9F
9E
D8
F8
70
ENDCHAR
STARTCHAR afii57429
ENCODING 1589
SWIDTH 480 0
DWIDTH 8 0
BBX 8 7 0 0
BITMAP
06
1F
9F
9E
98
F8
F0
ENDCHAR
STARTCHAR afii57430
ENCODING 1590
SWIDTH 480 0
DWIDTH 8 0
BBX 8 9 0 -1
BITMAP
06
06
06
1F
9F
9E
98
F8
F0
ENDCHAR
STARTCHAR afii57431
ENCODING 1591
SWIDTH 480 0
DWIDTH 8 0
BBX 8 8 0 2
BITMAP
60
60
60
60
6E
7B
73
FF
ENDCHAR
STARTCHAR afii57432
ENCODING 1592
SWIDTH 480 0
DWIDTH 8 0
BBX 8 8 0 2
BITMAP
60
64
6C
64
6E
7B
73
FF
ENDCHAR
STARTCHAR afii57433
ENCODING 1593
SWIDTH 480 0
DWIDTH 8 0
BBX 6 9 1 -3
BITMAP
70
70
58
70
E0
C0
C0
FC
7C
ENDCHAR
STARTCHAR afii57434
ENCODING 1594
SWIDTH 480 0
DWIDTH 8 0
BBX 6 11 1 -2
BITMAP
20
20
30
70
70
70
70
E0
C0
C0
7C
ENDCHAR
STARTCHAR afii57440
ENCODING 1600
SWIDTH 480 0
DWIDTH 8 0
BBX 8 2 0 1
BITMAP
FF
FE
ENDCHAR
STARTCHAR afii57441
ENCODING 1601
SWIDTH 480 0
DWIDTH 8 0
BBX 7 8 0 1
BITMAP
08
0C
0C
1E
DE
CE
FE
7C
ENDCHAR
STARTCHAR afii57442
ENCODING 1602
SWIDTH 480 0
DWIDTH 8 0
BBX 7 10 0 0
BITMAP
3C
3C
08
1C
9E
DE
DE
C6
FC
78
ENDCHAR
STARTCHAR afii57443
ENCODING 1603
SWIDTH 480 0
DWIDTH 8 0
BBX 7 8 1 1
BITMAP
0E
2E
6E
6E
4E
CE
FC
78
ENDCHAR
STARTCHAR afii57444
ENCODING 1604
SWIDTH 480 0
DWIDTH 8 0
BBX 7 11 1 0
BITMAP
04
0E
0E
0E
0E
0E
CE
CE
CE
7C
38
ENDCHAR
STARTCHAR afii57445
ENCODING 1605
SWIDTH 480 0
DWIDTH 8 0
BBX 5 8 1 -2
BITMAP
38
78
78
F8
C0
C0
C0
C0
ENDCHAR
STARTCHAR afii57446
ENCODING 1606
SWIDTH 480 0
DWIDTH 8 0
BBX 7 7 0 0
BITMAP
30
B6
C6
C6
C6
FC
7C
ENDCHAR
STARTCHAR afii57470
ENCODING 1607
SWIDTH 480 0
DWIDTH 8 0
BBX 5 5 1 2
BITMAP
E0
F0
D8
D8
F0
ENDCHAR
STARTCHAR afii57448
ENCODING 1608
SWIDTH 480 0
DWIDTH 8 0
BBX 6 8 0 -2
BITMAP
38
7C
7C
3C
0C
1C
78
F0
ENDCHAR
STARTCHAR afii57449
ENCODING 1609
SWIDTH 480 0
DWIDTH 8 0
BBX 8 7 0 0
BITMAP
07
0E
CE
CF
C3
FE
7C
ENDCHAR
STARTCHAR afii57450
ENCODING 1610
SWIDTH 480 0
DWIDTH 8 0
BBX 8 9 0 -3
BITMAP
07
0E
CE
CF
C3
FE
7C
3C
3C
ENDCHAR
STARTCHAR afii57451
ENCODING 1611
SWIDTH 480 0
DWIDTH 8 0
BBX 3 4 0 9
BITMAP
60
E0
60
40
ENDCHAR
STARTCHAR afii57452
ENCODING 1612
SWIDTH 480 0
DWIDTH 8 0
BBX 5 5 0 6
BITMAP
18
F8
F8
60
40
ENDCHAR
STARTCHAR afii57453
ENCODING 1613
SWIDTH 480 0
DWIDTH 8 0
BBX 3 4 0 -2
BITMAP
40
E0
E0
C0
ENDCHAR
STARTCHAR afii57454
ENCODING 1614
SWIDTH 480 0
DWIDTH 8 0
BBX 3 2 0 11
BITMAP
60
C0
ENDCHAR
STARTCHAR afii57455
ENCODING 1615
SWIDTH 480 0
DWIDTH 8 0
BBX 3 4 0 9
BITMAP
60
60
60
C0
ENDCHAR
STARTCHAR afii57456
ENCODING 1616
SWIDTH 480 0
DWIDTH 8 0
BBX 2 2 0 -2
BITMAP
40
C0
ENDCHAR
STARTCHAR afii57457
ENCODING 1617
SWIDTH 480 0
DWIDTH 8 0
BBX 4 2 0 8
BITMAP
D0
F0
ENDCHAR
STARTCHAR afii57458
ENCODING 1618
SWIDTH 480 0
DWIDTH 8 0
BBX 3 2 0 9
BITMAP
E0
E0
ENDCHAR
STARTCHAR uni0653
ENCODING 1619
SWIDTH 480 0
DWIDTH 8 0
BBX 6 2 1 10
BITMAP
44
FC
ENDCHAR
STARTCHAR uni0654
ENCODING 1620
SWIDTH 480 0
DWIDTH 8 0
BBX 3 3 2 7
BITMAP
60
E0
C0
ENDCHAR
STARTCHAR uni0655
ENCODING 1621
SWIDTH 480 0
DWIDTH 8 0
BBX 3 3 2 -1
BITMAP
60
E0
C0
ENDCHAR
STARTCHAR uni0656
ENCODING 1622
SWIDTH 480 0
DWIDTH 8 0
BBX 1 2 3 -2
BITMAP
80
80
ENDCHAR
STARTCHAR uni0657
ENCODING 1623
SWIDTH 480 0
DWIDTH 8 0
BBX 3 4 2 8
BITMAP
60
E0
C0
C0
ENDCHAR
STARTCHAR uni0658
ENCODING 1624
SWIDTH 480 0
DWIDTH 8 0
BBX 3 2 1 6
BITMAP
A0
E0
ENDCHAR
STARTCHAR afii57392
ENCODING 1632
SWIDTH 480 0
DWIDTH 8 0
BBX 3 3 1 3
BITMAP
40
E0
E0
ENDCHAR
STARTCHAR afii57393
ENCODING 1633
SWIDTH 480 0
DWIDTH 8 0
BBX 4 10 1 1
BITMAP
C0
C0
40
40
60
70
70
70
70
20
ENDCHAR
STARTCHAR afii57394
ENCODING 1634
SWIDTH 480 0
DWIDTH 8 0
BBX 7 10 1 1
BITMAP
C4
CE
7E
7C
70
70
70
70
70
20
ENDCHAR
STARTCHAR afii57395
ENCODING 1635
SWIDTH 480 0
DWIDTH 8 0
BBX 7 10 1 1
BITMAP
DE
DE
7E
7E
70
70
70
70
70
20
ENDCHAR
STARTCHAR afii57396
ENCODING 1636
SWIDTH 480 0
DWIDTH 8 0
BBX 5 10 1 1
BITMAP
70
F0
C0
F0
70
E0
C0
F0
F8
30
ENDCHAR
STARTCHAR afii57397
ENCODING 1637
SWIDTH 480 0
DWIDTH 8 0
BBX 7 8 1 2
BITMAP
70
38
38
4C
CC
CE
CE
FC
ENDCHAR
STARTCHAR afii57398
ENCODING 1638
SWIDTH 480 0
DWIDTH 8 0
BBX 7 10 1 1
BITMAP
C8
F8
08
08
08
08
08
0C
0E
04
ENDCHAR
STARTCHAR afii57399
ENCODING 1639
SWIDTH 480 0
DWIDTH 8 0
BBX 7 10 1 1
BITMAP
C4
CE
4C
48
78
78
78
30
30
10
ENDCHAR
STARTCHAR afii57400
ENCODING 1640
SWIDTH 480 0
DWIDTH 8 0
BBX 7 10 1 1
BITMAP
30
30
38
78
78
48
48
CC
CE
04
ENDCHAR
STARTCHAR afii57401
ENCODING 1641
SWIDTH 480 0
DWIDTH 8 0
BBX 5 9 1 2
BITMAP
70
D8
D8
F8
78
18
18
18
18
ENDCHAR
STARTCHAR afii57381
ENCODING 1642
SWIDTH 480 0
DWIDTH 8 0
BBX 7 8 1 2
BITMAP
42
E6
6C
18
34
6E
CE
84
ENDCHAR
STARTCHAR uni066B
ENCODING 1643
SWIDTH 480 0
DWIDTH 8 0
BBX 4 6 1 -1
BITMAP
30
30
60
40
C0
C0
ENDCHAR
STARTCHAR uni066C
ENCODING 1644
SWIDTH 480 0
DWIDTH 8 0
BBX 2 4 3 7
BITMAP
C0
C0
C0
80
ENDCHAR
STARTCHAR afii63167
ENCODING 1645
SWIDTH 480 0
DWIDTH 8 0
BBX 5 6 1 5
BITMAP
20
30
F8
78
70
48
ENDCHAR
STARTCHAR uni066E
ENCODING 1646
SWIDTH 480 0
DWIDTH 8 0
BBX 7 3 0 1
BITMAP
C6
FE
FC
ENDCHAR
STARTCHAR uni066F
ENCODING 1647
SWIDTH 480 0
DWIDTH 8 0
BBX 7 8 0 -1
BITMAP
1C
1E
D6
DE
CE
CC
78
30
ENDCHAR
STARTCHAR uni0670
ENCODING 1648
SWIDTH 480 0
DWIDTH 8 0
BBX 2 4 1 8
BITMAP
C0
C0
C0
C0
ENDCHAR
STARTCHAR uni0671
ENCODING 1649
SWIDTH 480 0
DWIDTH 8 0
BBX 5 9 1 1
BITMAP
78
F8
00
20
60
60
60
60
60
ENDCHAR
STARTCHAR uni0672
ENCODING 1650
SWIDTH 480 0
DWIDTH 8 0
BBX 3 10 1 2
BITMAP
60
60
E0
80
20
60
60
60
60
60
ENDCHAR
STARTCHAR uni0673
ENCODING 1651
SWIDTH 480 0
DWIDTH 8 0
BBX 3 13 1 -2
BITMAP
60
60
60
60
60
60
60
60
00
60
60
E0
80
ENDCHAR
STARTCHAR uni0674
ENCODING 1652
SWIDTH 480 0
DWIDTH 8 0
BBX 3 3 2 7
BITMAP
60
E0
C0
ENDCHAR
STARTCHAR uni0675
ENCODING 1653
SWIDTH 480 0
DWIDTH 8 0
BBX 5 8 2 2
BITMAP
D8
D8
D8
D0
C0
C0
C0
C0
ENDCHAR
STARTCHAR uni0676
ENCODING 1654
SWIDTH 480 0
DWIDTH 8 0
BBX 7 12 0 -3
BITMAP
0E
0E
0C
00
38
6C
7C
3C
0C
18
F0
E0
ENDCHAR
STARTCHAR uni0677
ENCODING 1655
SWIDTH 480 0
DWIDTH 8 0
BBX 7 13 0 -2
BITMAP
60
6C
6E
CC
10
38
7C
7C
0C
0C
38
F0
E0
ENDCHAR
STARTCHAR uni0678
ENCODING 1656
SWIDTH 480 0
DWIDTH 8 0
BBX 8 11 0 0
BITMAP
07
0E
04
04
0E
18
DC
CE
C6
FC
78
ENDCHAR
STARTCHAR afii57511
ENCODING 1657
SWIDTH 480 0
DWIDTH 8 0
BBX 7 8 0 1
BITMAP
40
70
78
70
86
C6
FE
7C
ENDCHAR
STARTCHAR uni067A
ENCODING 1658
SWIDTH 480 0
DWIDTH 8 0
BBX 7 7 0 2
BITMAP
30
30
30
30
C6
FE
FC
ENDCHAR
STARTCHAR uni067B
ENCODING 1659
SWIDTH 480 0
DWIDTH 8 0
BBX 7 8 0 -3
BITMAP
C6
FE
FC
00
18
00
18
10
ENDCHAR
STARTCHAR uni067C
ENCODING 1660
SWIDTH 480 0
DWIDTH 8 0
BBX 7 7 0 1
BITMAP
68
68
86
C6
FE
18
38
ENDCHAR
STARTCHAR uni067D
ENCODING 1661
SWIDTH 480 0
DWIDTH 8 0
BBX 7 6 0 1
BITMAP
68
28
30
F6
FE
FC
ENDCHAR
STARTCHAR afii57506
ENCODING 1662
SWIDTH 480 0
DWIDTH 8 0
BBX 7 8 0 -3
BITMAP
C6
FE
FC
00
68
00
30
30
ENDCHAR
STARTCHAR uni067F
ENCODING 1663
SWIDTH 480 0
DWIDTH 8 0
BBX 7 7 0 2
BITMAP
68
68
28
68
C6
FE
FC
ENDCHAR
STARTCHAR uni0680
ENCODING 1664
SWIDTH 480 0
DWIDTH 8 0
BBX 7 8 0 -3
BITMAP
C6
FE
FC
00
68
00
68
28
ENDCHAR
STARTCHAR uni0681
ENCODING 1665
SWIDTH 480 0
DWIDTH 8 0
BBX 7 13 0 -2
BITMAP
38
70
20
20
7C
5E
3C
60
C0
C0
C0
FE
7E
ENDCHAR
STARTCHAR uni0682
ENCODING 1666
SWIDTH 480 0
DWIDTH 8 0
BBX 7 14 0 -3
BITMAP
18
10
18
18
30
7E
1E
30
60
C0
C0
C0
7E
3E
ENDCHAR
STARTCHAR uni0683
ENCODING 1667
SWIDTH 480 0
DWIDTH 8 0
BBX 7 9 0 -3
BITMAP
78
7E
38
60
F4
FC
C0
FE
7E
ENDCHAR
STARTCHAR uni0684
ENCODING 1668
SWIDTH 480 0
DWIDTH 8 0
BBX 7 9 0 -3
BITMAP
78
7E
38
68
C8
C8
C8
FE
7E
ENDCHAR
STARTCHAR uni0685
ENCODING 1669
SWIDTH 480 0
DWIDTH 8 0
BBX 7 14 0 -3
BITMAP
30
30
68
68
30
7E
1E
30
60
C0
C0
C0
7E
3E
ENDCHAR
STARTCHAR afii57507
ENCODING 1670
SWIDTH 480 0
DWIDTH 8 0
BBX 7 9 0 -3
BITMAP
78
7E
38
60
FC
C0
D8
FE
7E
ENDCHAR
STARTCHAR uni0687
ENCODING 1671
SWIDTH 480 0
DWIDTH 8 0
BBX 7 9 0 -3
BITMAP
78
7E
38
7E
D6
DE
DE
FE
7E
ENDCHAR
STARTCHAR afii57512
ENCODING 1672
SWIDTH 480 0
DWIDTH 8 0
BBX 5 10 1 2
BITMAP
40
40
50
E0
20
70
38
18
F8
F0
ENDCHAR
STARTCHAR uni0689
ENCODING 1673
SWIDTH 480 0
DWIDTH 8 0
BBX 5 7 1 1
BITMAP
60
70
18
18
F8
60
70
ENDCHAR
STARTCHAR uni068A
ENCODING 1674
SWIDTH 480 0
DWIDTH 8 0
BBX 5 8 1 0
BITMAP
60
70
18
18
F8
00
60
60
ENDCHAR
STARTCHAR uni068B
ENCODING 1675
SWIDTH 480 0
DWIDTH 8 0
BBX 5 13 1 -1
BITMAP
40
40
50
E0
20
70
38
18
F8
F0
20
60
20
ENDCHAR
STARTCHAR uni068C
ENCODING 1676
SWIDTH 480 0
DWIDTH 8 0
BBX 5 8 1 1
BITMAP
58
70
60
70
38
18
F8
F0
ENDCHAR
STARTCHAR uni068D
ENCODING 1677
SWIDTH 480 0
DWIDTH 8 0
BBX 5 8 1 0
BITMAP
60
70
18
18
F8
00
58
58
ENDCHAR
STARTCHAR uni068E
ENCODING 1678
SWIDTH 480 0
DWIDTH 8 0
BBX 5 10 1 2
BITMAP
40
40
B0
F0
20
70
38
18
F8
F0
ENDCHAR
STARTCHAR uni068F
ENCODING 1679
SWIDTH 480 0
DWIDTH 8 0
BBX 5 10 1 2
BITMAP
58
58
20
60
20
70
38
18
F8
F0
ENDCHAR
STARTCHAR uni0690
ENCODING 1680
SWIDTH 480 0
DWIDTH 8 0
BBX 5 10 1 2
BITMAP
58
58
50
58
20
70
38
18
F8
F0
ENDCHAR
STARTCHAR afii57513
ENCODING 1681
SWIDTH 480 0
DWIDTH 8 0
BBX 6 11 0 -1
BITMAP
20
28
38
78
18
0C
0C
0C
1C
78
F0
ENDCHAR
STARTCHAR uni0692
ENCODING 1682
SWIDTH 480 0
DWIDTH 8 0
BBX 6 11 0 -1
BITMAP
18
18
08
00
0C
0C
0C
1C
38
F0
C0
ENDCHAR
STARTCHAR uni0693
ENCODING 1683
SWIDTH 480 0
DWIDTH 8 0
BBX 6 7 0 -2
BITMAP
0C
0C
0C
1C
38
F8
D8
ENDCHAR
STARTCHAR uni0694
ENCODING 1684
SWIDTH 480 0
DWIDTH 8 0
BBX 7 7 0 -1
BITMAP
0C
0C
0C
1C
3C
FE
C6
ENDCHAR
STARTCHAR uni0695
ENCODING 1685
SWIDTH 480 0
DWIDTH 8 0
BBX 7 8 0 -3
BITMAP
0C
0C
0C
1C
3E
FA
C4
04
ENDCHAR
STARTCHAR uni0696
ENCODING 1686
SWIDTH 480 0
DWIDTH 8 0
BBX 6 7 0 -1
BITMAP
0C
0C
6C
7C
3C
FC
CC
ENDCHAR
STARTCHAR uni0697
ENCODING 1687
SWIDTH 480 0
DWIDTH 8 0
BBX 6 10 0 -2
BITMAP
3C
3C
08
0C
0C
0C
1C
F8
E0
80
ENDCHAR
STARTCHAR afii57508
ENCODING 1688
SWIDTH 480 0
DWIDTH 8 0
BBX 6 11 0 -1
BITMAP
18
10
3C
3C
0C
0C
0C
0C
1C
78
F0
ENDCHAR
STARTCHAR uni0699
ENCODING 1689
SWIDTH 480 0
DWIDTH 8 0
BBX 6 11 0 -1
BITMAP
3C
34
3C
3C
0C
0C
0C
0C
1C
78
F0
ENDCHAR
STARTCHAR uni069A
ENCODING 1690
SWIDTH 480 0
DWIDTH 8 0
BBX 8 8 0 0
BITMAP
0C
0C
14
1D
9F
88
DE
FE
ENDCHAR
STARTCHAR uni069B
ENCODING 1691
SWIDTH 480 0
DWIDTH 8 0
BBX 8 8 0 -3
BITMAP
1D
9F
9E
98
FB
E0
0C
04
ENDCHAR
STARTCHAR uni069C
ENCODING 1692
SWIDTH 480 0
DWIDTH 8 0
BBX 8 12 0 -3
BITMAP
08
18
1E
1E
14
1D
9F
9E
DB
FB
64
0C
ENDCHAR
STARTCHAR uni069D
ENCODING 1693
SWIDTH 480 0
DWIDTH 8 0
BBX 8 7 0 0
BITMAP
06
1F
9F
9E
9A
FB
F2
ENDCHAR
STARTCHAR uni069E
ENCODING 1694
SWIDTH 480 0
DWIDTH 8 0
BBX 8 11 0 0
BITMAP
08
08
16
1E
00
16
1F
9F
88
D8
F8
ENDCHAR
STARTCHAR uni069F
ENCODING 1695
SWIDTH 480 0
DWIDTH 8 0
BBX 8 9 0 1
BITMAP
0C
64
6B
6B
66
6F
7B
FF
FE
ENDCHAR
STARTCHAR uni06A0
ENCODING 1696
SWIDTH 480 0
DWIDTH 8 0
BBX 5 14 0 -3
BITMAP
60
20
58
58
30
70
40
70
60
C0
C0
C8
78
30
ENDCHAR
STARTCHAR uni06A1
ENCODING 1697
SWIDTH 480 0
DWIDTH 8 0
BBX 7 5 0 2
BITMAP
0C
1E
DE
CE
FE
ENDCHAR
STARTCHAR uni06A2
ENCODING 1698
SWIDTH 480 0
DWIDTH 8 0
BBX 7 8 0 0
BITMAP
0C
1E
DE
CE
FE
00
0C
0C
ENDCHAR
STARTCHAR uni06A3
ENCODING 1699
SWIDTH 480 0
DWIDTH 8 0
BBX 7 10 0 0
BITMAP
08
0C
0C
1E
DE
CE
FE
7C
30
30
ENDCHAR
STARTCHAR afii57505
ENCODING 1700
SWIDTH 480 0
DWIDTH 8 0
BBX 7 10 0 2
BITMAP
08
08
16
1E
0C
1E
5E
CE
FE
FC
ENDCHAR
STARTCHAR uni06A5
ENCODING 1701
SWIDTH 480 0
DWIDTH 8 0
BBX 8 10 0 -2
BITMAP
0C
1E
DE
CE
FE
00
0B
0B
04
0C
ENDCHAR
STARTCHAR uni06A6
ENCODING 1702
SWIDTH 480 0
DWIDTH 8 0
BBX 7 10 0 2
BITMAP
1E
1E
16
1E
0C
1E
5E
CE
FE
FC
ENDCHAR
STARTCHAR uni06A7
ENCODING 1703
SWIDTH 480 0
DWIDTH 8 0
BBX 7 10 0 0
BITMAP
08
08
08
1C
9E
DE
DE
C6
FC
78
ENDCHAR
STARTCHAR uni06A8
ENCODING 1704
SWIDTH 480 0
DWIDTH 8 0
BBX 7 12 0 -1
BITMAP
18
10
3C
3C
1C
1C
16
DE
DE
C6
FC
78
ENDCHAR
STARTCHAR uni06A9
ENCODING 1705
SWIDTH 480 0
DWIDTH 8 0
BBX 8 7 0 2
BITMAP
03
07
0C
0C
86
FE
FC
ENDCHAR
STARTCHAR uni06AA
ENCODING 1706
SWIDTH 480 0
DWIDTH 8 0
BBX 8 6 0 1
BITMAP
18
70
7E
7F
FF
FE
ENDCHAR
STARTCHAR uni06AB
ENCODING 1707
SWIDTH 480 0
DWIDTH 8 0
BBX 8 8 0 1
BITMAP
03
06
0F
1A
0C
CC
FC
78
ENDCHAR
STARTCHAR uni06AC
ENCODING 1708
SWIDTH 480 0
DWIDTH 8 0
BBX 7 10 1 2
BITMAP
18
18
04
2E
6E
6E
6E
0E
FE
7C
ENDCHAR
STARTCHAR uni06AD
ENCODING 1709
SWIDTH 480 0
DWIDTH 8 0
BBX 7 11 1 1
BITMAP
40
40
F0
FE
2E
6E
6E
4E
CE
FC
78
ENDCHAR
STARTCHAR uni06AE
ENCODING 1710
SWIDTH 480 0
DWIDTH 8 0
BBX 7 12 1 -3
BITMAP
0E
2E
6E
6E
4E
CE
FC
7C
28
28
10
30
ENDCHAR
STARTCHAR afii57509
ENCODING 1711
SWIDTH 480 0
DWIDTH 8 0
BBX 8 8 0 2
BITMAP
02
06
0F
1E
0C
06
C6
FE
ENDCHAR
STARTCHAR uni06B0
ENCODING 1712
SWIDTH 480 0
DWIDTH 8 0
BBX 8 8 0 2
BITMAP
04
0F
1E
3F
1C
0C
CC
FC
ENDCHAR
STARTCHAR uni06B1
ENCODING 1713
SWIDTH 480 0
DWIDTH 8 0
BBX 8 11 0 1
BITMAP
1E
16
02
04
0F
1E
0C
06
C6
FE
7C
ENDCHAR
STARTCHAR uni06B2
ENCODING 1714
SWIDTH 480 0
DWIDTH 8 0
BBX 8 11 0 0
BITMAP
02
06
0F
1E
0C
06
C6
FE
00
68
68
ENDCHAR
STARTCHAR uni06B3
ENCODING 1715
SWIDTH 480 0
DWIDTH 8 0
BBX 8 13 0 -2
BITMAP
02
06
0F
1E
0C
06
C6
FE
00
18
18
10
18
ENDCHAR
STARTCHAR uni06B4
ENCODING 1716
SWIDTH 480 0
DWIDTH 8 0
BBX 8 11 0 1
BITMAP
60
20
5A
5C
1F
1E
0C
06
C6
FE
7C
ENDCHAR
STARTCHAR uni06B5
ENCODING 1717
SWIDTH 480 0
DWIDTH 8 0
BBX 7 13 1 0
BITMAP
0E
0C
08
00
0C
0E
0E
0E
CE
CE
CC
7C
38
ENDCHAR
STARTCHAR uni06B6
ENCODING 1718
SWIDTH 480 0
DWIDTH 8 0
BBX 7 13 1 -1
BITMAP
08
08
04
0E
0E
0E
0E
0E
CE
CE
FC
78
30
ENDCHAR
STARTCHAR uni06B7
ENCODING 1719
SWIDTH 480 0
DWIDTH 8 0
BBX 7 13 1 0
BITMAP
30
10
28
28
04
0E
0E
0E
CE
CE
CC
7C
38
ENDCHAR
STARTCHAR uni06B8
ENCODING 1720
SWIDTH 480 0
DWIDTH 8 0
BBX 7 14 1 -3
BITMAP
0E
0E
0E
0E
0E
0E
CE
CE
CE
78
78
78
30
10
ENDCHAR
STARTCHAR uni06B9
ENCODING 1721
SWIDTH 480 0
DWIDTH 8 0
BBX 7 9 0 -3
BITMAP
30
B6
C6
C6
C6
FC
78
18
08
ENDCHAR
STARTCHAR afii57514
ENCODING 1722
SWIDTH 480 0
DWIDTH 8 0
BBX 7 6 0 -1
BITMAP
06
C6
C6
C6
FE
7C
ENDCHAR
STARTCHAR uni06BB
ENCODING 1723
SWIDTH 480 0
DWIDTH 8 0
BBX 7 11 0 -1
BITMAP
40
70
78
70
06
C6
C6
C6
CE
7C
38
ENDCHAR
STARTCHAR uni06BC
ENCODING 1724
SWIDTH 480 0
DWIDTH 8 0
BBX 7 8 0 -2
BITMAP
30
B6
C6
C6
C6
FC
7C
18
ENDCHAR
STARTCHAR uni06BD
ENCODING 1725
SWIDTH 480 0
DWIDTH 8 0
BBX 7 10 0 0
BITMAP
30
30
28
68
86
C6
C6
C6
FC
7C
ENDCHAR
STARTCHAR uni06BE
ENCODING 1726
SWIDTH 480 0
DWIDTH 8 0
BBX 7 5 0 2
BITMAP
18
3C
6E
7E
FE
ENDCHAR
STARTCHAR uni06BF
ENCODING 1727
SWIDTH 480 0
DWIDTH 8 0
BBX 7 11 0 -2
BITMAP
18
18
30
7E
5E
20
7C
FC
D0
D8
7E
ENDCHAR
STARTCHAR uni06C0
ENCODING 1728
SWIDTH 480 0
DWIDTH 8 0
BBX 5 10 1 1
BITMAP
60
E0
C0
80
E0
F0
D8
F8
F0
20
ENDCHAR
STARTCHAR uni06C1
ENCODING 1729
SWIDTH 480 0
DWIDTH 8 0
BBX 5 3 2 1
BITMAP
60
F8
98
ENDCHAR
STARTCHAR uni06C2
ENCODING 1730
SWIDTH 480 0
DWIDTH 8 0
BBX 5 7 2 2
BITMAP
60
E0
C0
00
60
F8
98
ENDCHAR
STARTCHAR uni06C3
ENCODING 1731
SWIDTH 480 0
DWIDTH 8 0
BBX 5 6 2 1
BITMAP
F0
D0
00
60
F8
98
ENDCHAR
STARTCHAR uni06C4
ENCODING 1732
SWIDTH 480 0
DWIDTH 8 0
BBX 6 8 0 -2
BITMAP
38
7C
3C
1C
6C
7C
78
F0
ENDCHAR
STARTCHAR uni06C5
ENCODING 1733
SWIDTH 480 0
DWIDTH 8 0
BBX 6 8 0 -2
BITMAP
38
7C
7C
3C
3C
1C
78
F0
ENDCHAR
STARTCHAR uni06C6
ENCODING 1734
SWIDTH 480 0
DWIDTH 8 0
BBX 6 12 0 -3
BITMAP
28
30
10
00
38
6C
7C
3C
0C
18
F0
E0
ENDCHAR
STARTCHAR uni06C7
ENCODING 1735
SWIDTH 480 0
DWIDTH 8 0
BBX 6 13 0 -2
BITMAP
38
38
10
60
10
38
7C
7C
0C
0C
38
F0
E0
ENDCHAR
STARTCHAR uni06C8
ENCODING 1736
SWIDTH 480 0
DWIDTH 8 0
BBX 6 12 0 -3
BITMAP
30
30
30
00
38
6C
7C
3C
0C
18
F0
E0
ENDCHAR
STARTCHAR uni06C9
ENCODING 1737
SWIDTH 480 0
DWIDTH 8 0
BBX 6 12 0 -3
BITMAP
10
38
68
00
38
6C
7C
3C
0C
18
F0
E0
ENDCHAR
STARTCHAR uni06CA
ENCODING 1738
SWIDTH 480 0
DWIDTH 8 0
BBX 6 11 0 -3
BITMAP
68
38
38
7C
7C
3C
0C
1C
78
F0
C0
ENDCHAR
STARTCHAR uni06CB
ENCODING 1739
SWIDTH 480 0
DWIDTH 8 0
BBX 6 13 0 -2
BITMAP
30
30
28
68
10
38
7C
7C
0C
0C
38
F0
E0
ENDCHAR
STARTCHAR uni06CC
ENCODING 1740
SWIDTH 480 0
DWIDTH 8 0
BBX 8 7 0 0
BITMAP
07
0E
CE
CF
C3
FE
7C
ENDCHAR
STARTCHAR uni06CD
ENCODING 1741
SWIDTH 480 0
DWIDTH 8 0
BBX 8 7 0 0
BITMAP
07
2E
EE
CF
63
7E
3C
ENDCHAR
STARTCHAR uni06CE
ENCODING 1742
SWIDTH 480 0
DWIDTH 8 0
BBX 8 10 0 -1
BITMAP
50
70
26
0F
8C
CE
C7
FF
7C
3C
ENDCHAR
STARTCHAR uni06CF
ENCODING 1743
SWIDTH 480 0
DWIDTH 8 0
BBX 6 11 0 -3
BITMAP
30
30
38
7C
7C
3C
0C
1C
78
F0
C0
ENDCHAR
STARTCHAR uni06D0
ENCODING 1744
SWIDTH 480 0
DWIDTH 8 0
BBX 8 11 0 -3
BITMAP
07
0E
CE
CF
C3
FE
7C
18
00
18
10
ENDCHAR
STARTCHAR uni06D1
ENCODING 1745
SWIDTH 480 0
DWIDTH 8 0
BBX 8 11 0 -3
BITMAP
07
0E
CE
CF
C3
FE
7C
7C
00
30
30
ENDCHAR
STARTCHAR afii57519
ENCODING 1746
SWIDTH 480 0
DWIDTH 8 0
BBX 8 5 0 0
BITMAP
30
70
C0
FF
FE
ENDCHAR
STARTCHAR uni06D3
ENCODING 1747
SWIDTH 480 0
DWIDTH 8 0
BBX 8 8 0 0
BITMAP
E0
E0
C0
30
70
C0
FF
FE
ENDCHAR
STARTCHAR uni06D4
ENCODING 1748
SWIDTH 480 0
DWIDTH 8 0
BBX 5 2 1 3
BITMAP
F8
F0
ENDCHAR
STARTCHAR afii57534
ENCODING 1749
SWIDTH 480 0
DWIDTH 8 0
BBX 5 5 1 2
BITMAP
60
F0
D8
D8
F8
ENDCHAR
STARTCHAR uni06D6
ENCODING 1750
SWIDTH 480 0
DWIDTH 8 0
BBX 5 5 0 7
BITMAP
40
78
78
C0
F0
ENDCHAR
STARTCHAR uni06D7
ENCODING 1751
SWIDTH 480 0
DWIDTH 8 0
BBX 5 5 0 7
BITMAP
58
78
78
C0
F0
ENDCHAR
STARTCHAR uni06D8
ENCODING 1752
SWIDTH 480 0
DWIDTH 8 0
BBX 5 4 0 9
BITMAP
30
78
78
D8
ENDCHAR
STARTCHAR uni06D9
ENCODING 1753
SWIDTH 480 0
DWIDTH 8 0
BBX 3 4 0 9
BITMAP
E0
E0
60
C0
ENDCHAR
STARTCHAR uni06DA
ENCODING 1754
SWIDTH 480 0
DWIDTH 8 0
BBX 3 5 0 8
BITMAP
E0
E0
C0
C0
E0
ENDCHAR
STARTCHAR uni06DB
ENCODING 1755
SWIDTH 480 0
DWIDTH 8 0
BBX 1 1 2 11
BITMAP
80
ENDCHAR
STARTCHAR uni06DC
ENCODING 1756
SWIDTH 480 0
DWIDTH 8 0
BBX 5 3 0 9
BITMAP
78
F0
C0
ENDCHAR
STARTCHAR uni06DD
ENCODING 1757
SWIDTH 480 0
DWIDTH 8 0
BBX 8 10 0 0
BITMAP
38
FE
C2
83
81
81
81
FE
EE
3C
ENDCHAR
STARTCHAR uni06DE
ENCODING 1758
SWIDTH 480 0
DWIDTH 8 0
BBX 7 7 0 1
BITMAP
10
6C
5C
BA
C4
6C
3C
ENDCHAR
STARTCHAR uni06DF
ENCODING 1759
SWIDTH 480 0
DWIDTH 8 0
BBX 2 2 2 10
BITMAP
40
C0
ENDCHAR
STARTCHAR uni06E0
ENCODING 1760
SWIDTH 480 0
DWIDTH 8 0
BBX 2 2 2 10
BITMAP
C0
C0
ENDCHAR
STARTCHAR uni06E1
ENCODING 1761
SWIDTH 480 0
DWIDTH 8 0
BBX 4 3 0 9
BITMAP
60
F0
E0
ENDCHAR
STARTCHAR uni06E2
ENCODING 1762
SWIDTH 480 0
DWIDTH 8 0
BBX 3 5 0 8
BITMAP
60
E0
C0
80
80
ENDCHAR
STARTCHAR uni06E3
ENCODING 1763
SWIDTH 480 0
DWIDTH 8 0
BBX 5 3 1 -3
BITMAP
78
F8
C0
ENDCHAR
STARTCHAR uni06E4
ENCODING 1764
SWIDTH 480 0
DWIDTH 8 0
BBX 3 2 0 10
BITMAP
80
E0
ENDCHAR
STARTCHAR uni06E5
ENCODING 1765
SWIDTH 480 0
DWIDTH 8 0
BBX 2 5 3 3
BITMAP
40
C0
40
40
C0
ENDCHAR
STARTCHAR uni06E6
ENCODING 1766
SWIDTH 480 0
DWIDTH 8 0
BBX 5 4 0 2
BITMAP
20
C0
F8
30
ENDCHAR
STARTCHAR uni06E7
ENCODING 1767
SWIDTH 480 0
DWIDTH 8 0
BBX 4 4 2 8
BITMAP
40
A0
F0
70
ENDCHAR
STARTCHAR uni06E8
ENCODING 1768
SWIDTH 480 0
DWIDTH 8 0
BBX 4 3 1 9
BITMAP
A0
B0
40
ENDCHAR
STARTCHAR uni06E9
ENCODING 1769
SWIDTH 480 0
DWIDTH 8 0
BBX 7 11 0 1
BITMAP
10
38
7C
EE
7C
58
58
58
58
58
FC
ENDCHAR
STARTCHAR uni06EA
ENCODING 1770
SWIDTH 480 0
DWIDTH 8 0
BBX 3 3 1 0
BITMAP
60
A0
E0
ENDCHAR
STARTCHAR uni06EB
ENCODING 1771
SWIDTH 480 0
DWIDTH 8 0
BBX 3 3 1 10
BITMAP
60
A0
E0
ENDCHAR
STARTCHAR uni06EC
ENCODING 1772
SWIDTH 480 0
DWIDTH 8 0
BBX 2 4 3 7
BITMAP
40
C0
C0
C0
ENDCHAR
STARTCHAR uni06ED
ENCODING 1773
SWIDTH 480 0
DWIDTH 8 0
BBX 3 4 1 -2
BITMAP
60
80
80
80
ENDCHAR
STARTCHAR uni06EE
ENCODING 1774
SWIDTH 480 0
DWIDTH 8 0
BBX 5 9 1 1
BITMAP
60
F0
90
00
70
38
18
F8
F0
ENDCHAR
STARTCHAR uni06EF
ENCODING 1775
SWIDTH 480 0
DWIDTH 8 0
BBX 6 11 0 -1
BITMAP
08
1C
2C
00
0C
0C
0C
1C
38
F0
C0
ENDCHAR
STARTCHAR uni06F0
ENCODING 1776
SWIDTH 480 0
DWIDTH 8 0
BBX 3 3 1 3
BITMAP
40
E0
E0
ENDCHAR
STARTCHAR uni06F1
ENCODING 1777
SWIDTH 480 0
DWIDTH 8 0
BBX 4 10 1 1
BITMAP
C0
C0
40
40
60
70
70
70
70
20
ENDCHAR
STARTCHAR uni06F2
ENCODING 1778
SWIDTH 480 0
DWIDTH 8 0
BBX 7 10 1 1
BITMAP
C4
CE
7E
7C
70
70
70
70
70
20
ENDCHAR
STARTCHAR uni06F3
ENCODING 1779
SWIDTH 480 0
DWIDTH 8 0
BBX 7 10 1 1
BITMAP
DE
DE
7E
7E
70
70
70
70
70
20
ENDCHAR
STARTCHAR uni06F4
ENCODING 1780
SWIDTH 480 0
DWIDTH 8 0
BBX 7 10 1 2
BITMAP
0E
DC
D8
7E
7C
70
70
70
70
20
ENDCHAR
STARTCHAR uni06F5
ENCODING 1781
SWIDTH 480 0
DWIDTH 8 0
BBX 7 10 1 1
BITMAP
20
30
78
48
CC
CE
FE
FE
7C
20
ENDCHAR
STARTCHAR uni06F6
ENCODING 1782
SWIDTH 480 0
DWIDTH 8 0
BBX 6 9 1 2
BITMAP
38
78
60
44
3C
38
30
60
C0
ENDCHAR
STARTCHAR uni06F7
ENCODING 1783
SWIDTH 480 0
DWIDTH 8 0
BBX 7 10 1 1
BITMAP
C4
CE
4C
48
78
78
78
30
30
10
ENDCHAR
STARTCHAR uni06F8
ENCODING 1784
SWIDTH 480 0
DWIDTH 8 0
BBX 7 10 1 1
BITMAP
30
30
38
78
78
48
48
CC
CE
04
ENDCHAR
STARTCHAR uni06F9
ENCODING 1785
SWIDTH 480 0
DWIDTH 8 0
BBX 5 9 1 2
BITMAP
70
D8
D8
F8
78
18
18
18
18
ENDCHAR
STARTCHAR uni06FA
ENCODING 1786
SWIDTH 480 0
DWIDTH 8 0
BBX 8 11 0 -1
BITMAP
0C
04
0B
0B
16
1D
9F
9E
DB
FB
70
ENDCHAR
STARTCHAR uni06FB
ENCODING 1787
SWIDTH 480 0
DWIDTH 8 0
BBX 8 9 0 -1
BITMAP
06
06
06
1F
9F
9E
98
FE
F0
ENDCHAR
STARTCHAR uni06FC
ENCODING 1788
SWIDTH 480 0
DWIDTH 8 0
BBX 6 11 1 -2
BITMAP
20
20
30
70
70
70
70
F8
C0
C0
7C
ENDCHAR
STARTCHAR uni06FD
ENCODING 1789
SWIDTH 480 0
DWIDTH 8 0
BBX 5 8 1 -1
BITMAP
70
70
78
F8
C0
10
50
50
ENDCHAR
STARTCHAR uni06FE
ENCODING 1790
SWIDTH 480 0
DWIDTH 8 0
BBX 5 8 1 -2
BITMAP
38
78
78
F8
C0
F8
F8
F8
ENDCHAR
STARTCHAR uni06FF
ENCODING 1791
SWIDTH 480 0
DWIDTH 8 0
BBX 7 9 0 1
BITMAP
18
3C
24
00
38
6C
7E
FE
FC
ENDCHAR
STARTCHAR uni0E01
ENCODING 3585
SWIDTH 480 0
DWIDTH 8 0
BBX 7 7 1 1
BITMAP
38
44
C6
46
46
46
46
ENDCHAR
STARTCHAR uni0E02
ENCODING 3586
SWIDTH 480 0
DWIDTH 8 0
BBX 7 7 0 1
BITMAP
62
92
D2
D2
12
12
1C
ENDCHAR
STARTCHAR uni0E03
ENCODING 3587
SWIDTH 480 0
DWIDTH 8 0
BBX 7 7 0 1
BITMAP
62
D2
D2
D2
12
12
1C
ENDCHAR
STARTCHAR uni0E04
ENCODING 3588
SWIDTH 480 0
DWIDTH 8 0
BBX 7 7 1 1
BITMAP
38
44
86
F6
F6
C6
86
ENDCHAR
STARTCHAR uni0E05
ENCODING 3589
SWIDTH 480 0
DWIDTH 8 0
BBX 7 7 1 1
BITMAP
08
54
86
F6
F6
C6
86
ENDCHAR
STARTCHAR uni0E06
ENCODING 3590
SWIDTH 480 0
DWIDTH 8 0
BBX 7 7 0 1
BITMAP
C2
E2
A2
22
62
62
6C
ENDCHAR
STARTCHAR uni0E07
ENCODING 3591
SWIDTH 480 0
DWIDTH 8 0
BBX 5 7 1 1
BITMAP
08
18
08
88
48
28
18
ENDCHAR
STARTCHAR uni0E08
ENCODING 3592
SWIDTH 480 0
DWIDTH 8 0
BBX 6 7 2 1
BITMAP
70
88
2C
AC
2C
2C
18
ENDCHAR
STARTCHAR uni0E09
ENCODING 3593
SWIDTH 480 0
DWIDTH 8 0
BBX 7 7 0 1
BITMAP
70
08
08
C8
CC
5A
24
ENDCHAR
STARTCHAR uni0E0A
ENCODING 3594
SWIDTH 480 0
DWIDTH 8 0
BBX 7 8 0 0
BITMAP
02
F6
DA
D2
12
12
1A
0C
ENDCHAR
STARTCHAR uni0E0B
ENCODING 3595
SWIDTH 480 0
DWIDTH 8 0
BBX 7 8 0 0
BITMAP
02
F6
DA
D2
12
12
1A
0C
ENDCHAR
STARTCHAR uni0E0C
ENCODING 3596
SWIDTH 480 0
DWIDTH 8 0
BBX 7 7 0 1
BITMAP
7A
8A
8A
8A
DE
DE
DA
ENDCHAR
STARTCHAR uni0E0D
ENCODING 3597
SWIDTH 480 0
DWIDTH 8 0
BBX 7 10 0 -2
BITMAP
72
9A
8A
8A
CA
CA
CE
10
1C
04
ENDCHAR
STARTCHAR uni0E0E
ENCODING 3598
SWIDTH 480 0
DWIDTH 8 0
BBX 7 8 0 0
BITMAP
7C
42
42
42
C2
C2
FA
7A
ENDCHAR
STARTCHAR uni0E0F
ENCODING 3599
SWIDTH 480 0
DWIDTH 8 0
BBX 7 8 0 0
BITMAP
7C
42
42
42
C2
D2
FA
7A
ENDCHAR
STARTCHAR uni0E10
ENCODING 3600
SWIDTH 480 0
DWIDTH 8 0
BBX 7 10 1 -2
BITMAP
7C
FC
34
36
36
16
3C
7C
7E
04
ENDCHAR
STARTCHAR uni0E11
ENCODING 3601
SWIDTH 480 0
DWIDTH 8 0
BBX 7 7 0 1
BITMAP
CC
EA
B2
32
22
22
22
ENDCHAR
STARTCHAR uni0E12
ENCODING 3602
SWIDTH 480 0
DWIDTH 8 0
BBX 7 7 0 1
BITMAP
5A
EA
BA
DA
FE
DE
9A
ENDCHAR
STARTCHAR uni0E13
ENCODING 3603
SWIDTH 480 0
DWIDTH 8 0
BBX 7 7 0 1
BITMAP
68
98
98
98
DC
DA
DC
ENDCHAR
STARTCHAR uni0E14
ENCODING 3604
SWIDTH 480 0
DWIDTH 8 0
BBX 7 7 1 1
BITMAP
38
44
86
F6
B6
86
46
ENDCHAR
STARTCHAR uni0E15
ENCODING 3605
SWIDTH 480 0
DWIDTH 8 0
BBX 7 7 1 1
BITMAP
08
54
86
F6
B6
86
46
ENDCHAR
STARTCHAR uni0E16
ENCODING 3606
SWIDTH 480 0
DWIDTH 8 0
BBX 7 7 1 1
BITMAP
38
44
C6
46
66
76
66
ENDCHAR
STARTCHAR uni0E17
ENCODING 3607
SWIDTH 480 0
DWIDTH 8 0
BBX 7 7 0 1
BITMAP
4C
CA
D2
52
62
62
42
ENDCHAR
STARTCHAR uni0E18
ENCODING 3608
SWIDTH 480 0
DWIDTH 8 0
BBX 7 7 1 1
BITMAP
7C
80
F8
7C
06
46
7C
ENDCHAR
STARTCHAR uni0E19
ENCODING 3609
SWIDTH 480 0
DWIDTH 8 0
BBX 7 7 0 1
BITMAP
48
C8
C8
48
5C
6A
64
ENDCHAR
STARTCHAR uni0E1A
ENCODING 3610
SWIDTH 480 0
DWIDTH 8 0
BBX 7 7 0 1
BITMAP
42
C2
C2
42
42
42
3C
ENDCHAR
STARTCHAR uni0E1B
ENCODING 3611
SWIDTH 480 0
DWIDTH 8 0
BBX 7 8 0 1
BITMAP
02
02
C2
C2
42
42
42
7E
ENDCHAR
STARTCHAR uni0E1C
ENCODING 3612
SWIDTH 480 0
DWIDTH 8 0
BBX 7 7 0 1
BITMAP
42
C2
C2
82
92
8A
C4
ENDCHAR
STARTCHAR uni0E1D
ENCODING 3613
SWIDTH 480 0
DWIDTH 8 0
BBX 7 8 0 1
BITMAP
02
02
C2
C2
C2
92
BA
CE
ENDCHAR
STARTCHAR uni0E1E
ENCODING 3614
SWIDTH 480 0
DWIDTH 8 0
BBX 7 7 0 1
BITMAP
42
C2
CA
5A
7E
66
62
ENDCHAR
STARTCHAR uni0E1F
ENCODING 3615
SWIDTH 480 0
DWIDTH 8 0
BBX 7 8 0 1
BITMAP
02
02
C2
CA
5A
5A
66
66
ENDCHAR
STARTCHAR uni0E20
ENCODING 3616
SWIDTH 480 0
DWIDTH 8 0
BBX 7 7 0 1
BITMAP
38
40
42
42
C2
C2
C2
ENDCHAR
STARTCHAR uni0E21
ENCODING 3617
SWIDTH 480 0
DWIDTH 8 0
BBX 7 7 1 1
BITMAP
44
C6
46
46
66
F6
4C
ENDCHAR
STARTCHAR uni0E22
ENCODING 3618
SWIDTH 480 0
DWIDTH 8 0
BBX 7 7 1 1
BITMAP
44
C6
C6
66
86
86
7C
ENDCHAR
STARTCHAR uni0E23
ENCODING 3619
SWIDTH 480 0
DWIDTH 8 0
BBX 7 7 1 1
BITMAP
7C
80
F8
7C
0E
0E
0C
ENDCHAR
STARTCHAR uni0E24
ENCODING 3620
SWIDTH 480 0
DWIDTH 8 0
BBX 7 9 1 -1
BITMAP
38
44
C6
46
66
76
66
06
06
ENDCHAR
STARTCHAR uni0E25
ENCODING 3621
SWIDTH 480 0
DWIDTH 8 0
BBX 7 7 1 1
BITMAP
78
84
36
FE
C6
C6
46
ENDCHAR
STARTCHAR uni0E26
ENCODING 3622
SWIDTH 480 0
DWIDTH 8 0
BBX 7 9 0 -1
BITMAP
38
40
42
42
C2
C2
C2
02
02
ENDCHAR
STARTCHAR uni0E27
ENCODING 3623
SWIDTH 480 0
DWIDTH 8 0
BBX 6 7 2 1
BITMAP
70
88
0C
0C
1C
1C
18
ENDCHAR
STARTCHAR uni0E28
ENCODING 3624
SWIDTH 480 0
DWIDTH 8 0
BBX 7 8 1 1
BITMAP
04
3C
08
84
96
D6
76
86
ENDCHAR
STARTCHAR uni0E29
ENCODING 3625
SWIDTH 480 0
DWIDTH 8 0
BBX 8 7 0 1
BITMAP
42
C2
DA
5B
4E
42
3C
ENDCHAR
STARTCHAR uni0E2A
ENCODING 3626
SWIDTH 480 0
DWIDTH 8 0
BBX 7 8 1 1
BITMAP
04
7C
88
04
76
CE
C6
C6
ENDCHAR
STARTCHAR uni0E2B
ENCODING 3627
SWIDTH 480 0
DWIDTH 8 0
BBX 7 7 0 1
BITMAP
44
CE
C4
4E
5A
62
62
ENDCHAR
STARTCHAR uni0E2C
ENCODING 3628
SWIDTH 480 0
DWIDTH 8 0
BBX 7 9 0 0
BITMAP
02
1E
1E
C2
DA
5A
7E
66
62
ENDCHAR
STARTCHAR uni0E2D
ENCODING 3629
SWIDTH 480 0
DWIDTH 8 0
BBX 7 7 1 1
BITMAP
78
84
06
C6
C6
C6
7C
ENDCHAR
STARTCHAR uni0E2E
ENCODING 3630
SWIDTH 480 0
DWIDTH 8 0
BBX 7 8 1 0
BITMAP
06
FC
7C
46
C6
C6
C4
78
ENDCHAR
STARTCHAR uni0E2F
ENCODING 3631
SWIDTH 480 0
DWIDTH 8 0
BBX 7 7 1 1
BITMAP
44
CE
76
26
06
06
06
ENDCHAR
STARTCHAR uni0E30
ENCODING 3632
SWIDTH 480 0
DWIDTH 8 0
BBX 5 7 1 1
BITMAP
40
C0
78
30
40
C0
78
ENDCHAR
STARTCHAR uni0E31
ENCODING 3633
SWIDTH 480 0
DWIDTH 8 0
BBX 6 2 1 8
BITMAP
44
F8
ENDCHAR
STARTCHAR uni0E32
ENCODING 3634
SWIDTH 480 0
DWIDTH 8 0
BBX 4 7 2 1
BITMAP
E0
10
10
10
10
10
10
ENDCHAR
STARTCHAR uni0E33
ENCODING 3635
SWIDTH 480 0
DWIDTH 8 0
BBX 7 10 0 1
BITMAP
40
C0
C0
18
00
02
02
02
02
02
ENDCHAR
STARTCHAR uni0E34
ENCODING 3636
SWIDTH 480 0
DWIDTH 8 0
BBX 6 2 1 8
BITMAP
78
FC
ENDCHAR
STARTCHAR uni0E35
ENCODING 3637
SWIDTH 480 0
DWIDTH 8 0
BBX 7 2 1 8
BITMAP
7C
FE
ENDCHAR
STARTCHAR uni0E36
ENCODING 3638
SWIDTH 480 0
DWIDTH 8 0
BBX 6 2 1 8
BITMAP
60
FC
ENDCHAR
STARTCHAR uni0E37
ENCODING 3639
SWIDTH 480 0
DWIDTH 8 0
BBX 7 2 1 8
BITMAP
6C
FE
ENDCHAR
STARTCHAR uni0E38
ENCODING 3640
SWIDTH 480 0
DWIDTH 8 0
BBX 2 2 5 -2
BITMAP
C0
C0
ENDCHAR
STARTCHAR uni0E39
ENCODING 3641
SWIDTH 480 0
DWIDTH 8 0
BBX 4 2 4 -2
BITMAP
E0
F0
ENDCHAR
STARTCHAR uni0E3A
ENCODING 3642
SWIDTH 480 0
DWIDTH 8 0
BBX 2 2 5 -1
BITMAP
C0
C0
ENDCHAR
STARTCHAR uni0E3F
ENCODING 3647
SWIDTH 480 0
DWIDTH 8 0
BBX 7 8 1 0
BITMAP
18
FC
56
5C
7C
56
5C
F8
ENDCHAR
STARTCHAR uni0E40
ENCODING 3648
SWIDTH 480 0
DWIDTH 8 0
BBX 2 7 2 1
BITMAP
80
80
80
80
C0
C0
40
ENDCHAR
STARTCHAR uni0E41
ENCODING 3649
SWIDTH 480 0
DWIDTH 8 0
BBX 5 7 1 1
BITMAP
90
90
90
90
D8
D8
48
ENDCHAR
STARTCHAR uni0E42
ENCODING 3650
SWIDTH 480 0
DWIDTH 8 0
BBX 7 11 0 0
BITMAP
FE
C4
F8
08
08
08
08
0C
0E
0E
04
ENDCHAR
STARTCHAR uni0E43
ENCODING 3651
SWIDTH 480 0
DWIDTH 8 0
BBX 6 10 1 1
BITMAP
70
D8
C8
C8
48
08
08
08
0C
0C
ENDCHAR
STARTCHAR uni0E44
ENCODING 3652
SWIDTH 480 0
DWIDTH 8 0
BBX 6 10 1 1
BITMAP
90
68
08
08
08
08
08
08
0C
0C
ENDCHAR
STARTCHAR uni0E45
ENCODING 3653
SWIDTH 480 0
DWIDTH 8 0
BBX 5 9 1 -1
BITMAP
70
88
08
08
08
08
08
08
08
ENDCHAR
STARTCHAR uni0E46
ENCODING 3654
SWIDTH 480 0
DWIDTH 8 0
BBX 7 8 1 0
BITMAP
68
94
C6
C6
46
06
06
06
ENDCHAR
STARTCHAR uni0E47
ENCODING 3655
SWIDTH 480 0
DWIDTH 8 0
BBX 5 3 1 7
BITMAP
08
F8
78
ENDCHAR
STARTCHAR uni0E48
ENCODING 3656
SWIDTH 480 0
DWIDTH 8 0
BBX 1 2 6 11
BITMAP
80
80
ENDCHAR
STARTCHAR uni0E49
ENCODING 3657
SWIDTH 480 0
DWIDTH 8 0
BBX 5 2 1 11
BITMAP
D8
70
ENDCHAR
STARTCHAR uni0E4A
ENCODING 3658
SWIDTH 480 0
DWIDTH 8 0
BBX 6 2 1 11
BITMAP
FC
98
ENDCHAR
STARTCHAR uni0E4B
ENCODING 3659
SWIDTH 480 0
DWIDTH 8 0
BBX 2 2 5 11
BITMAP
C0
C0
ENDCHAR
STARTCHAR uni0E4C
ENCODING 3660
SWIDTH 480 0
DWIDTH 8 0
BBX 5 2 1 11
BITMAP
E8
F0
ENDCHAR
STARTCHAR uni0E4D
ENCODING 3661
SWIDTH 480 0
DWIDTH 8 0
BBX 2 2 3 8
BITMAP
40
C0
ENDCHAR
STARTCHAR uni0E4E
ENCODING 3662
SWIDTH 480 0
DWIDTH 8 0
BBX 4 4 2 8
BITMAP
30
60
80
40
ENDCHAR
STARTCHAR uni0E4F
ENCODING 3663
SWIDTH 480 0
DWIDTH 8 0
BBX 7 6 1 0
BITMAP
78
D4
86
86
D4
78
ENDCHAR
STARTCHAR uni0E50
ENCODING 3664
SWIDTH 480 0
DWIDTH 8 0
BBX 7 6 1 0
BITMAP
78
C4
86
86
C4
78
ENDCHAR
STARTCHAR uni0E51
ENCODING 3665
SWIDTH 480 0
DWIDTH 8 0
BBX 7 6 1 0
BITMAP
78
E4
E6
E6
64
38
ENDCHAR
STARTCHAR uni0E52
ENCODING 3666
SWIDTH 480 0
DWIDTH 8 0
BBX 7 8 0 1
BITMAP
80
C0
54
7E
72
6A
52
7E
ENDCHAR
STARTCHAR uni0E53
ENCODING 3667
SWIDTH 480 0
DWIDTH 8 0
BBX 7 6 1 0
BITMAP
7C
94
96
D6
C6
46
ENDCHAR
STARTCHAR uni0E54
ENCODING 3668
SWIDTH 480 0
DWIDTH 8 0
BBX 6 8 1 1
BITMAP
04
04
38
70
88
98
98
7C
ENDCHAR
STARTCHAR uni0E55
ENCODING 3669
SWIDTH 480 0
DWIDTH 8 0
BBX 6 8 1 1
BITMAP
04
14
78
70
88
98
98
7C
ENDCHAR
STARTCHAR uni0E56
ENCODING 3670
SWIDTH 480 0
DWIDTH 8 0
BBX 7 8 1 0
BITMAP
80
D8
68
06
06
66
78
38
ENDCHAR
STARTCHAR uni0E57
ENCODING 3671
SWIDTH 480 0
DWIDTH 8 0
BBX 8 9 0 0
BITMAP
03
02
02
FA
EA
AA
CA
CE
CC
ENDCHAR
STARTCHAR uni0E58
ENCODING 3672
SWIDTH 480 0
DWIDTH 8 0
BBX 7 8 0 0
BITMAP
02
3E
40
84
8E
E6
5A
04
ENDCHAR
STARTCHAR uni0E59
ENCODING 3673
SWIDTH 480 0
DWIDTH 8 0
BBX 7 7 1 1
BITMAP
02
6E
98
90
E8
78
68
ENDCHAR
STARTCHAR uni0E5A
ENCODING 3674
SWIDTH 480 0
DWIDTH 8 0
BBX 7 7 0 1
BITMAP
4C
DE
EA
2A
0A
0A
0C
ENDCHAR
STARTCHAR uni0E5B
ENCODING 3675
SWIDTH 480 0
DWIDTH 8 0
BBX 8 7 0 1
BITMAP
40
E0
AC
EF
DC
98
60
ENDCHAR
STARTCHAR uni10A0
ENCODING 4256
SWIDTH 480 0
DWIDTH 8 0
BBX 6 10 1 1
BITMAP
FC
60
C0
C0
C0
C0
C0
C4
4C
78
ENDCHAR
STARTCHAR uni10A1
ENCODING 4257
SWIDTH 480 0
DWIDTH 8 0
BBX 7 10 1 1
BITMAP
C8
C8
C8
C8
C8
78
28
08
08
0E
ENDCHAR
STARTCHAR uni10A2
ENCODING 4258
SWIDTH 480 0
DWIDTH 8 0
BBX 7 12 1 -1
BITMAP
F8
C8
C8
C8
08
08
08
08
08
0E
02
02
ENDCHAR
STARTCHAR uni10A3
ENCODING 4259
SWIDTH 480 0
DWIDTH 8 0
BBX 7 10 1 1
BITMAP
FC
30
38
78
CC
CE
CE
CE
4C
78
ENDCHAR
STARTCHAR uni10A4
ENCODING 4260
SWIDTH 480 0
DWIDTH 8 0
BBX 5 10 1 1
BITMAP
F8
C8
C8
08
08
08
08
08
08
08
ENDCHAR
STARTCHAR uni10A5
ENCODING 4261
SWIDTH 480 0
DWIDTH 8 0
BBX 7 10 1 1
BITMAP
F8
C8
C8
C8
0E
0A
0A
08
08
08
ENDCHAR
STARTCHAR uni10A6
ENCODING 4262
SWIDTH 480 0
DWIDTH 8 0
BBX 7 10 1 1
BITMAP
E0
70
70
70
7C
7E
7E
7E
3C
18
ENDCHAR
STARTCHAR uni10A7
ENCODING 4263
SWIDTH 480 0
DWIDTH 8 0
BBX 7 10 1 1
BITMAP
38
68
C8
C8
CE
CA
CA
C8
48
78
ENDCHAR
STARTCHAR uni10A8
ENCODING 4264
SWIDTH 480 0
DWIDTH 8 0
BBX 7 10 1 1
BITMAP
FC
0E
0E
0E
0E
0E
0E
0E
0E
0E
ENDCHAR
STARTCHAR uni10A9
ENCODING 4265
SWIDTH 480 0
DWIDTH 8 0
BBX 7 10 1 1
BITMAP
C0
C0
D0
F8
CC
CE
CE
7E
0E
0E
ENDCHAR
STARTCHAR uni10AA
ENCODING 4266
SWIDTH 480 0
DWIDTH 8 0
BBX 7 10 0 1
BITMAP
E0
E0
E0
60
7C
6E
66
66
34
1C
ENDCHAR
STARTCHAR uni10AB
ENCODING 4267
SWIDTH 480 0
DWIDTH 8 0
BBX 7 10 1 1
BITMAP
F8
08
08
08
7E
C8
88
88
58
70
ENDCHAR
STARTCHAR uni10AC
ENCODING 4268
SWIDTH 480 0
DWIDTH 8 0
BBX 7 10 1 1
BITMAP
FC
C0
C0
C0
FC
CE
CE
CE
CE
CE
ENDCHAR
STARTCHAR uni10AD
ENCODING 4269
SWIDTH 480 0
DWIDTH 8 0
BBX 7 10 1 1
BITMAP
30
78
C8
C8
C8
C8
C8
C8
5A
7E
ENDCHAR
STARTCHAR uni10AE
ENCODING 4270
SWIDTH 480 0
DWIDTH 8 0
BBX 7 10 0 1
BITMAP
E6
66
66
66
66
66
66
66
34
1C
ENDCHAR
STARTCHAR uni10AF
ENCODING 4271
SWIDTH 480 0
DWIDTH 8 0
BBX 7 10 0 1
BITMAP
E6
66
66
66
66
1E
16
06
06
06
ENDCHAR
STARTCHAR uni10B0
ENCODING 4272
SWIDTH 480 0
DWIDTH 8 0
BBX 7 10 1 1
BITMAP
08
08
08
0E
0E
8A
C8
C8
58
70
ENDCHAR
STARTCHAR uni10B1
ENCODING 4273
SWIDTH 480 0
DWIDTH 8 0
BBX 6 10 1 1
BITMAP
C0
C0
C0
C0
C0
C0
C0
CC
4C
78
ENDCHAR
STARTCHAR uni10B2
ENCODING 4274
SWIDTH 480 0
DWIDTH 8 0
BBX 7 10 1 1
BITMAP
F8
CC
CE
CE
CC
F8
F0
C0
C0
FC
ENDCHAR
STARTCHAR uni10B3
ENCODING 4275
SWIDTH 480 0
DWIDTH 8 0
BBX 7 10 1 1
BITMAP
30
78
C8
C8
C8
C8
C8
CC
5E
7A
ENDCHAR
STARTCHAR uni10B4
ENCODING 4276
SWIDTH 480 0
DWIDTH 8 0
BBX 7 10 1 1
BITMAP
38
7C
FE
FE
FC
78
30
30
30
30
ENDCHAR
STARTCHAR uni10B5
ENCODING 4277
SWIDTH 480 0
DWIDTH 8 0
BBX 7 10 1 1
BITMAP
30
30
B0
F0
FC
3E
34
30
30
30
ENDCHAR
STARTCHAR uni10B6
ENCODING 4278
SWIDTH 480 0
DWIDTH 8 0
BBX 7 10 1 1
BITMAP
38
6C
CE
CE
CE
CE
CE
CE
CE
CE
ENDCHAR
STARTCHAR uni10B7
ENCODING 4279
SWIDTH 480 0
DWIDTH 8 0
BBX 7 10 1 1
BITMAP
44
CE
CE
CE
CE
7E
3E
0E
0E
0E
ENDCHAR
STARTCHAR uni10B8
ENCODING 4280
SWIDTH 480 0
DWIDTH 8 0
BBX 7 10 1 1
BITMAP
C4
CE
CE
CE
CE
7E
3E
8E
CC
78
ENDCHAR
STARTCHAR uni10B9
ENCODING 4281
SWIDTH 480 0
DWIDTH 8 0
BBX 7 10 1 1
BITMAP
C0
C0
C0
C0
FC
CE
CE
CE
CE
CE
ENDCHAR
STARTCHAR uni10BA
ENCODING 4282
SWIDTH 480 0
DWIDTH 8 0
BBX 7 12 1 -1
BITMAP
38
64
C0
C0
C0
C0
C0
C0
46
7C
08
08
ENDCHAR
STARTCHAR uni10BB
ENCODING 4283
SWIDTH 480 0
DWIDTH 8 0
BBX 7 10 1 1
BITMAP
08
08
08
08
7E
CA
CA
C8
58
70
ENDCHAR
STARTCHAR uni10BC
ENCODING 4284
SWIDTH 480 0
DWIDTH 8 0
BBX 7 11 1 0
BITMAP
F8
CC
CE
CC
F8
F0
F0
D0
C0
C0
C0
ENDCHAR
STARTCHAR uni10BD
ENCODING 4285
SWIDTH 480 0
DWIDTH 8 0
BBX 7 10 1 1
BITMAP
38
6C
C0
C0
70
08
0C
0E
4C
78
ENDCHAR
STARTCHAR uni10BE
ENCODING 4286
SWIDTH 480 0
DWIDTH 8 0
BBX 7 10 1 1
BITMAP
C4
CE
CE
CE
CE
FE
FC
C0
C0
FC
ENDCHAR
STARTCHAR uni10BF
ENCODING 4287
SWIDTH 480 0
DWIDTH 8 0
BBX 8 9 0 2
BITMAP
7E
66
36
1C
1C
3E
63
C1
80
ENDCHAR
STARTCHAR uni10C0
ENCODING 4288
SWIDTH 480 0
DWIDTH 8 0
BBX 7 10 0 1
BITMAP
E0
E0
E0
60
60
60
60
66
36
1C
ENDCHAR
STARTCHAR uni10C1
ENCODING 4289
SWIDTH 480 0
DWIDTH 8 0
BBX 6 10 1 1
BITMAP
C0
C0
C0
C0
FC
C0
C0
C0
C0
C0
ENDCHAR
STARTCHAR uni10C2
ENCODING 4290
SWIDTH 480 0
DWIDTH 8 0
BBX 7 10 1 1
BITMAP
80
F0
08
0C
0E
0E
0E
0E
4C
78
ENDCHAR
STARTCHAR uni10C3
ENCODING 4291
SWIDTH 480 0
DWIDTH 8 0
BBX 7 10 1 1
BITMAP
04
0E
CE
CE
CE
7E
3E
0E
0E
0E
ENDCHAR
STARTCHAR uni10C4
ENCODING 4292
SWIDTH 480 0
DWIDTH 8 0
BBX 7 10 1 1
BITMAP
C4
CE
CE
CE
CE
7C
38
30
30
30
ENDCHAR
STARTCHAR uni10C5
ENCODING 4293
SWIDTH 480 0
DWIDTH 8 0
BBX 7 10 0 1
BITMAP
3C
3E
36
36
3C
78
FC
F4
F0
E0
ENDCHAR
STARTCHAR uni10D0
ENCODING 4304
SWIDTH 480 0
DWIDTH 8 0
BBX 7 6 1 0
BITMAP
30
18
08
C6
C4
7C
ENDCHAR
STARTCHAR uni10D1
ENCODING 4305
SWIDTH 480 0
DWIDTH 8 0
BBX 7 10 1 1
BITMAP
C0
E0
30
30
30
68
CC
CE
4C
78
ENDCHAR
STARTCHAR uni10D2
ENCODING 4306
SWIDTH 480 0
DWIDTH 8 0
BBX 7 10 1 -2
BITMAP
60
F0
10
10
78
CC
CE
CE
4C
78
ENDCHAR
STARTCHAR uni10D3
ENCODING 4307
SWIDTH 480 0
DWIDTH 8 0
BBX 7 8 1 -1
BITMAP
7C
FC
FE
FC
D8
C0
78
0C
ENDCHAR
STARTCHAR uni10D4
ENCODING 4308
SWIDTH 480 0
DWIDTH 8 0
BBX 7 9 1 -3
BITMAP
78
CC
0E
0E
4E
CE
8E
CC
78
ENDCHAR
STARTCHAR uni10D5
ENCODING 4309
SWIDTH 480 0
DWIDTH 8 0
BBX 7 9 1 -3
BITMAP
78
CC
0E
18
5C
CE
8E
CC
78
ENDCHAR
STARTCHAR uni10D6
ENCODING 4310
SWIDTH 480 0
DWIDTH 8 0
BBX 7 10 0 1
BITMAP
60
F0
F6
F4
78
3C
3E
36
36
1C
ENDCHAR
STARTCHAR uni10D7
ENCODING 4311
SWIDTH 480 0
DWIDTH 8 0
BBX 7 6 0 0
BITMAP
FC
FE
F6
F6
F6
EC
ENDCHAR
STARTCHAR uni10D8
ENCODING 4312
SWIDTH 480 0
DWIDTH 8 0
BBX 7 5 1 1
BITMAP
38
6C
CE
CE
CC
ENDCHAR
STARTCHAR uni10D9
ENCODING 4313
SWIDTH 480 0
DWIDTH 8 0
BBX 7 9 1 -3
BITMAP
18
0C
0E
18
5C
CE
8E
CC
78
ENDCHAR
STARTCHAR uni10DA
ENCODING 4314
SWIDTH 480 0
DWIDTH 8 0
BBX 7 9 0 -3
BITMAP
FC
FE
EE
EE
C6
C0
C0
78
0C
ENDCHAR
STARTCHAR uni10DB
ENCODING 4315
SWIDTH 480 0
DWIDTH 8 0
BBX 5 10 1 1
BITMAP
78
C8
C8
08
38
68
C8
C8
48
78
ENDCHAR
STARTCHAR uni10DC
ENCODING 4316
SWIDTH 480 0
DWIDTH 8 0
BBX 5 10 1 1
BITMAP
78
C8
C0
C0
F0
D8
C8
C8
D8
70
ENDCHAR
STARTCHAR uni10DD
ENCODING 4317
SWIDTH 480 0
DWIDTH 8 0
BBX 7 6 1 0
BITMAP
FC
FC
FE
FE
FE
FE
ENDCHAR
STARTCHAR uni10DE
ENCODING 4318
SWIDTH 480 0
DWIDTH 8 0
BBX 7 11 1 -3
BITMAP
80
F8
08
0E
1C
18
4E
CE
8E
C8
78
ENDCHAR
STARTCHAR uni10DF
ENCODING 4319
SWIDTH 480 0
DWIDTH 8 0
BBX 7 9 0 -3
BITMAP
06
96
DE
DE
F6
06
66
66
3C
ENDCHAR
STARTCHAR uni10E0
ENCODING 4320
SWIDTH 480 0
DWIDTH 8 0
BBX 7 10 1 1
BITMAP
04
7C
C0
80
A8
FC
FE
FE
FE
FE
ENDCHAR
STARTCHAR uni10E1
ENCODING 4321
SWIDTH 480 0
DWIDTH 8 0
BBX 7 10 1 1
BITMAP
C0
C0
C0
C0
C8
D8
D8
CC
CE
7C
ENDCHAR
STARTCHAR uni10E2
ENCODING 4322
SWIDTH 480 0
DWIDTH 8 0
BBX 7 13 0 -2
BITMAP
38
68
68
38
68
EA
BA
C6
C6
C6
C6
FC
7C
ENDCHAR
STARTCHAR uni10E3
ENCODING 4323
SWIDTH 480 0
DWIDTH 8 0
BBX 7 9 0 -3
BITMAP
FC
B6
26
06
26
66
46
46
7C
ENDCHAR
STARTCHAR uni10E4
ENCODING 4324
SWIDTH 480 0
DWIDTH 8 0
BBX 7 9 0 -3
BITMAP
FC
F6
A6
4C
0E
46
46
46
7C
ENDCHAR
STARTCHAR uni10E5
ENCODING 4325
SWIDTH 480 0
DWIDTH 8 0
BBX 5 13 1 -2
BITMAP
38
18
08
08
38
58
48
48
08
08
C8
C8
F8
ENDCHAR
STARTCHAR uni10E6
ENCODING 4326
SWIDTH 480 0
DWIDTH 8 0
BBX 7 9 1 -3
BITMAP
FC
FC
FE
FE
D4
C0
C0
F8
0C
ENDCHAR
STARTCHAR uni10E7
ENCODING 4327
SWIDTH 480 0
DWIDTH 8 0
BBX 7 10 1 1
BITMAP
C4
CE
CE
CE
7E
0E
0E
0E
4C
78
ENDCHAR
STARTCHAR uni10E8
ENCODING 4328
SWIDTH 480 0
DWIDTH 8 0
BBX 7 10 0 1
BITMAP
58
FC
FC
FC
CC
3E
7E
6C
6C
38
ENDCHAR
STARTCHAR uni10E9
ENCODING 4329
SWIDTH 480 0
DWIDTH 8 0
BBX 7 10 1 1
BITMAP
70
D8
D8
F0
D0
C8
CC
CE
CE
CE
ENDCHAR
STARTCHAR uni10EA
ENCODING 4330
SWIDTH 480 0
DWIDTH 8 0
BBX 7 13 1 -2
BITMAP
C0
C0
C0
D8
CC
CE
CC
D8
CC
CE
CE
4C
78
ENDCHAR
STARTCHAR uni10EB
ENCODING 4331
SWIDTH 480 0
DWIDTH 8 0
BBX 7 10 1 1
BITMAP
38
0C
0E
0E
3E
6E
CE
CE
4C
78
ENDCHAR
STARTCHAR uni10EC
ENCODING 4332
SWIDTH 480 0
DWIDTH 8 0
BBX 7 13 1 -2
BITMAP
E8
FC
FE
FE
D4
C0
C0
FC
CE
4C
78
38
30
ENDCHAR
STARTCHAR uni10ED
ENCODING 4333
SWIDTH 480 0
DWIDTH 8 0
BBX 7 13 1 -2
BITMAP
20
38
08
08
68
9E
9E
6E
08
08
C8
C8
78
ENDCHAR
STARTCHAR uni10EE
ENCODING 4334
SWIDTH 480 0
DWIDTH 8 0
BBX 7 10 1 1
BITMAP
C0
C8
D8
F0
F8
CC
CE
CE
4C
78
ENDCHAR
STARTCHAR uni10EF
ENCODING 4335
SWIDTH 480 0
DWIDTH 8 0
BBX 8 8 0 -1
BITMAP
E6
B6
1C
18
FB
CE
40
C0
ENDCHAR
STARTCHAR uni10F0
ENCODING 4336
SWIDTH 480 0
DWIDTH 8 0
BBX 5 10 1 1
BITMAP
20
30
08
08
18
08
38
08
88
78
ENDCHAR
STARTCHAR uni10F1
ENCODING 4337
SWIDTH 480 0
DWIDTH 8 0
BBX 7 10 1 1
BITMAP
F0
D8
CC
CE
DC
CE
DC
CC
4E
7C
ENDCHAR
STARTCHAR uni10F2
ENCODING 4338
SWIDTH 480 0
DWIDTH 8 0
BBX 7 6 1 0
BITMAP
78
CC
CE
CC
7C
FC
ENDCHAR
STARTCHAR uni10F3
ENCODING 4339
SWIDTH 480 0
DWIDTH 8 0
BBX 7 9 1 -3
BITMAP
FE
0C
18
38
0C
0E
CE
CC
78
ENDCHAR
STARTCHAR uni10F4
ENCODING 4340
SWIDTH 480 0
DWIDTH 8 0
BBX 7 11 1 -2
BITMAP
30
60
70
38
0C
1C
18
4C
8E
8E
FC
ENDCHAR
STARTCHAR uni10F5
ENCODING 4341
SWIDTH 480 0
DWIDTH 8 0
BBX 7 10 1 1
BITMAP
30
78
C8
48
3E
3E
7E
C8
58
70
ENDCHAR
STARTCHAR uni10F6
ENCODING 4342
SWIDTH 480 0
DWIDTH 8 0
BBX 7 13 1 -2
BITMAP
40
30
30
30
78
FC
FE
FC
78
30
30
18
08
ENDCHAR
STARTCHAR uni10F7
ENCODING 4343
SWIDTH 480 0
DWIDTH 8 0
BBX 7 9 1 0
BITMAP
78
4C
0E
08
70
C0
C0
CC
78
ENDCHAR
STARTCHAR uni10F8
ENCODING 4344
SWIDTH 480 0
DWIDTH 8 0
BBX 7 10 1 1
BITMAP
C4
CE
CE
CE
FC
C0
C0
C4
4C
78
ENDCHAR
STARTCHAR uni10F9
ENCODING 4345
SWIDTH 480 0
DWIDTH 8 0
BBX 7 10 1 -2
BITMAP
38
6C
CE
CE
CC
78
30
34
3E
1C
ENDCHAR
STARTCHAR uni10FA
ENCODING 4346
SWIDTH 480 0
DWIDTH 8 0
BBX 7 6 1 0
BITMAP
78
CC
CE
60
30
30
ENDCHAR
STARTCHAR uni10FB
ENCODING 4347
SWIDTH 480 0
DWIDTH 8 0
BBX 5 5 1 2
BITMAP
40
C0
18
58
C0
ENDCHAR
STARTCHAR uni10FC
ENCODING 4348
SWIDTH 480 0
DWIDTH 8 0
BBX 5 7 1 6
BITMAP
78
C0
C0
F8
C8
C8
78
ENDCHAR
STARTCHAR uni1200
ENCODING 4608
SWIDTH 480 0
DWIDTH 8 0
BBX 5 10 1 1
BITMAP
C8
C8
C8
C8
C8
C8
C8
D8
F8
70
ENDCHAR
STARTCHAR uni1201
ENCODING 4609
SWIDTH 480 0
DWIDTH 8 0
BBX 8 10 0 1
BITMAP
C8
C8
C8
C8
CF
CB
CA
D8
F8
F0
ENDCHAR
STARTCHAR uni1202
ENCODING 4610
SWIDTH 480 0
DWIDTH 8 0
BBX 7 10 1 1
BITMAP
C4
CE
CE
CC
78
18
18
18
30
3E
ENDCHAR
STARTCHAR uni1203
ENCODING 4611
SWIDTH 480 0
DWIDTH 8 0
BBX 6 10 0 1
BITMAP
CC
CC
CC
CC
78
18
18
18
30
30
ENDCHAR
STARTCHAR uni1204
ENCODING 4612
SWIDTH 480 0
DWIDTH 8 0
BBX 7 10 0 1
BITMAP
CC
CC
CC
CC
78
08
18
1C
36
1C
ENDCHAR
STARTCHAR uni1205
ENCODING 4613
SWIDTH 480 0
DWIDTH 8 0
BBX 7 10 0 1
BITMAP
46
C6
C6
C6
66
46
46
46
46
7C
ENDCHAR
STARTCHAR uni1206
ENCODING 4614
SWIDTH 480 0
DWIDTH 8 0
BBX 8 10 0 1
BITMAP
CE
CF
CE
CC
C8
C8
C8
C8
C8
F8
ENDCHAR
STARTCHAR uni1208
ENCODING 4616
SWIDTH 480 0
DWIDTH 8 0
BBX 5 10 1 1
BITMAP
18
30
70
70
D8
C8
C8
C8
C8
C8
ENDCHAR
STARTCHAR uni1209
ENCODING 4617
SWIDTH 480 0
DWIDTH 8 0
BBX 8 10 0 1
BITMAP
18
30
60
70
D8
CE
CF
CB
C8
C8
ENDCHAR
STARTCHAR uni120A
ENCODING 4618
SWIDTH 480 0
DWIDTH 8 0
BBX 8 10 0 1
BITMAP
18
30
60
70
D8
C8
C8
CA
CB
CF
ENDCHAR
STARTCHAR uni120B
ENCODING 4619
SWIDTH 480 0
DWIDTH 8 0
BBX 5 10 1 1
BITMAP
18
30
70
70
D8
C8
C8
08
08
08
ENDCHAR
STARTCHAR uni120C
ENCODING 4620
SWIDTH 480 0
DWIDTH 8 0
BBX 8 10 0 1
BITMAP
18
30
60
70
D8
C8
C8
CE
C9
CE
ENDCHAR
STARTCHAR uni120D
ENCODING 4621
SWIDTH 480 0
DWIDTH 8 0
BBX 7 10 1 1
BITMAP
08
18
30
78
6C
CE
CE
FE
DE
FE
ENDCHAR
STARTCHAR uni120E
ENCODING 4622
SWIDTH 480 0
DWIDTH 8 0
BBX 8 10 0 1
BITMAP
18
30
60
70
DC
CC
C9
CC
C8
C8
ENDCHAR
STARTCHAR uni120F
ENCODING 4623
SWIDTH 480 0
DWIDTH 8 0
BBX 7 11 0 0
BITMAP
18
30
60
70
D8
C8
C8
08
08
08
3E
ENDCHAR
STARTCHAR uni1210
ENCODING 4624
SWIDTH 480 0
DWIDTH 8 0
BBX 7 10 1 1
BITMAP
30
30
30
30
78
FC
FE
FE
FE
FE
ENDCHAR
STARTCHAR uni1211
ENCODING 4625
SWIDTH 480 0
DWIDTH 8 0
BBX 8 10 0 1
BITMAP
30
30
30
30
78
FE
FF
FD
FC
FC
ENDCHAR
STARTCHAR uni1212
ENCODING 4626
SWIDTH 480 0
DWIDTH 8 0
BBX 8 10 0 1
BITMAP
30
30
30
30
78
FC
FC
FC
FF
FF
ENDCHAR
STARTCHAR uni1213
ENCODING 4627
SWIDTH 480 0
DWIDTH 8 0
BBX 7 10 1 1
BITMAP
30
30
30
30
78
FC
FE
DE
0E
0E
ENDCHAR
STARTCHAR uni1214
ENCODING 4628
SWIDTH 480 0
DWIDTH 8 0
BBX 8 10 0 1
BITMAP
30
30
30
30
78
FC
FC
FE
F3
FE
ENDCHAR
STARTCHAR uni1215
ENCODING 4629
SWIDTH 480 0
DWIDTH 8 0
BBX 7 10 1 1
BITMAP
C0
F0
30
30
78
FC
FE
FE
FE
FE
ENDCHAR
STARTCHAR uni1216
ENCODING 4630
SWIDTH 480 0
DWIDTH 8 0
BBX 7 10 1 1
BITMAP
30
30
30
30
78
FC
FE
D4
C0
C0
ENDCHAR
STARTCHAR uni1217
ENCODING 4631
SWIDTH 480 0
DWIDTH 8 0
BBX 8 11 0 0
BITMAP
30
30
30
30
78
FC
FC
FC
0C
0C
1F
ENDCHAR
STARTCHAR uni1218
ENCODING 4632
SWIDTH 480 0
DWIDTH 8 0
BBX 7 8 0 1
BITMAP
7C
FE
AA
AA
AA
AA
EA
44
ENDCHAR
STARTCHAR uni1219
ENCODING 4633
SWIDTH 480 0
DWIDTH 8 0
BBX 7 7 0 2
BITMAP
70
F8
D8
DE
DE
D8
D8
ENDCHAR
STARTCHAR uni121A
ENCODING 4634
SWIDTH 480 0
DWIDTH 8 0
BBX 7 11 0 0
BITMAP
78
EC
AA
AA
AA
EE
06
04
08
16
1E
ENDCHAR
STARTCHAR uni121B
ENCODING 4635
SWIDTH 480 0
DWIDTH 8 0
BBX 7 10 0 1
BITMAP
78
EC
AA
AA
AA
EE
06
04
04
04
ENDCHAR
STARTCHAR uni121C
ENCODING 4636
SWIDTH 480 0
DWIDTH 8 0
BBX 7 11 0 0
BITMAP
78
EC
AA
AA
AA
EE
04
0C
0A
0A
0C
ENDCHAR
STARTCHAR uni121D
ENCODING 4637
SWIDTH 480 0
DWIDTH 8 0
BBX 7 10 0 1
BITMAP
78
EC
AA
AA
AA
EC
64
60
40
40
ENDCHAR
STARTCHAR uni121E
ENCODING 4638
SWIDTH 480 0
DWIDTH 8 0
BBX 7 10 0 1
BITMAP
78
EC
AA
AA
AA
EC
64
20
20
20
ENDCHAR
STARTCHAR uni121F
ENCODING 4639
SWIDTH 480 0
DWIDTH 8 0
BBX 7 11 0 0
BITMAP
78
EC
AA
AA
AA
EE
04
04
08
08
1E
ENDCHAR
STARTCHAR uni1220
ENCODING 4640
SWIDTH 480 0
DWIDTH 8 0
BBX 7 8 1 1
BITMAP
FE
FE
FE
FE
FC
F8
F0
60
ENDCHAR
STARTCHAR uni1221
ENCODING 4641
SWIDTH 480 0
DWIDTH 8 0
BBX 7 8 0 1
BITMAP
FC
FC
FC
FE
FE
FA
F0
60
ENDCHAR
STARTCHAR uni1222
ENCODING 4642
SWIDTH 480 0
DWIDTH 8 0
BBX 7 11 1 0
BITMAP
FC
FE
FE
FE
FC
78
28
18
10
3C
1C
ENDCHAR
STARTCHAR uni1223
ENCODING 4643
SWIDTH 480 0
DWIDTH 8 0
BBX 7 10 1 1
BITMAP
FC
FE
FE
FE
FE
7E
2E
0E
0E
0E
ENDCHAR
STARTCHAR uni1224
ENCODING 4644
SWIDTH 480 0
DWIDTH 8 0
BBX 7 11 0 0
BITMAP
FC
FC
FC
FC
FC
F8
28
1C
3E
36
1C
ENDCHAR
STARTCHAR uni1225
ENCODING 4645
SWIDTH 480 0
DWIDTH 8 0
BBX 7 10 0 1
BITMAP
5E
5E
5E
5E
7C
E0
C0
C0
C0
C0
ENDCHAR
STARTCHAR uni1226
ENCODING 4646
SWIDTH 480 0
DWIDTH 8 0
BBX 7 10 1 1
BITMAP
FC
FE
FE
FE
F8
30
30
30
70
70
ENDCHAR
STARTCHAR uni1227
ENCODING 4647
SWIDTH 480 0
DWIDTH 8 0
BBX 8 11 0 0
BITMAP
FC
FC
FC
FC
FC
EC
2C
0C
0C
0C
1F
ENDCHAR
STARTCHAR uni1228
ENCODING 4648
SWIDTH 480 0
DWIDTH 8 0
BBX 7 10 0 1
BITMAP
30
30
30
30
30
60
C0
C0
FE
7C
ENDCHAR
STARTCHAR uni1229
ENCODING 4649
SWIDTH 480 0
DWIDTH 8 0
BBX 7 10 0 1
BITMAP
30
30
30
60
C0
C0
FC
7E
18
18
ENDCHAR
STARTCHAR uni122A
ENCODING 4650
SWIDTH 480 0
DWIDTH 8 0
BBX 7 10 0 1
BITMAP
30
30
30
30
30
60
CC
C6
FE
7C
ENDCHAR
STARTCHAR uni122B
ENCODING 4651
SWIDTH 480 0
DWIDTH 8 0
BBX 7 10 0 1
BITMAP
30
30
30
30
30
60
C0
CE
FC
78
ENDCHAR
STARTCHAR uni122C
ENCODING 4652
SWIDTH 480 0
DWIDTH 8 0
BBX 7 10 0 1
BITMAP
30
30
30
30
30
60
CC
CA
FE
7C
ENDCHAR
STARTCHAR uni122D
ENCODING 4653
SWIDTH 480 0
DWIDTH 8 0
BBX 6 10 0 1
BITMAP
78
D8
C0
C0
C0
C0
C0
C4
CC
78
ENDCHAR
STARTCHAR uni122E
ENCODING 4654
SWIDTH 480 0
DWIDTH 8 0
BBX 7 10 0 1
BITMAP
78
CC
CA
CA
CC
C0
C0
C4
CC
78
ENDCHAR
STARTCHAR uni122F
ENCODING 4655
SWIDTH 480 0
DWIDTH 8 0
BBX 7 10 0 1
BITMAP
48
78
30
30
30
60
C0
CE
FC
78
ENDCHAR
STARTCHAR uni1230
ENCODING 4656
SWIDTH 480 0
DWIDTH 8 0
BBX 7 10 1 1
BITMAP
30
30
38
78
CC
CE
CE
CE
CE
CE
ENDCHAR
STARTCHAR uni1231
ENCODING 4657
SWIDTH 480 0
DWIDTH 8 0
BBX 8 10 0 1
BITMAP
30
30
30
78
CE
CF
CF
CC
CC
CC
ENDCHAR
STARTCHAR uni1232
ENCODING 4658
SWIDTH 480 0
DWIDTH 8 0
BBX 8 10 0 1
BITMAP
30
30
30
78
CC
CC
CC
CC
CF
CF
ENDCHAR
STARTCHAR uni1233
ENCODING 4659
SWIDTH 480 0
DWIDTH 8 0
BBX 7 10 1 1
BITMAP
30
30
38
78
CC
CE
CE
0E
0E
0E
ENDCHAR
STARTCHAR uni1234
ENCODING 4660
SWIDTH 480 0
DWIDTH 8 0
BBX 8 10 0 1
BITMAP
30
30
30
78
CC
CC
CC
CE
C9
CE
ENDCHAR
STARTCHAR uni1235
ENCODING 4661
SWIDTH 480 0
DWIDTH 8 0
BBX 7 10 1 1
BITMAP
40
30
38
78
CC
CE
CE
CE
CE
CE
ENDCHAR
STARTCHAR uni1236
ENCODING 4662
SWIDTH 480 0
DWIDTH 8 0
BBX 7 10 1 1
BITMAP
30
30
38
78
CC
CE
CE
C0
C0
C0
ENDCHAR
STARTCHAR uni1237
ENCODING 4663
SWIDTH 480 0
DWIDTH 8 0
BBX 8 11 0 0
BITMAP
30
30
30
78
CC
CC
CC
0C
0C
0C
1F
ENDCHAR
STARTCHAR uni1238
ENCODING 4664
SWIDTH 480 0
DWIDTH 8 0
BBX 7 10 1 1
BITMAP
FC
30
38
78
CC
CE
CE
CE
CE
CE
ENDCHAR
STARTCHAR uni1239
ENCODING 4665
SWIDTH 480 0
DWIDTH 8 0
BBX 8 10 0 1
BITMAP
FC
30
30
78
CE
CF
CF
CC
CC
CC
ENDCHAR
STARTCHAR uni123A
ENCODING 4666
SWIDTH 480 0
DWIDTH 8 0
BBX 8 10 0 1
BITMAP
FC
30
30
78
CC
CC
CC
CC
CF
CF
ENDCHAR
STARTCHAR uni123B
ENCODING 4667
SWIDTH 480 0
DWIDTH 8 0
BBX 7 10 1 1
BITMAP
FC
30
38
78
CC
CE
CE
0E
0E
0E
ENDCHAR
ENDFONT
